SplineFontDB: 3.0
FontName: Boton-Bold
FullName: Boton Bold
FamilyName: Boton
Weight: Bold
Copyright: Copyright (c) 1992 Adobe Systems Incorporated.  All Rights Reserved.Boton is a trademark of H. Berthold AG.
Version: 1.0
ItalicAngle: 0
UnderlinePosition: -75
UnderlineWidth: 50
Ascent: 800
Descent: 200
sfntRevision: 0x00010000
LayerCount: 2
Layer: 0 0 "Back"  1
Layer: 1 0 "Fore"  0
XUID: [1021 588 1133928653 13452749]
UniqueID: 40031
FSType: 0
OS2Version: 2
OS2_WeightWidthSlopeOnly: 0
OS2_UseTypoMetrics: 1
CreationTime: 1178615230
ModificationTime: 1359126170
PfmFamily: 81
TTFWeight: 700
TTFWidth: 5
LineGap: 0
VLineGap: 0
Panose: 0 0 0 0 0 0 0 0 0 0
OS2TypoAscent: -94
OS2TypoAOffset: 1
OS2TypoDescent: -5
OS2TypoDOffset: 1
OS2TypoLinegap: 72
OS2WinAscent: 0
OS2WinAOffset: 1
OS2WinDescent: 0
OS2WinDOffset: 1
HheadAscent: 0
HheadAOffset: 1
HheadDescent: 0
HheadDOffset: 1
OS2SubXSize: 650
OS2SubYSize: 650
OS2SubXOff: 0
OS2SubYOff: 150
OS2SupXSize: 650
OS2SupYSize: 650
OS2SupXOff: 0
OS2SupYOff: 500
OS2StrikeYSize: 50
OS2StrikeYPos: 225
OS2CodePages: 20000111.41000000
OS2UnicodeRanges: 8000002f.40000048.00000000.00000000
Lookup: 258 0 0 "'kern' Horizontal Kerning in Latin lookup 0"  {"'kern' Horizontal Kerning in Latin lookup 0 subtable"  } ['kern' ('latn' <'dflt' > ) ]
MarkAttachClasses: 1
DEI: 91125
LangName: 1033 "" "" "" "" "" "" "" "" "" "" "Boton-Bold" "" "" "" "" "" "" "" "Bold" "" "Boton Bold" 
Encoding: UnicodeBmp
UnicodeInterp: none
NameList: Adobe Glyph List
DisplaySize: -36
AntiAlias: 1
FitToEm: 1
WinInfo: 64 32 13
BeginPrivate: 11
BlueValues 23 [-15 0 706 725 518 532]
OtherBlues 11 [-224 -204]
FamilyBlues 23 [-16 0 706 724 521 534]
FamilyOtherBlues 11 [-223 -203]
BlueScale 8 0.047958
StdHW 5 [143]
StdVW 5 [186]
StemSnapH 5 [143]
StemSnapV 5 [186]
ForceBold 4 true
ExpansionFactor 4 0.06
EndPrivate
BeginChars: 65537 229

StartChar: exclam
Encoding: 33 33 2
Width: 354
Flags: MW
HStem: 0 195<100 295 100 295> 686 20<93 303 303 303>
VStem: 100 195<0 195>
LayerCount: 2
Fore
SplineSet
93 706 m 1
 303 706 l 1
 275 252 l 1
 119 252 l 1
 93 706 l 1
295 0 m 1
 100 0 l 1
 100 195 l 1
 295 195 l 1
 295 0 l 1
EndSplineSet
EndChar

StartChar: quotedbl
Encoding: 34 34 3
Width: 396
Flags: MW
HStem: 408 341<79.5 110 79 115 79.5 288 288.5 319>
VStem: 22 143<683.5 704.5> 22 352<683.5 704.5> 231 143<683.5 704.5>
LayerCount: 2
Fore
SplineSet
110 408 m 1xf0
 79 408 l 1
 27 644 l 2
 24 658 22 674 22 682 c 0
 22 727 62 749 97 749 c 0
 133 749 165 727 165 687 c 0
 165 680 163 663 159 644 c 2
 110 408 l 1xf0
319 408 m 1
 288 408 l 1
 236 644 l 2
 233 658 231 674 231 682 c 0
 231 727 271 749 306 749 c 0
 342 749 374 727 374 687 c 0
 374 680 372 663 368 644 c 2
 319 408 l 1
EndSplineSet
EndChar

StartChar: numbersign
Encoding: 35 35 4
Width: 667
Flags: MW
HStem: 0 21<111 235 111 111 334 459 334 334> 186 123<42 136 42 154 278 360 42 261 503 601> 405 124<67 167 67 184 67 292 308 391 533 624> 686 20<209 334 334 334 432 557 557 557>
VStem: 42 582<186 529 309 529>
LayerCount: 2
Fore
SplineSet
485 186 m 1
 459 0 l 1
 334 0 l 1
 360 186 l 1
 261 186 l 1
 235 0 l 1
 111 0 l 1
 136 186 l 1
 42 186 l 1
 42 309 l 1
 154 309 l 1
 167 405 l 1
 67 405 l 1
 67 529 l 1
 184 529 l 1
 209 706 l 1
 334 706 l 1
 308 529 l 1
 408 529 l 1
 432 706 l 1
 557 706 l 1
 533 529 l 1
 624 529 l 1
 624 405 l 1
 515 405 l 1
 503 309 l 1
 601 309 l 1
 601 186 l 1
 485 186 l 1
278 309 m 1
 377 309 l 1
 391 405 l 1
 292 405 l 1
 278 309 l 1
EndSplineSet
EndChar

StartChar: dollar
Encoding: 36 36 5
Width: 583
Flags: MW
HStem: -108 236<243.5 308.5 243.5 356 223 308.5> -7 21<353 353> 0 128<36 308.5> 0 247<36 173 36 180> 468 238<403 540 403 540 392 540> 585 121<269 540> 585 228<269 299> 686 20<403 540 540 540> 695 20<223 223>
VStem: 33 185<510.5 530.5> 36 139 223 131 364 189<182 221.5> 401 139
LayerCount: 2
Fore
SplineSet
356 813 m 1x42b4
 352 688 l 1
 371 677 378 672 399 650 c 1x4134
 403 706 l 1
 540 706 l 1
 540 468 l 1
 392 468 l 1x4834
 388 497 383 531 357 558 c 0x4434
 333 582 306 585 292 585 c 0
 246 585 218 554 218 521 c 0
 218 500 227 484 236 475 c 0
 252 458 274 450 347 423 c 0
 443 387 553 346 553 200 c 0
 553 164 546 128 526 93 c 0x4448
 479 9 399 -1 353 -7 c 1x40b4
 356 -108 l 1
 223 -108 l 1x80b4
 227 13 l 1
 210 22 196 30 177 60 c 1
 173 0 l 1
 36 0 l 1
 36 247 l 1x10b4
 180 247 l 1x10c4
 185 217 200 128 287 128 c 0
 330 128 364 155 364 193 c 0
 364 250 294 274 252 288 c 0
 222 298 192 307 163 320 c 0
 129 336 33 381 33 507 c 0x20c8
 33 554 48 637 136 688 c 0
 172 709 196 712 223 715 c 1x40b4
 223 813 l 1
 356 813 l 1x42b4
EndSplineSet
EndChar

StartChar: percent
Encoding: 37 37 6
Width: 958
Flags: MW
HStem: -7 95<714 768 714 806> 0 21<294 294 294 391> 258 95<172 226.5 172 264.5> 357 95 622 95 686 20<561 659 659 659>
VStem: 23 117<462 503.5> 272 117<440.5 509> 565 117<197 238.5> 813 117<175.5 244>
LayerCount: 2
Fore
SplineSet
23 486 m 0xbbc0
 23 521 27 557 39 591 c 0
 59 648 96 686 140 704 c 0
 239 744 389 695 389 487 c 0
 389 363 326 258 203 258 c 0
 106 258 23 332 23 486 c 0xbbc0
207 622 m 0xabc0
 197 622 183 619 170 607 c 0
 143 582 140 532 140 487 c 0
 140 437 140 353 204 353 c 0
 249 353 272 387 272 494 c 0
 272 524 272 622 207 622 c 0xabc0
565 221 m 0x9bc0
 565 256 569 292 581 326 c 0
 601 383 638 421 682 439 c 0
 780 479 930 429 930 222 c 0
 930 99 868 -7 744 -7 c 0
 647 -7 565 68 565 221 c 0x9bc0
749 357 m 0x9bc0
 738 357 725 354 712 342 c 0
 685 317 682 267 682 222 c 0
 682 172 682 88 746 88 c 0
 790 88 813 122 813 229 c 0
 813 259 813 357 749 357 c 0x9bc0
294 0 m 1x57c0
 561 706 l 1
 659 706 l 1
 391 0 l 1
 294 0 l 1x57c0
EndSplineSet
EndChar

StartChar: ampersand
Encoding: 38 38 7
Width: 792
Flags: MW
HStem: -12 146<305 346.5 305 382> 0 21<572 572 572 789> 0 342<572 572 572 692 518 789> 589 129<342.5 371.5>
VStem: 41 188<187 232> 127 178<529 554 529 595.5> 407 181<542.5 563>
LayerCount: 2
Fore
SplineSet
572 0 m 1xda
 525 45 l 1
 497 27 435 -12 329 -12 c 0
 180 -12 41 67 41 214 c 0
 41 250 49 282 69 315 c 0x9a
 101 371 144 393 175 408 c 1
 154 440 127 482 127 540 c 0
 127 651 239 718 373 718 c 0
 481 718 588 675 588 556 c 0
 588 529 583 482 541 441 c 0
 517 417 504 411 416 369 c 1
 452 328 462 317 507 272 c 1
 515 303 516 312 518 342 c 1
 692 342 l 1x36
 692 311 691 275 681 228 c 0
 670 178 655 155 645 137 c 1
 789 0 l 1
 572 0 l 1xda
274 290 m 1
 260 278 229 253 229 213 c 0
 229 161 281 134 329 134 c 0
 364 134 391 146 406 153 c 1
 344 214 330 228 274 290 c 1
333 480 m 1x96
 347 487 372 500 375 502 c 0
 382 506 407 522 407 550 c 0
 407 576 384 589 359 589 c 0
 326 589 305 567 305 541 c 0
 305 517 321 496 333 480 c 1x96
EndSplineSet
EndChar

StartChar: quoteright
Encoding: 8217 8217 8
Width: 313
Flags: MW
HStem: 436 271<100 145 18 291> 687 20<100 291 291 291>
VStem: 18 273<436 707>
LayerCount: 2
Fore
SplineSet
100 707 m 1x60
 291 707 l 1
 145 436 l 1
 18 436 l 1xa0
 100 707 l 1x60
EndSplineSet
EndChar

StartChar: parenleft
Encoding: 40 40 9
Width: 313
Flags: MW
HStem: 705 20<128 279 279 279>
VStem: 34 184<230.5 303 230.5 316.5>
LayerCount: 2
Fore
SplineSet
279 -187 m 1
 126 -187 l 1
 93 -115 34 12 34 266 c 0
 34 367 43 449 57 515 c 1
 77 620 105 677 128 725 c 1
 279 725 l 1
 266 685 246 622 232 514 c 0
 223 441 218 337 218 269 c 0
 218 192 225 84 235 11 c 0
 249 -90 267 -147 279 -187 c 1
EndSplineSet
EndChar

StartChar: parenright
Encoding: 41 41 10
Width: 313
Flags: MW
HStem: 705 20<31 182 182 182>
VStem: 92 184<230.5 303>
LayerCount: 2
Fore
SplineSet
31 725 m 1
 182 725 l 1
 200 688 213 660 229 610 c 0
 264 499 276 383 276 266 c 0
 276 12 217 -115 184 -187 c 1
 31 -187 l 1
 43 -147 61 -90 75 11 c 0
 85 84 92 192 92 269 c 0
 92 337 87 441 78 514 c 0
 64 622 44 685 31 725 c 1
EndSplineSet
EndChar

StartChar: asterisk
Encoding: 42 42 11
Width: 396
Flags: MW
HStem: 508 20<101 101 285 285> 686 20<143 250 250 250>
VStem: 146 99
LayerCount: 2
Fore
SplineSet
143 706 m 1
 250 706 l 1
 242 603 l 1
 324 662 l 1
 379 571 l 1
 285 528 l 1
 379 481 l 1
 324 390 l 1
 242 449 l 1
 250 345 l 1
 143 345 l 1
 150 449 l 1
 69 390 l 1
 14 481 l 1
 101 528 l 1
 14 571 l 1
 69 662 l 1
 150 603 l 1
 143 706 l 1
EndSplineSet
EndChar

StartChar: plus
Encoding: 43 43 12
Width: 667
Flags: MW
HStem: 0 21<271 398 271 271> 228 127<42 271 42 271 398 625>
VStem: 271 127<0 228 0 228 355 583>
LayerCount: 2
Fore
SplineSet
398 228 m 1
 398 0 l 1
 271 0 l 1
 271 228 l 1
 42 228 l 1
 42 355 l 1
 271 355 l 1
 271 583 l 1
 398 583 l 1
 398 355 l 1
 625 355 l 1
 625 228 l 1
 398 228 l 1
EndSplineSet
EndChar

StartChar: comma
Encoding: 44 44 13
Width: 313
Flags: MW
HStem: -109 258<85 143 15 289>
VStem: 15 274<-109 149>
LayerCount: 2
Fore
SplineSet
85 149 m 1
 289 149 l 1
 143 -109 l 1
 15 -109 l 1
 85 149 l 1
EndSplineSet
EndChar

StartChar: hyphen
Encoding: 45 45 14
Width: 417
Flags: MW
HStem: 196 162<21 395 21 395>
VStem: 21 374<196 358 196 358>
LayerCount: 2
Fore
SplineSet
395 196 m 1
 21 196 l 1
 21 358 l 1
 395 358 l 1
 395 196 l 1
EndSplineSet
EndChar

StartChar: period
Encoding: 46 46 15
Width: 313
Flags: MW
HStem: 0 195<57 252 57 252>
VStem: 57 195<0 195>
LayerCount: 2
Fore
SplineSet
252 0 m 1
 57 0 l 1
 57 195 l 1
 252 195 l 1
 252 0 l 1
EndSplineSet
EndChar

StartChar: slash
Encoding: 47 47 16
Width: 458
Flags: MW
HStem: -106 919<-5 457 -5 457>
VStem: -5 462
LayerCount: 2
Fore
SplineSet
-5 -106 m 1
 304 813 l 1
 457 813 l 1
 148 -106 l 1
 -5 -106 l 1
EndSplineSet
EndChar

StartChar: zero
Encoding: 48 48 17
Width: 625
Flags: MW
HStem: -12 152<294.5 342.5> 568 151<304 339.5>
VStem: 20 187<307 395.5 307 399> 416 187<301 380.5>
LayerCount: 2
Fore
SplineSet
20 349 m 0
 20 449 43 563 120 641 c 0
 170 692 240 719 311 719 c 0
 494 719 603 571 603 355 c 0
 603 244 573 136 501 65 c 0
 449 14 379 -12 306 -12 c 0
 283 -12 260 -9 238 -3 c 0
 186 10 152 32 121 62 c 0
 46 136 20 243 20 349 c 0
314 568 m 0
 294 568 273 562 254 544 c 0
 215 507 207 440 207 351 c 0
 207 263 213 140 310 140 c 0
 397 140 416 239 416 363 c 0
 416 398 414 462 398 502 c 0
 388 526 365 568 314 568 c 0
EndSplineSet
EndChar

StartChar: one
Encoding: 49 49 18
Width: 625
Flags: MW
HStem: 0 143<240 240 174 240> 687 20<275 426 426 426>
VStem: 240 186<143 557 557 557>
LayerCount: 2
Fore
SplineSet
275 707 m 1
 426 707 l 1
 426 143 l 1
 492 144 l 1
 492 0 l 1
 174 0 l 1
 174 144 l 1
 240 143 l 1
 240 557 l 1
 142 519 l 1
 142 661 l 1
 275 707 l 1
EndSplineSet
EndChar

StartChar: two
Encoding: 50 50 19
Width: 625
Flags: MW
HStem: 0 140<266 410 266 558> 579 140<271 321 255 323.5>
VStem: 56 180<504 504> 359 187<508 530> 410 148<140 212 0 212>
LayerCount: 2
Fore
SplineSet
236 504 m 1xe8
 56 504 l 1
 59 538 65 605 115 655 c 0
 145 686 205 719 305 719 c 0
 337 719 397 716 451 686 c 0
 504 656 546 602 546 529 c 0xf0
 546 406 425 291 266 140 c 1
 410 140 l 1
 410 212 l 1
 558 212 l 1
 558 0 l 1xe8
 47 0 l 1
 47 144 l 1
 129 216 290 355 339 449 c 0
 350 471 359 498 359 518 c 0xf0
 359 542 347 579 300 579 c 0
 242 579 237 524 236 504 c 1xe8
EndSplineSet
EndChar

StartChar: three
Encoding: 51 51 20
Width: 625
Flags: MW
HStem: -11 139<289.5 337.5 289.5 372.5> 304 120<223 290.5> 509 212<44 363> 581 140<281 306>
VStem: 28 183<216 216> 362 184<489 535> 385 186<206.5 223.5 122 258.5>
LayerCount: 2
Fore
SplineSet
219 509 m 1xfa
 44 509 l 1xea
 47 542 55 606 105 655 c 0
 145 695 217 721 303 721 c 0
 423 721 546 667 546 524 c 0xdc
 546 431 487 386 416 373 c 0
 409 371 401 371 394 370 c 1
 405 368 417 367 429 364 c 0
 445 361 460 357 476 350 c 0
 548 319 571 253 571 194 c 0
 571 50 441 -11 304 -11 c 0
 234 -11 153 4 96 62 c 1
 34 122 30 186 28 216 c 1
 211 216 l 1
 213 197 215 174 235 154 c 0
 250 138 275 128 304 128 c 0
 371 128 385 191 385 222 c 0xda
 385 295 317 304 264 304 c 0
 251 304 236 303 223 303 c 1
 223 424 l 1
 254 424 275 424 296 429 c 0
 343 440 362 470 362 508 c 0
 362 562 321 581 291 581 c 0
 271 581 250 573 237 561 c 0xdc
 220 544 219 523 219 509 c 1xfa
EndSplineSet
EndChar

StartChar: four
Encoding: 52 52 21
Width: 625
Flags: MW
HStem: 0 144<237 303 484 553 237 303> 213 127<195 303> 582 124<318 318> 686 20<223 484 484 484>
VStem: 318 166<344 582 582 582>
LayerCount: 2
Fore
SplineSet
24 344 m 1xd8
 223 706 l 1
 484 706 l 1
 484 344 l 1
 598 344 l 1
 598 213 l 1
 484 213 l 1
 484 144 l 1
 553 144 l 1
 553 0 l 1
 237 0 l 1
 237 144 l 1
 303 144 l 1
 303 213 l 1
 24 213 l 1
 24 344 l 1xd8
318 340 m 1
 318 582 l 1xe8
 195 340 l 1
 318 340 l 1
EndSplineSet
EndChar

StartChar: five
Encoding: 53 53 22
Width: 625
Flags: MW
HStem: -12 146<283.5 322 278 386.5> 345 118<293 416> 571 136<258 379 258 258>
VStem: 377 183<220 276> 379 153<508 571 571 571>
LayerCount: 2
Fore
SplineSet
69 319 m 1xe8
 102 707 l 1
 532 707 l 1
 532 508 l 1
 379 508 l 1
 379 571 l 1xe8
 258 571 l 1
 246 429 l 1
 266 441 303 463 361 463 c 0
 471 463 560 371 560 233 c 0
 560 100 471 -12 302 -12 c 0
 265 -12 175 -8 108 59 c 0
 52 115 47 182 44 214 c 1
 214 214 l 1
 215 202 217 188 224 174 c 0
 238 146 265 134 291 134 c 0
 353 134 377 194 377 246 c 0
 377 306 345 345 302 345 c 0xf0
 284 345 256 339 236 301 c 1
 69 319 l 1xe8
EndSplineSet
EndChar

StartChar: six
Encoding: 54 54 23
Width: 625
Flags: MW
HStem: -11 132<292.5 322 281.5 376> 332 138<286 440.5> 591 128<282 340>
VStem: 39 192<240 257.5 204 340.5> 400 173<508 508> 402 187<209 261.5>
LayerCount: 2
Fore
SplineSet
573 508 m 1xfc
 400 508 l 1
 399 521 398 533 393 545 c 0xf8
 381 576 355 591 325 591 c 0
 239 591 231 482 226 411 c 1
 234 421 242 430 257 440 c 0
 284 458 324 470 376 470 c 0
 505 470 589 397 589 243 c 0
 589 175 573 106 525 58 c 0xf4
 497 30 435 -11 317 -11 c 0
 268 -11 187 -6 122 58 c 0
 89 91 39 154 39 326 c 0
 39 355 41 384 44 413 c 0
 63 585 130 719 339 719 c 0
 374 719 426 714 469 694 c 0
 568 649 571 551 573 508 c 1xfc
316 332 m 0xf4
 256 332 231 287 231 228 c 0
 231 180 247 121 316 121 c 0
 328 121 354 122 374 142 c 0
 387 155 402 182 402 229 c 0
 402 294 371 332 316 332 c 0xf4
EndSplineSet
EndChar

StartChar: seven
Encoding: 55 55 24
Width: 625
Flags: MW
HStem: 0 144<142 216 407 483 142 216> 566 141<211 364 211 211>
VStem: 66 145<508 566 508 707 508 707> 142 341<0 144 0 144>
LayerCount: 2
Fore
SplineSet
66 508 m 1xe0
 66 707 l 1xe0
 549 707 l 1
 549 551 l 1
 407 144 l 1
 483 144 l 1
 483 0 l 1
 142 0 l 1
 142 144 l 1
 216 144 l 1xd0
 364 566 l 1
 211 566 l 1
 211 508 l 1
 66 508 l 1xe0
EndSplineSet
EndChar

StartChar: eight
Encoding: 56 56 25
Width: 625
Flags: MW
HStem: -11 137<303.5 325.5 303.5 382> 304 120<288.5 321> 585 134<305 338.5 300 342.5>
VStem: 30 180<102 242.5> 47 174<517 545> 401 175<498.5 530.5> 415 180<199 227>
LayerCount: 2
Fore
SplineSet
422 365 m 1xea
 433 364 444 362 455 359 c 0
 502 348 595 304 595 190 c 0
 595 46 457 -11 307 -11 c 0
 204 -11 30 22 30 182 c 0
 30 213 35 265 81 311 c 0xf2
 116 346 150 355 189 365 c 1
 155 375 121 385 91 415 c 0
 50 455 47 506 47 528 c 0
 47 562 54 606 94 647 c 0
 164 719 282 719 318 719 c 0
 359 719 462 718 528 650 c 0
 569 608 576 562 576 531 c 0xec
 576 455 535 395 445 371 c 0
 437 369 429 367 422 365 c 1xea
313 585 m 0xec
 297 585 221 585 221 507 c 0
 221 446 266 424 311 424 c 0
 339 424 365 434 381 450 c 0
 400 469 401 491 401 506 c 0
 401 555 372 585 313 585 c 0xec
314 304 m 0xf2
 251 304 210 270 210 215 c 0
 210 206 210 176 234 152 c 0
 260 126 297 126 310 126 c 0
 341 126 372 133 393 155 c 0
 403 166 415 185 415 213 c 0
 415 241 405 263 390 277 c 0
 364 303 328 304 314 304 c 0xf2
EndSplineSet
EndChar

StartChar: nine
Encoding: 57 57 26
Width: 625
Flags: MW
HStem: -10 126<285 339.5 285 358> 250 135<281.5 291.5> 589 130<269 312>
VStem: 31 168<217 217> 32 189<444.5 500 444.5 504> 400 182
LayerCount: 2
Fore
SplineSet
31 217 m 1xfc
 199 217 l 1
 200 200 201 183 207 167 c 0xf4
 227 116 279 116 291 116 c 0
 388 116 397 205 400 318 c 1
 378 293 341 250 242 250 c 0
 85 250 32 369 32 469 c 0
 32 539 58 605 99 647 c 0xec
 152 700 228 719 304 719 c 0
 558 719 582 497 582 364 c 0
 582 307 577 212 540 133 c 0
 498 45 426 -10 290 -10 c 0
 184 -10 123 24 91 55 c 0
 37 108 33 175 31 217 c 1xfc
388 492 m 0
 388 589 316 589 308 589 c 0
 230 589 221 517 221 483 c 0xec
 221 406 258 385 305 385 c 0
 328 385 388 393 388 492 c 0
EndSplineSet
EndChar

StartChar: colon
Encoding: 58 58 27
Width: 354
Flags: MW
HStem: 0 195<98 293 98 293> 322 195<98 293 98 293>
VStem: 98 195<0 195 322 517>
LayerCount: 2
Fore
SplineSet
293 0 m 1
 98 0 l 1
 98 195 l 1
 293 195 l 1
 293 0 l 1
293 322 m 1
 98 322 l 1
 98 517 l 1
 293 517 l 1
 293 322 l 1
EndSplineSet
EndChar

StartChar: semicolon
Encoding: 59 59 28
Width: 354
Flags: MW
HStem: -107 257<125 184 54 332> 322 195<110 305 110 305>
VStem: 110 195<322 517>
LayerCount: 2
Fore
SplineSet
125 150 m 1
 332 150 l 1
 184 -107 l 1
 54 -107 l 1
 125 150 l 1
305 322 m 1
 110 322 l 1
 110 517 l 1
 305 517 l 1
 305 322 l 1
EndSplineSet
EndChar

StartChar: less
Encoding: 60 60 29
Width: 667
Flags: MW
HStem: -3 21<667 667> 689 20<667 667>
VStem: 0 667<-3 413 -3 413>
LayerCount: 2
Fore
SplineSet
667 136 m 1
 667 -3 l 1
 0 289 l 1
 0 413 l 1
 667 709 l 1
 667 570 l 1
 178 351 l 1
 667 136 l 1
EndSplineSet
EndChar

StartChar: equal
Encoding: 61 61 30
Width: 667
Flags: MW
HStem: 124 127<0 667 0 667> 332 127<0 667 0 667>
VStem: 0 667<124 251 124 251 332 459 124 459>
LayerCount: 2
Fore
SplineSet
667 251 m 1
 667 124 l 1
 0 124 l 1
 0 251 l 1
 667 251 l 1
667 459 m 1
 667 332 l 1
 0 332 l 1
 0 459 l 1
 667 459 l 1
EndSplineSet
EndChar

StartChar: greater
Encoding: 62 62 31
Width: 667
Flags: MW
HStem: -3 21<0 0> 689 20<0 0>
VStem: 0 667<-3 289 136 289 289 709 289 709>
LayerCount: 2
Fore
SplineSet
667 289 m 1
 0 -3 l 1
 0 136 l 1
 489 351 l 1
 0 570 l 1
 0 709 l 1
 667 413 l 1
 667 289 l 1
EndSplineSet
EndChar

StartChar: question
Encoding: 63 63 32
Width: 500
Flags: MW
HStem: 0 195<128 323 128 323> 584 134<213 258>
VStem: -5 163<478 478> 128 195<0 195> 147 168<250 250> 305 173<505 543>
LayerCount: 2
Fore
SplineSet
158 478 m 1xf4
 -5 478 l 1
 -4 492 -4 505 -2 518 c 0
 4 569 25 619 58 652 c 0
 106 701 175 718 244 718 c 0
 416 718 478 607 478 522 c 0xe4
 478 455 446 408 377 354 c 0
 328 316 316 307 315 250 c 1xc8
 147 250 l 1xd0
 146 348 162 362 233 421 c 0
 286 466 305 486 305 524 c 0
 305 562 277 584 239 584 c 0
 187 584 155 546 158 478 c 1xf4
323 0 m 1xd0
 128 0 l 1
 128 195 l 1
 323 195 l 1
 323 0 l 1xd0
EndSplineSet
EndChar

StartChar: at
Encoding: 64 64 33
Width: 896
Flags: MW
HStem: -123 71<392 514> 64 78<621 641.5> 68 74<403 421> 469 63<474.5 501.5> 642 70<463 571.5>
VStem: 67 102<148.5 287.5 148.5 305.5> 256 109<212.5 241.5 212.5 328.5> 750 76<341.5 457>
LayerCount: 2
Fore
SplineSet
786 81 m 1xdf
 829 26 l 1
 807 4 787 -17 742 -46 c 0
 659 -98 563 -123 465 -123 c 0
 221 -123 67 26 67 244 c 0
 67 367 119 495 201 581 c 0
 278 662 389 712 502 712 c 0
 690 712 826 576 826 376 c 0
 826 208 711 64 606 64 c 0xdf
 537 64 519 118 515 132 c 1
 483 93 445 68 397 68 c 0xbf
 325 68 256 130 256 249 c 0
 256 408 375 532 482 532 c 0
 553 532 574 484 583 465 c 1
 592 506 l 1
 676 506 l 1
 634 310 l 2
 628 283 606 184 606 163 c 0
 606 146 616 142 626 142 c 0
 657 142 682 178 691 191 c 0
 727 241 750 302 750 381 c 0
 750 533 642 642 501 642 c 0
 425 642 335 608 265 522 c 0
 203 445 169 333 169 242 c 0
 169 55 306 -52 478 -52 c 0
 564 -52 646 -25 713 19 c 0
 750 44 773 68 786 81 c 1xdf
547 396 m 0
 547 456 510 469 493 469 c 0
 456 469 431 427 423 415 c 0
 383 347 365 265 365 218 c 0
 365 207 366 197 368 188 c 0
 373 161 390 142 416 142 c 0
 438 142 471 161 497 211 c 0xbf
 523 260 547 348 547 396 c 0
EndSplineSet
EndChar

StartChar: A
Encoding: 65 65 34
Width: 688
Flags: MW
HStem: 0 143<50 50 3 50> 224 140<275 389 275 422 241 389> 562 143 580 126<333 333>
VStem: 3 285<0 144 0 144> 131 52<563 563 563 706> 380 64<143 143 143 144 143 144> 508 52<563 563> 632 51<143 143>
LayerCount: 2
Fore
SplineSet
131 562 m 1xe780
 131 706 l 1xe780
 560 706 l 1
 560 562 l 1
 508 563 l 1
 632 143 l 1
 683 144 l 1
 683 0 l 1
 380 0 l 1
 380 144 l 1
 444 143 l 1
 422 224 l 1
 241 224 l 1
 219 143 l 1
 288 144 l 1
 288 0 l 1
 3 0 l 1
 3 144 l 1
 50 143 l 1xeb80
 183 563 l 1
 131 562 l 1xe780
389 364 m 1
 333 580 l 1xd780
 275 364 l 1
 389 364 l 1
EndSplineSet
EndChar

StartChar: B
Encoding: 66 66 35
Width: 625
Flags: MW
HStem: 0 144<266 321 321 340.5 19 19> 287 135<266 306.5> 562 143 568 138<266 266>
VStem: 82 184<144 287 422 563 563 563> 399 184<486 512.5> 415 188<178.5 210.5 152 229.5>
LayerCount: 2
Fore
SplineSet
19 706 m 1xd8
 327 706 l 1
 398 704 484 701 536 647 c 0
 566 615 583 563 583 517 c 0
 583 455 555 420 539 405 c 0xdc
 519 385 493 372 468 360 c 1
 497 351 527 342 554 316 c 0
 583 287 603 237 603 184 c 0
 603 120 574 80 554 60 c 0
 498 3 424 2 344 0 c 1
 19 0 l 1
 19 144 l 1
 82 143 l 1
 82 563 l 1
 19 562 l 1xea
 19 706 l 1xd8
266 568 m 1
 266 422 l 1
 323 421 331 421 345 424 c 0
 362 428 399 444 399 494 c 0
 399 531 378 552 363 559 c 0
 347 567 337 567 266 568 c 1
266 287 m 1
 266 144 l 1
 321 144 l 2
 360 144 415 145 415 212 c 0
 415 247 396 271 372 280 c 0xda
 355 287 347 287 266 287 c 1
EndSplineSet
EndChar

StartChar: C
Encoding: 67 67 36
Width: 625
Flags: MW
HStem: -12 149<311.5 346.5> 455 252<454 585 454 585 433 585> 572 147<302 339 237.5 379>
VStem: 35 189<340 367.5> 433 163<268 268> 451 133
LayerCount: 2
Fore
SplineSet
433 268 m 1xb4
 596 268 l 1
 590 189 584 118 529 61 c 0xb8
 461 -9 368 -12 325 -12 c 0
 288 -12 252 -8 217 4 c 0
 129 34 92 98 75 136 c 0
 44 203 35 280 35 350 c 0
 35 385 37 422 43 458 c 0
 48 494 57 530 71 564 c 0
 109 656 181 719 294 719 c 0
 384 719 429 677 449 650 c 1xb4
 454 707 l 1
 585 707 l 1
 585 455 l 1
 433 455 l 1xd4
 430 484 422 572 336 572 c 0
 268 572 247 511 241 490 c 0
 228 448 224 386 224 350 c 0
 224 330 226 259 240 216 c 0
 257 164 290 137 333 137 c 0
 364 137 384 151 395 162 c 0
 428 195 431 244 433 268 c 1xb4
EndSplineSet
EndChar

StartChar: D
Encoding: 68 68 37
Width: 688
Flags: MW
HStem: 0 144<270 299 20 20> 562 144<20 328 270 270>
VStem: 84 186<144 562 144 563 144 563> 462 190<342.5 387>
LayerCount: 2
Fore
SplineSet
327 0 m 1
 20 0 l 1
 20 144 l 1
 84 143 l 1
 84 563 l 1
 20 562 l 1
 20 706 l 1
 328 706 l 1
 398 703 430 700 460 693 c 0
 587 662 652 535 652 360 c 0
 652 325 649 290 644 255 c 0
 637 209 622 132 565 76 c 0
 492 4 395 2 327 0 c 1
270 562 m 1
 270 144 l 1
 328 144 360 144 388 158 c 0
 462 196 462 318 462 356 c 0
 462 418 454 457 444 485 c 0
 417 559 366 564 270 562 c 1
EndSplineSet
EndChar

StartChar: E
Encoding: 69 69 38
Width: 604
Flags: MW
HStem: 0 143<84 84 270 420 20 84> 299 143<270 396 270 396> 563 143<84 84 270 420 270 270>
VStem: 84 186<143 299 442 563> 420 151<143 268 0 268 455 563 563 563>
LayerCount: 2
Fore
SplineSet
20 562 m 1
 20 706 l 1
 571 706 l 1
 571 455 l 1
 420 455 l 1
 420 563 l 1
 270 563 l 1
 270 442 l 1
 396 442 l 1
 396 299 l 1
 270 299 l 1
 270 143 l 1
 420 143 l 1
 420 268 l 1
 571 268 l 1
 571 0 l 1
 20 0 l 1
 20 144 l 1
 84 143 l 1
 84 563 l 1
 20 562 l 1
EndSplineSet
EndChar

StartChar: F
Encoding: 70 70 39
Width: 562
Flags: MW
HStem: 0 143<83 83 18 83> 299 143<269 386 269 386> 563 143<83 83 269 403 269 269>
VStem: 83 186<143 299 442 563> 403 150<455 563 563 563>
LayerCount: 2
Fore
SplineSet
18 706 m 1
 553 706 l 1
 553 455 l 1
 403 455 l 1
 403 563 l 1
 269 563 l 1
 269 442 l 1
 386 442 l 1
 386 299 l 1
 269 299 l 1
 269 143 l 1
 336 144 l 1
 336 0 l 1
 18 0 l 1
 18 144 l 1
 83 143 l 1
 83 563 l 1
 18 562 l 1
 18 706 l 1
EndSplineSet
EndChar

StartChar: G
Encoding: 71 71 40
Width: 688
Flags: MW
HStem: -15 149<335.5 359> 1 133<335.5 477 335.5 628> 245 142<370 448 370 628> 467 240<474 607 474 607 460 607> 572 145<315.5 363.5 192.5 376.5>
VStem: 36 194<321.5 405> 370 258<245 387 1 387> 472 135
LayerCount: 2
Fore
SplineSet
477 1 m 1xef
 471 60 l 1xae
 453 38 411 -15 307 -15 c 0
 203 -15 122 36 77 133 c 0
 48 196 36 277 36 348 c 0
 36 462 71 717 314 717 c 0
 413 717 448 676 470 649 c 1xad
 474 707 l 1
 607 707 l 1
 607 467 l 1xb5
 460 467 l 1xb6
 456 485 451 511 436 533 c 0
 421 555 397 572 356 572 c 0
 275 572 230 492 230 346 c 0
 230 297 236 203 282 159 c 0
 301 141 323 134 348 134 c 0
 389 134 411 153 420 163 c 0xae
 443 188 446 218 448 245 c 1
 370 245 l 1
 370 387 l 1
 628 387 l 1
 628 1 l 1
 477 1 l 1xef
EndSplineSet
EndChar

StartChar: H
Encoding: 72 72 41
Width: 708
Flags: MW
HStem: 0 143<83 83 19 83> 302 139<269 438 269 438> 562 143
VStem: 83 186<143 302 441 563> 438 185<143 302 302 302 441 563 143 563>
LayerCount: 2
Fore
SplineSet
19 562 m 1
 19 706 l 1
 316 706 l 1
 316 562 l 1
 269 563 l 1
 269 441 l 1
 438 441 l 1
 438 563 l 1
 389 562 l 1
 389 706 l 1
 687 706 l 1
 687 562 l 1
 623 563 l 1
 623 143 l 1
 687 144 l 1
 687 0 l 1
 389 0 l 1
 389 144 l 1
 438 143 l 1
 438 302 l 1
 269 302 l 1
 269 143 l 1
 316 144 l 1
 316 0 l 1
 19 0 l 1
 19 144 l 1
 83 143 l 1
 83 563 l 1
 19 562 l 1
EndSplineSet
EndChar

StartChar: I
Encoding: 73 73 42
Width: 354
Flags: MW
HStem: 0 143<83 83 18 83> 562 143
VStem: 83 187<143 563 143 563>
LayerCount: 2
Fore
SplineSet
18 562 m 1
 18 706 l 1
 334 706 l 1
 334 562 l 1
 270 563 l 1
 270 143 l 1
 334 144 l 1
 334 0 l 1
 18 0 l 1
 18 144 l 1
 83 143 l 1
 83 563 l 1
 18 562 l 1
EndSplineSet
EndChar

StartChar: J
Encoding: 74 74 43
Width: 437
Flags: MW
HStem: -10 152<124 132.5 76 170> 562 143
VStem: 172 187<261 563 209 563>
LayerCount: 2
Fore
SplineSet
108 562 m 1
 108 706 l 1
 424 706 l 1
 424 562 l 1
 359 563 l 1
 359 209 l 1
 358 146 358 64 283 21 c 0
 237 -6 186 -10 154 -10 c 0
 94 -10 48 3 3 16 c 1
 3 171 l 1
 29 157 57 142 95 142 c 0
 170 142 171 204 172 261 c 1
 172 563 l 1
 108 562 l 1
EndSplineSet
EndChar

StartChar: K
Encoding: 75 75 44
Width: 688
Flags: MW
HStem: 0 143<84 84 20 84> 562 143
VStem: 84 184<405 563 405 563 405 563> 367 55<563 563 563 706> 370 51<143 143 143 144 143 144> 619 44<563 563> 629 49<143 143>
LayerCount: 2
Fore
SplineSet
367 706 m 1xf0
 663 706 l 1
 663 562 l 1
 619 563 l 1xf4
 465 415 l 1
 629 143 l 1
 678 144 l 1
 678 0 l 1
 370 0 l 1
 370 144 l 1
 421 143 l 1
 336 294 l 1xea
 264 226 l 1
 264 143 l 1
 310 144 l 1
 310 0 l 1
 20 0 l 1
 20 144 l 1
 84 143 l 1
 84 563 l 1
 20 562 l 1
 20 706 l 1
 310 706 l 1
 310 562 l 1
 268 563 l 1
 268 405 l 1
 422 563 l 1
 367 562 l 1
 367 706 l 1xf0
EndSplineSet
EndChar

StartChar: L
Encoding: 76 76 45
Width: 542
Flags: MW
HStem: 0 143<84 84 270 377 16 84> 562 143
VStem: 84 186<143 563 143 563> 377 151<143 268 0 268>
LayerCount: 2
Fore
SplineSet
19 706 m 1
 336 706 l 1
 336 562 l 1
 270 563 l 1
 270 143 l 1
 377 143 l 1
 377 268 l 1
 528 268 l 1
 528 0 l 1
 16 0 l 1
 16 144 l 1
 84 143 l 1
 84 563 l 1
 19 562 l 1
 19 706 l 1
EndSplineSet
EndChar

StartChar: M
Encoding: 77 77 46
Width: 875
Flags: MW
HStem: 0 143<84 84 84 226 84 270 20 84> 562 143
VStem: 84 142<143 562 143 563 143 563> 627 163<143 555 555 555>
LayerCount: 2
Fore
SplineSet
20 562 m 1
 20 706 l 1
 361 706 l 1
 439 302 l 1
 524 706 l 1
 855 706 l 1
 855 562 l 1
 790 563 l 1
 790 143 l 1
 855 144 l 1
 855 0 l 1
 579 0 l 1
 579 144 l 1
 627 143 l 1
 627 555 l 1
 491 0 l 1
 356 0 l 1
 226 562 l 1
 226 143 l 1
 270 144 l 1
 270 0 l 1
 20 0 l 1
 20 144 l 1
 84 143 l 1
 84 563 l 1
 20 562 l 1
EndSplineSet
EndChar

StartChar: N
Encoding: 78 78 47
Width: 708
Flags: MW
HStem: 0 143<84 84 20 84> 562 143
VStem: 84 141 498 141
LayerCount: 2
Fore
SplineSet
20 562 m 1
 20 706 l 1
 339 706 l 1
 499 143 l 1
 497 563 l 1
 451 562 l 1
 451 706 l 1
 703 706 l 1
 703 562 l 1
 639 563 l 1
 639 0 l 1
 380 0 l 1
 223 559 l 1
 227 143 l 1
 275 144 l 1
 275 0 l 1
 20 0 l 1
 20 144 l 1
 84 143 l 1
 84 563 l 1
 20 562 l 1
EndSplineSet
EndChar

StartChar: O
Encoding: 79 79 48
Width: 708
Flags: MW
HStem: -12 142<313 357.5 313 469.5> 575 143
VStem: 32 191<327.5 378.5 327.5 401> 486 191<324 370>
LayerCount: 2
Fore
SplineSet
32 348 m 0
 32 454 57 562 133 636 c 0
 251 753 431 716 482 698 c 0
 630 644 677 496 677 357 c 0
 677 163 587 -12 352 -12 c 0
 268 -12 184 13 125 73 c 0
 55 144 32 248 32 348 c 0
486 354 m 0
 486 386 483 418 477 451 c 1
 468 491 446 575 353 575 c 0
 325 575 299 567 277 544 c 1
 230 498 223 404 223 353 c 0
 223 302 230 267 234 248 c 0
 246 196 273 130 353 130 c 0
 362 130 379 130 396 137 c 0
 476 168 486 294 486 354 c 0
EndSplineSet
EndChar

StartChar: P
Encoding: 80 80 49
Width: 604
Flags: MW
HStem: 0 143<84 84 20 84> 243 140<270 277.5 264 361 270 270> 562 145<20 288 264 264 264 288 20 294>
VStem: 84 186<143 243 143 563> 393 187<459.5 476>
LayerCount: 2
Fore
SplineSet
20 562 m 1
 20 707 l 1
 288 707 l 1
 390 705 465 702 520 646 c 0
 564 600 580 535 580 471 c 0
 580 448 578 425 573 402 c 0
 566 364 554 331 522 299 c 0
 470 246 405 244 361 243 c 1
 270 243 l 1
 270 143 l 1
 336 144 l 1
 336 0 l 1
 20 0 l 1
 20 144 l 1
 84 143 l 1
 84 563 l 1
 20 562 l 1
294 562 m 2
 264 562 l 1
 264 383 l 1
 291 383 325 383 344 389 c 0
 383 401 393 434 393 469 c 0
 393 483 392 516 369 539 c 0
 347 562 318 562 294 562 c 2
EndSplineSet
EndChar

StartChar: Q
Encoding: 81 81 50
Width: 708
Flags: MW
HStem: 574 145<344 373.5 329.5 407>
VStem: 29 192<310 386> 484 192<323.5 395.5 323.5 399.5>
LayerCount: 2
Fore
SplineSet
539 -162 m 1
 426 -100 l 1
 333 -51 302 -32 258 -2 c 1
 221 8 173 21 125 69 c 0
 52 142 29 247 29 350 c 0
 29 422 40 494 73 558 c 0
 154 719 307 719 352 719 c 0
 395 719 456 715 517 681 c 0
 664 601 676 435 676 356 c 0
 676 291 667 231 645 174 c 0
 603 67 538 35 510 21 c 1
 564 -4 584 -12 672 -47 c 1
 539 -162 l 1
351 574 m 0
 337 574 322 572 308 567 c 0
 244 540 221 447 221 353 c 0
 221 267 238 196 275 160 c 0
 302 133 331 130 353 130 c 0
 381 130 405 135 429 159 c 0
 465 195 484 261 484 352 c 0
 484 447 463 574 351 574 c 0
EndSplineSet
EndChar

StartChar: R
Encoding: 82 82 51
Width: 667
Flags: MW
HStem: 0 143<83 83 18 83> 287 137<263 267> 562 144 570 137<263 263>
VStem: 83 180<424 563 563 563> 410 194<490.5 508.5> 591 52<143 143>
LayerCount: 2
Fore
SplineSet
18 707 m 1xd8
 356 707 l 1
 404 706 471 705 524 675 c 0
 566 652 604 605 604 523 c 0xdc
 604 458 579 380 493 355 c 0
 486 353 479 352 472 350 c 1
 479 349 486 348 493 346 c 0
 551 330 561 280 567 254 c 2
 591 143 l 1
 643 144 l 1
 643 0 l 1
 426 0 l 1
 387 226 l 1
 376 280 349 291 267 287 c 1
 267 143 l 1
 321 144 l 1
 321 0 l 1
 18 0 l 1
 18 144 l 1
 83 143 l 1
 83 563 l 1
 18 562 l 1xea
 18 707 l 1xd8
263 570 m 1
 263 424 l 1
 332 423 367 422 391 446 c 0
 402 457 410 475 410 496 c 0
 410 521 399 538 389 547 c 0
 365 572 333 571 263 570 c 1
EndSplineSet
EndChar

StartChar: S
Encoding: 83 83 52
Width: 583
Flags: MW
HStem: -9 136<289 311 289 406.5> 0 247<39 176 39 183> 468 238<406 543 406 543 396 543> 585 131<272 278.5 237.5 302.5>
VStem: 36 185<510.5 537.5 510.5 542> 39 139 367 189<174 221> 404 139
LayerCount: 2
Fore
SplineSet
39 247 m 1xe5
 183 247 l 1x65
 188 217 203 128 289 127 c 0
 333 127 367 155 367 193 c 0xa6
 367 249 296 273 255 287 c 0
 225 297 195 307 166 320 c 0
 132 335 36 381 36 507 c 0
 36 577 66 626 95 655 c 0
 156 716 225 716 250 716 c 0
 307 716 356 702 402 651 c 1x99
 406 706 l 1
 543 706 l 1
 543 468 l 1
 396 468 l 1xa5
 392 497 387 531 360 558 c 0
 336 583 310 585 295 585 c 0
 249 585 221 554 221 521 c 0
 221 500 230 484 239 475 c 0x99
 255 458 278 450 350 423 c 0
 446 387 556 346 556 199 c 0
 556 89 484 -9 329 -9 c 0
 230 -9 196 38 180 59 c 1xa6
 176 0 l 1
 39 0 l 1
 39 247 l 1xe5
EndSplineSet
EndChar

StartChar: T
Encoding: 84 84 53
Width: 646
Flags: MW
HStem: 0 143<228 228 163 228> 564 143<159 228 159 159 414 483 414 414>
VStem: 9 150<455 564 455 707 455 707> 228 186<143 564 143 564> 483 150<455 564 564 564>
LayerCount: 2
Fore
SplineSet
9 455 m 1
 9 707 l 1
 633 707 l 1
 633 455 l 1
 483 455 l 1
 483 564 l 1
 414 564 l 1
 414 143 l 1
 478 144 l 1
 478 0 l 1
 163 0 l 1
 163 144 l 1
 228 143 l 1
 228 564 l 1
 159 564 l 1
 159 455 l 1
 9 455 l 1
EndSplineSet
EndChar

StartChar: U
Encoding: 85 85 54
Width: 688
Flags: MW
HStem: -11 143<323.5 380 300.5 408.5> 562 143
VStem: 75 185<264 563> 423 185<237.5 257 257 563>
LayerCount: 2
Fore
SplineSet
14 562 m 1
 14 706 l 1
 310 706 l 1
 310 562 l 1
 260 563 l 1
 260 238 l 2
 260 193 261 132 340 132 c 0
 420 132 422 184 423 215 c 1
 423 563 l 1
 373 562 l 1
 373 706 l 1
 673 706 l 1
 673 562 l 1
 608 563 l 1
 608 257 l 2
 608 218 607 179 594 140 c 0
 564 44 477 -11 340 -11 c 0
 307 -11 207 -10 139 59 c 0
 79 119 77 191 75 264 c 1
 75 563 l 1
 14 562 l 1
EndSplineSet
EndChar

StartChar: V
Encoding: 86 86 55
Width: 688
Flags: MW
HStem: 0 21<228 456 228 228> 0 159<351 351 351 456 228 351> 562 143
VStem: 7 44<563 563 563 706> 248 62<563 563> 400 62<563 563 563 706> 631 47<563 563>
LayerCount: 2
Fore
SplineSet
7 562 m 1xbe
 7 706 l 1
 310 706 l 1
 310 562 l 1
 248 563 l 1
 351 159 l 1x7e
 462 563 l 1
 400 562 l 1
 400 706 l 1
 678 706 l 1
 678 562 l 1
 631 563 l 1
 456 0 l 1
 228 0 l 1
 51 563 l 1
 7 562 l 1xbe
EndSplineSet
EndChar

StartChar: W
Encoding: 87 87 56
Width: 958
Flags: MW
HStem: 0 21<178 381 178 178 575 774 575 575> 0 201<293 293 293 381 178 293> 562 143
VStem: 2 51<563 563 563 706> 226 67<563 563> 686 261<562 706 562 706>
LayerCount: 2
Fore
SplineSet
2 562 m 1xbc
 2 706 l 1
 293 706 l 1
 293 562 l 1
 226 563 l 1
 293 201 l 1
 399 706 l 1
 575 706 l 1
 682 201 l 1x7c
 749 563 l 1
 686 562 l 1
 686 706 l 1
 947 706 l 1
 947 562 l 1
 900 563 l 1
 774 0 l 1
 575 0 l 1
 477 474 l 1
 381 0 l 1
 178 0 l 1
 53 563 l 1
 2 562 l 1xbc
EndSplineSet
EndChar

StartChar: X
Encoding: 88 88 57
Width: 667
Flags: MW
HStem: 0 143<63 63 16 63> 562 143
VStem: 34 50<563 563 563 706> 240 48<143 143> 267 47<563 563> 352 53<143 143 143 144 143 144> 367 264<562 706 562 706> 601 49<143 143>
LayerCount: 2
Fore
SplineSet
34 562 m 1xea
 34 706 l 1
 314 706 l 1
 314 562 l 1
 267 563 l 1
 342 412 l 1
 416 563 l 1
 367 562 l 1
 367 706 l 1
 631 706 l 1
 631 562 l 1
 582 563 l 1xea
 475 371 l 1
 601 143 l 1
 650 144 l 1
 650 0 l 1
 352 0 l 1
 352 144 l 1
 405 143 l 1
 322 304 l 1
 240 143 l 1
 288 144 l 1
 288 0 l 1
 16 0 l 1
 16 144 l 1
 63 143 l 1xf5
 192 368 l 1
 84 563 l 1
 34 562 l 1xea
EndSplineSet
EndChar

StartChar: Y
Encoding: 89 89 58
Width: 625
Flags: MW
HStem: 0 143<221 221 155 221> 562 143
VStem: 0 50<563 563 563 706> 221 186<143 239 239 239> 241 53<563 563> 351 50<563 563 563 706> 572 48<563 563>
LayerCount: 2
Fore
SplineSet
0 562 m 1xf2
 0 706 l 1
 294 706 l 1
 294 562 l 1
 241 563 l 1
 319 379 l 1
 401 563 l 1xee
 351 562 l 1
 351 706 l 1
 620 706 l 1
 620 562 l 1
 572 563 l 1
 407 240 l 1
 407 143 l 1
 475 144 l 1
 475 0 l 1
 155 0 l 1
 155 144 l 1
 221 143 l 1
 221 239 l 1
 50 563 l 1
 0 562 l 1xf2
EndSplineSet
EndChar

StartChar: Z
Encoding: 90 90 59
Width: 604
Flags: MW
HStem: 0 143<259 410 259 560> 563 143<199 343 199 199>
VStem: 49 150<474 563 474 706 474 706> 410 150<143 245 0 245>
LayerCount: 2
Fore
SplineSet
49 474 m 1
 49 706 l 1
 560 706 l 1
 560 566 l 1
 259 143 l 1
 410 143 l 1
 410 245 l 1
 560 245 l 1
 560 0 l 1
 41 0 l 1
 41 132 l 1
 343 563 l 1
 199 563 l 1
 199 474 l 1
 49 474 l 1
EndSplineSet
EndChar

StartChar: bracketleft
Encoding: 91 91 60
Width: 417
Flags: MW
HStem: -187 139<252 396 252 396> 587 138<252 396 252 252>
VStem: 77 175<-48 587 -48 725 -48 725>
LayerCount: 2
Fore
SplineSet
77 725 m 1
 396 725 l 1
 396 587 l 1
 252 587 l 1
 252 -48 l 1
 396 -48 l 1
 396 -187 l 1
 77 -187 l 1
 77 725 l 1
EndSplineSet
EndChar

StartChar: backslash
Encoding: 92 92 61
Width: 458
Flags: MW
HStem: -106 919<-5 457 -5 304>
VStem: -5 462
LayerCount: 2
Fore
SplineSet
457 -106 m 1
 304 -106 l 1
 -5 813 l 1
 148 813 l 1
 457 -106 l 1
EndSplineSet
EndChar

StartChar: bracketright
Encoding: 93 93 62
Width: 417
Flags: MW
HStem: -187 139<17 161 17 336 17 161> 587 138<17 336 17 161>
VStem: 161 175<-48 587 587 587>
LayerCount: 2
Fore
SplineSet
17 587 m 1
 17 725 l 1
 336 725 l 1
 336 -187 l 1
 17 -187 l 1
 17 -48 l 1
 161 -48 l 1
 161 587 l 1
 17 587 l 1
EndSplineSet
EndChar

StartChar: asciicircum
Encoding: 94 94 63
Width: 729
Flags: MW
HStem: 686 20<317 421 421 421>
VStem: 114 501<311 311>
LayerCount: 2
Fore
SplineSet
421 706 m 1
 615 311 l 1
 477 311 l 1
 367 542 l 1
 251 311 l 1
 114 311 l 1
 317 706 l 1
 421 706 l 1
EndSplineSet
EndChar

StartChar: underscore
Encoding: 95 95 64
Width: 500
Flags: MW
HStem: -125 50<-10 510 -10 510>
VStem: -10 520<-125 -75 -125 -75>
LayerCount: 2
Fore
SplineSet
510 -75 m 1
 510 -125 l 1
 -10 -125 l 1
 -10 -75 l 1
 510 -75 l 1
EndSplineSet
EndChar

StartChar: quoteleft
Encoding: 8216 8216 65
Width: 313
Flags: MW
HStem: 436 271<153 198 7 280> 687 20<153 280 280 280>
VStem: 7 273<436 707>
LayerCount: 2
Fore
SplineSet
198 436 m 1xe0
 7 436 l 1
 153 707 l 1
 280 707 l 1
 198 436 l 1xe0
EndSplineSet
EndChar

StartChar: a
Encoding: 97 97 66
Width: 562
Flags: MW
HStem: -12 21<131.5 223> 0 108<245.5 541 245.5 325> 0 144<498 541 498 541> 230 91<316 316> 350 181<45 300> 414 117<262 271.5>
VStem: 27 187<144.5 156> 45 175<350 358> 316 182<180 230 230 230 321 342>
LayerCount: 2
Fore
SplineSet
498 144 m 1x2980
 541 144 l 1
 541 0 l 1
 325 0 l 1x2980
 321 60 l 1
 306 39 268 -12 178 -12 c 0
 85 -12 27 43 27 143 c 0
 27 169 30 236 97 281 c 0x9a80
 163 326 266 322 316 321 c 1
 316 363 316 367 314 376 c 0
 306 414 274 414 269 414 c 0
 255 414 242 408 235 400 c 0x3580
 221 386 220 366 220 350 c 1
 45 350 l 1
 47 376 48 405 63 434 c 0
 100 509 194 531 266 531 c 0
 334 531 412 511 455 467 c 0
 494 428 498 382 498 345 c 2
 498 144 l 1x2980
316 180 m 1x5a80
 316 230 l 1
 297 231 278 232 260 226 c 0
 223 215 214 185 214 162 c 0
 214 127 232 108 259 108 c 0
 271 108 291 112 304 133 c 0
 314 148 315 166 316 180 c 1x5a80
EndSplineSet
EndChar

StartChar: b
Encoding: 98 98 67
Width: 604
Flags: MW
HStem: -13 143<341.5 347 282.5 397> 0 130<18 347> 0 144<18 60 18 232 18 60> 391 140<339 355.5> 562 144<17 248 17 60>
VStem: 18 216 60 188<465 562 562 562> 391 185<225.5 268.5>
LayerCount: 2
Fore
SplineSet
17 562 m 1x3a
 17 706 l 1
 248 706 l 1
 248 465 l 1x5b
 267 490 297 531 381 531 c 0
 555 531 576 337 576 261 c 0
 576 186 558 93 507 41 c 0
 474 7 423 -13 371 -13 c 0
 312 -13 267 9 236 58 c 1x9d
 232 0 l 1
 18 0 l 1
 18 144 l 1x3c
 60 144 l 1
 60 562 l 1
 17 562 l 1x3a
320 391 m 0
 248 391 247 292 247 263 c 0
 247 229 247 130 318 130 c 0
 376 130 391 195 391 256 c 0
 391 281 391 391 320 391 c 0
EndSplineSet
EndChar

StartChar: c
Encoding: 99 99 68
Width: 521
Flags: MW
HStem: -12 141<253 305 253 338.5> 322 196<363 502 363 502 340 502> 395 123<254 502> 511 20<204.5 240.5>
VStem: 26 188<226 286> 361 141
LayerCount: 2
Fore
SplineSet
340 196 m 1xcc
 511 196 l 1
 510 168 508 137 490 100 c 0
 463 44 402 -12 275 -12 c 0
 156 -12 112 32 97 47 c 0
 40 104 26 186 26 266 c 0
 26 306 26 412 96 481 c 0
 131 515 180 531 229 531 c 0
 252 531 282 527 308 514 c 0
 335 501 346 486 359 467 c 1x9c
 363 518 l 1
 502 518 l 1
 502 322 l 1
 340 322 l 1xcc
 338 339 336 362 318 380 c 0
 307 391 294 395 280 395 c 0xac
 228 395 214 340 214 259 c 0
 214 186 225 129 281 129 c 0
 329 129 336 171 340 196 c 1xcc
EndSplineSet
EndChar

StartChar: d
Encoding: 100 100 69
Width: 604
Flags: MW
HStem: -12 140<250.5 253> 0 128<250.5 583 250.5 371> 0 144<541 583 541 583> 393 138<258 262.5 162.5 320> 562 144<309 354 309 541>
VStem: 28 188<236 284.5 236 342.5> 354 187<464 562 562 562> 368 215
LayerCount: 2
Fore
SplineSet
309 706 m 1x3e
 541 706 l 1
 541 144 l 1x3e
 583 144 l 1
 583 0 l 1
 371 0 l 1
 365 61 l 1x3d
 358 50 350 40 341 30 c 0
 318 7 279 -12 227 -12 c 0
 180 -12 135 5 103 36 c 0x9d
 57 79 28 161 28 264 c 0
 28 421 100 531 225 531 c 0
 300 531 333 491 354 464 c 1
 354 562 l 1
 309 562 l 1
 309 706 l 1x3e
357 268 m 0
 357 313 351 393 289 393 c 0
 227 393 216 317 216 252 c 0
 216 220 217 128 284 128 c 0x5e
 341 128 357 196 357 268 c 0
EndSplineSet
EndChar

StartChar: e
Encoding: 101 101 70
Width: 562
Flags: MW
HStem: -12 125<251.5 311 251.5 319.5> 224 98<223 348 223 533 218 348> 401 129<255 296.5>
VStem: 28 190<204 224 204 271.5> 348 185<178 224 224 328.5>
LayerCount: 2
Fore
SplineSet
348 178 m 1
 526 178 l 1
 519 141 510 92 464 48 c 0
 417 4 352 -12 287 -12 c 0
 149 -12 28 55 28 257 c 0
 28 286 30 323 42 361 c 0
 77 480 174 530 280 530 c 0
 360 530 425 502 462 464 c 1
 538 390 534 270 533 224 c 1
 218 224 l 1
 218 184 219 113 284 113 c 0
 338 113 345 159 348 178 c 1
223 322 m 1
 348 322 l 1
 348 335 348 349 343 363 c 0
 333 391 308 401 285 401 c 0
 225 401 223 343 223 322 c 1
EndSplineSet
EndChar

StartChar: f
Encoding: 102 102 71
Width: 333
Flags: MW
HStem: 0 144<16 58 244 288 16 58> 374 144<16 58 16 59 244 314 244 244> 585 133<216.5 297> 687 20<335 335> 698 20<216.5 250>
VStem: 58 186<144 374 144 374> 59 172<518 532 518 567 518 567>
LayerCount: 2
Fore
SplineSet
59 518 m 1xce
 59 567 l 1
 60 612 62 680 149 707 c 0
 176 716 204 718 229 718 c 0xca
 271 718 303 712 335 707 c 1xd4
 335 577 l 1
 320 581 306 585 288 585 c 0
 271 585 252 581 242 570 c 0
 231 559 231 546 231 518 c 1
 314 518 l 1
 314 374 l 1xe2
 244 374 l 1
 244 144 l 1
 288 144 l 1
 288 0 l 1
 16 0 l 1
 16 144 l 1
 58 144 l 1
 58 374 l 1
 16 374 l 1
 16 518 l 1xcc
 59 518 l 1xce
EndSplineSet
EndChar

StartChar: g
Encoding: 103 103 72
Width: 604
Flags: MW
HStem: -221 127<265.5 293 265.5 335> -221 187<45 335> -5 21<210 262.5> -5 137<210 320> 374 144<544 586 544 544> 387 131<284 586> 508 20<207.5 276>
VStem: 32 188<238.5 271> 360 183<35 35 35 63> 371 214
LayerCount: 2
Fore
SplineSet
45 -34 m 1xe980
 233 -34 l 1x6580
 234 -48 240 -94 291 -94 c 0
 295 -94 337 -94 352 -55 c 0
 360 -34 360 -1 360 63 c 1xa980
 337 35 304 -5 221 -5 c 0
 199 -5 178 -2 157 6 c 0
 61 40 32 143 32 253 c 0
 32 289 32 408 102 476 c 0
 133 507 181 528 234 528 c 0
 318 528 353 479 370 455 c 1xa340
 373 518 l 1
 586 518 l 1
 586 374 l 1xa940
 544 374 l 1
 543 35 l 2
 542 -27 541 -98 485 -154 c 0
 446 -193 380 -221 290 -221 c 0
 201 -221 133 -194 96 -156 c 0xa980
 52 -111 47 -54 45 -34 c 1xe980
291 387 m 0
 277 387 264 384 251 371 c 0
 231 350 220 305 220 256 c 0
 220 221 226 172 250 149 c 0
 261 139 276 132 292 132 c 0x9580
 348 132 360 200 360 258 c 0
 360 346 339 387 291 387 c 0
EndSplineSet
EndChar

StartChar: h
Encoding: 104 104 73
Width: 604
Flags: MW
HStem: 0 144<18 61 248 288 18 61 545 588> 376 155<300 420.5> 511 20<347 420.5> 562 144<18 61 18 248>
VStem: 61 187<144 311 460 562 562 562> 359 186<144 312 312 312>
LayerCount: 2
Fore
SplineSet
18 706 m 1xbc
 248 706 l 1
 248 460 l 1
 269 487 302 531 392 531 c 0
 449 531 487 511 508 490 c 0
 543 454 544 406 545 369 c 1
 545 144 l 1
 588 144 l 1
 588 0 l 1
 359 0 l 1
 359 312 l 1
 358 337 357 376 305 376 c 0
 295 376 277 375 263 360 c 0
 249 344 248 328 248 311 c 2xdc
 248 144 l 1
 288 144 l 1
 288 0 l 1
 18 0 l 1
 18 144 l 1
 61 144 l 1
 61 562 l 1
 18 562 l 1
 18 706 l 1xbc
EndSplineSet
EndChar

StartChar: i
Encoding: 105 105 74
Width: 313
Flags: MW
HStem: 0 144<24 67 253 297 24 67> 374 144<24 67 24 253> 573 134<51 253 51 253>
VStem: 67 186<144 374 374 374>
LayerCount: 2
Fore
SplineSet
24 518 m 1
 253 518 l 1
 253 144 l 1
 297 144 l 1
 297 0 l 1
 24 0 l 1
 24 144 l 1
 67 144 l 1
 67 374 l 1
 24 374 l 1
 24 518 l 1
253 573 m 1
 51 573 l 1
 51 707 l 1
 253 707 l 1
 253 573 l 1
EndSplineSet
EndChar

StartChar: j
Encoding: 106 106 75
Width: 292
Flags: MW
HStem: -224 21<45.5 79> -224 151<-4.5 79> -205 21<-51 -51> 374 144<16 59 16 245> 573 134<43 245 43 245>
VStem: 59 186<-23 374 374 374>
LayerCount: 2
Fore
SplineSet
16 518 m 1x3c
 245 518 l 1
 245 -45 l 1
 243 -98 240 -174 160 -207 c 0
 128 -220 91 -224 67 -224 c 0x9c
 24 -224 -13 -214 -51 -205 c 1x3c
 -51 -64 l 1
 -31 -69 -16 -73 7 -73 c 0
 58 -73 59 -44 59 -23 c 2x5c
 59 374 l 1
 16 374 l 1
 16 518 l 1x3c
245 573 m 1
 43 573 l 1
 43 707 l 1
 245 707 l 1
 245 573 l 1
EndSplineSet
EndChar

StartChar: k
Encoding: 107 107 76
Width: 604
Flags: MW
HStem: 0 144<19 61 19 247 19 61 540 585> 374 143 381 137<302 362 302 576> 562 144<19 247 19 61>
VStem: 61 186<278 562 562 562> 534 42<375 375>
LayerCount: 2
Fore
SplineSet
19 562 m 1xbc
 19 706 l 1
 247 706 l 1
 247 278 l 1
 362 381 l 1
 302 381 l 1
 302 518 l 1
 576 518 l 1xbc
 576 374 l 1
 534 375 l 1
 443 299 l 1xdc
 540 144 l 1
 585 144 l 1
 585 0 l 1
 402 0 l 1
 302 188 l 1
 247 144 l 1
 247 0 l 1
 19 0 l 1
 19 144 l 1
 61 144 l 1
 61 562 l 1
 19 562 l 1xbc
EndSplineSet
EndChar

StartChar: l
Encoding: 108 108 77
Width: 313
Flags: MW
HStem: 0 144<21 63 249 292 21 63> 562 144<21 249 21 63>
VStem: 63 186<144 562 562 562>
LayerCount: 2
Fore
SplineSet
21 562 m 1
 21 706 l 1
 249 706 l 1
 249 144 l 1
 292 144 l 1
 292 0 l 1
 21 0 l 1
 21 144 l 1
 63 144 l 1
 63 562 l 1
 21 562 l 1
EndSplineSet
EndChar

StartChar: m
Encoding: 109 109 78
Width: 854
Flags: MW
HStem: 0 144<24 67 254 288 24 67 522 556 794 837> 373 157<292.5 401> 374 144<25 67 25 240>
VStem: 67 187<144 291 144 374 144 374> 339 183<144 303 144 305 144 305> 607 187<144 315 315 327.5>
CounterMasks: 2 1c 1c
LayerCount: 2
Fore
SplineSet
240 518 m 1xbc
 244 451 l 1
 263 484 306 530 389 530 c 0
 413 530 455 527 490 492 c 0
 507 475 512 462 518 448 c 1
 523 460 529 472 543 486 c 0
 571 514 614 530 662 530 c 0
 709 530 742 515 760 497 c 0
 792 466 793 425 794 392 c 1
 794 144 l 1
 837 144 l 1
 837 0 l 1
 607 0 l 1
 607 315 l 2
 607 340 607 373 570 373 c 0
 560 373 548 371 538 360 c 1
 523 346 523 325 522 303 c 1
 522 144 l 1
 556 144 l 1
 556 0 l 1
 339 0 l 1
 339 305 l 1
 338 335 338 373 298 373 c 0
 287 373 276 368 268 361 c 1
 254 345 254 319 254 291 c 2xdc
 254 144 l 1
 288 144 l 1
 288 0 l 1
 24 0 l 1
 24 144 l 1
 67 144 l 1
 67 374 l 1
 25 374 l 1
 25 518 l 1
 240 518 l 1xbc
EndSplineSet
EndChar

StartChar: n
Encoding: 110 110 79
Width: 604
Flags: MW
HStem: 0 144<26 68 253 288 26 68 544 587> 374 144<26 68 26 231> 512 20<370 426>
VStem: 26 208 68 185<144 284 144 374 144 374> 358 186<144 305 305 313.5>
LayerCount: 2
Fore
SplineSet
544 380 m 1xcc
 544 144 l 1
 587 144 l 1
 587 0 l 1
 358 0 l 1
 358 305 l 2
 358 322 357 334 354 343 c 0
 346 364 326 370 311 370 c 0
 296 370 283 364 273 354 c 0
 255 336 254 313 253 284 c 1
 253 144 l 1
 288 144 l 1
 288 0 l 1
 26 0 l 1
 26 144 l 1
 68 144 l 1
 68 374 l 1xcc
 26 374 l 1
 26 518 l 1
 231 518 l 1
 237 439 l 1xd4
 245 453 252 466 268 481 c 0
 297 510 341 532 399 532 c 0
 453 532 489 512 508 492 c 0xb4
 542 458 543 416 544 380 c 1xcc
EndSplineSet
EndChar

StartChar: o
Encoding: 111 111 80
Width: 583
Flags: MW
HStem: -13 144<278 311.5> 390 139<279.5 326>
VStem: 26 188<246 275 246 285> 363 190<244.5 278>
LayerCount: 2
Fore
SplineSet
26 264 m 0
 26 306 26 434 146 497 c 0
 194 523 244 529 289 529 c 0
 467 529 553 421 553 257 c 0
 553 218 548 179 536 142 c 0
 510 66 467 32 425 13 c 0
 383 -6 333 -13 290 -13 c 0
 266 -13 242 -11 219 -7 c 0
 177 1 136 14 99 51 c 0
 28 121 26 218 26 264 c 0
363 262 m 0
 363 294 363 390 289 390 c 0
 270 390 256 384 244 373 c 0
 214 342 214 290 214 260 c 0
 214 232 215 199 229 171 c 0
 238 153 255 131 289 131 c 0
 363 131 363 227 363 262 c 0
EndSplineSet
EndChar

StartChar: p
Encoding: 112 112 81
Width: 604
Flags: MW
HStem: -205 143<18 59 246 292 18 59> -13 141<305 477> 374 144<18 59 18 235> 389 129<18 329.5> 510 20<332.5 388.5>
VStem: 59 187<-62 62 -62 374> 385 192<235 269.5>
LayerCount: 2
Fore
SplineSet
235 518 m 1xe6
 237 461 l 1
 258 489 289 530 376 530 c 0
 401 530 457 529 508 476 c 0xce
 576 406 577 298 577 258 c 0
 577 212 577 -13 377 -13 c 0
 358 -13 296 -13 257 44 c 0
 253 50 250 56 246 62 c 1
 246 -62 l 1
 292 -62 l 1
 292 -205 l 1
 18 -205 l 1
 18 -62 l 1
 59 -62 l 1
 59 374 l 1
 18 374 l 1
 18 518 l 1
 235 518 l 1xe6
314 389 m 0xd6
 302 389 287 385 275 373 c 0
 244 344 244 287 244 271 c 0
 244 180 263 156 275 144 c 0
 283 137 296 128 314 128 c 0
 352 128 385 166 385 256 c 0
 385 283 384 312 375 338 c 0
 365 367 345 389 314 389 c 0xd6
EndSplineSet
EndChar

StartChar: q
Encoding: 113 113 82
Width: 604
Flags: MW
HStem: -204 144<313 359 544 586 313 359> -12 21<212 269.5> -12 142<212 305> 374 144<544 586 544 544> 388 130<278.5 586> 388 143<214 316>
VStem: 27 190<262 280 262 323> 359 185<-60 50 50 50> 374 211
LayerCount: 2
Fore
SplineSet
359 -60 m 1xd3
 359 50 l 1xcb
 342 28 311 -12 228 -12 c 0
 196 -12 167 -6 143 5 c 0
 102 24 75 57 58 93 c 0
 35 142 27 207 27 263 c 0
 27 383 66 450 100 483 c 0
 145 526 196 531 232 531 c 0
 268 531 328 526 363 474 c 0
 366 468 370 462 373 456 c 1xc680
 376 518 l 1
 586 518 l 1
 586 374 l 1xd280
 544 374 l 1
 544 -60 l 1
 586 -60 l 1
 586 -204 l 1
 313 -204 l 1
 313 -60 l 1
 359 -60 l 1xd3
287 388 m 0
 270 388 256 381 246 371 c 0
 217 342 217 289 217 271 c 0
 217 253 218 211 228 183 c 0
 243 142 272 130 290 130 c 0xab
 320 130 357 156 357 246 c 0
 357 316 345 388 287 388 c 0
EndSplineSet
EndChar

StartChar: r
Encoding: 114 114 83
Width: 417
Flags: MW
HStem: 0 144<24 67 247 308 24 67> 374 144<24 67 24 225> 504 20<307.5 367.5>
VStem: 24 204 67 182<228 252 228 374 228 374>
LayerCount: 2
Fore
SplineSet
225 518 m 1xd8
 231 428 l 1
 239 456 258 524 357 524 c 0xb0
 378 524 390 522 406 518 c 1
 406 352 l 1
 392 355 380 357 362 357 c 0
 324 357 293 345 274 327 c 0
 250 303 249 276 249 228 c 1
 247 144 l 1
 308 144 l 1
 308 0 l 1
 24 0 l 1
 24 144 l 1
 67 144 l 1
 67 374 l 1xc8
 24 374 l 1
 24 518 l 1
 225 518 l 1xd8
EndSplineSet
EndChar

StartChar: s
Encoding: 115 115 84
Width: 500
Flags: MW
HStem: -13 121<258 259.5 242 345.5> 0 190<22 158 22 163 22 158> 332 183<327 465 327 465 324 465> 409 122<132.5 282.5>
VStem: 17 184<366 382 366 410.5> 22 142 293 184<137.5 158.5> 325 139
LayerCount: 2
Fore
SplineSet
22 190 m 1x55
 158 190 l 1x59
 161 130 206 107 242 108 c 0
 277 108 293 128 293 147 c 0
 293 170 273 177 261 181 c 0x9a
 236 189 213 196 188 203 c 0
 127 220 17 250 17 373 c 0
 17 448 69 531 196 531 c 0
 279 531 307 495 324 475 c 1x99
 327 515 l 1
 465 515 l 1
 465 332 l 1
 324 332 l 1x65
 320 357 312 409 253 409 c 0
 225 409 201 393 201 371 c 0
 201 361 205 354 210 349 c 0x59
 218 341 227 337 283 322 c 0
 406 287 477 264 477 146 c 0
 477 120 474 72 438 35 c 0
 429 27 391 -13 300 -13 c 0
 216 -13 181 23 166 39 c 1x96
 163 0 l 1
 22 0 l 1
 22 190 l 1x55
EndSplineSet
EndChar

StartChar: t
Encoding: 116 116 85
Width: 333
Flags: MW
HStem: -10 21<171 219.5> -10 140<171 287.5> 374 144<2 47 2 61 231 314>
VStem: 47 184<188 374 188 374 188 374>
LayerCount: 2
Fore
SplineSet
61 641 m 1xb0
 231 680 l 1
 231 518 l 1
 314 518 l 1
 314 374 l 1
 231 374 l 1
 231 188 l 1
 232 169 234 130 282 130 c 0
 293 130 301 132 309 135 c 1x70
 309 3 l 1
 275 -3 239 -10 200 -10 c 0
 142 -10 98 6 76 28 c 0
 48 56 47 93 47 122 c 2
 47 374 l 1
 2 374 l 1
 2 518 l 1
 61 518 l 1
 61 641 l 1xb0
EndSplineSet
EndChar

StartChar: u
Encoding: 117 117 86
Width: 583
Flags: MW
HStem: -13 21<173.5 218.5> 0 143<523 523 523 566> 0 146<264.5 566 264.5 354> 374 143
VStem: 53 186<204.5 215 215 375 375 375> 337 186<225 375 375 375> 354 212<0 58 58 58>
LayerCount: 2
Fore
SplineSet
11 518 m 1x5c
 239 518 l 1
 239 215 l 2
 239 194 241 146 288 146 c 0
 336 146 337 198 337 225 c 2x3c
 337 375 l 1
 299 374 l 1
 299 518 l 1
 523 518 l 1
 523 143 l 1x5c
 566 144 l 1
 566 0 l 1
 354 0 l 1
 354 58 l 1x5a
 338 37 322 18 284 2 c 0
 259 -8 232 -13 205 -13 c 0
 142 -13 108 14 95 27 c 0x9a
 56 65 54 115 53 163 c 1
 53 375 l 1
 11 374 l 1
 11 518 l 1x5c
EndSplineSet
EndChar

StartChar: v
Encoding: 118 118 87
Width: 542
Flags: MW
HStem: 0 21<167 371 167 167> 0 151<282 282 282 371 167 282> 374 144<2 44 2 265 496 538 496 496> 379 139<224 265 224 224 2 300 300 340>
VStem: 2 263<379 518 379 518 379 518> 300 238<379 518 374 518>
LayerCount: 2
Fore
SplineSet
2 518 m 1x9c
 265 518 l 1
 265 379 l 1
 224 379 l 1
 282 151 l 1
 340 379 l 1
 300 379 l 1
 300 518 l 1
 538 518 l 1x5c
 538 374 l 1
 496 374 l 1
 371 0 l 1
 167 0 l 1
 44 374 l 1
 2 374 l 1xac
 2 518 l 1x9c
EndSplineSet
EndChar

StartChar: w
Encoding: 119 119 88
Width: 854
Flags: MW
HStem: 0 21<145 340 145 145 515 711 515 515> 0 175<255 255 255 340 145 255> 374 144<10 254 10 51 215 215 215 254 620 659 804 804 804 845>
VStem: 10 244<374 518 374 518> 620 225<374 518 374 518>
LayerCount: 2
Fore
SplineSet
10 374 m 1xb8
 10 518 l 1
 254 518 l 1
 254 374 l 1
 215 374 l 1
 255 175 l 1
 344 518 l 1
 534 518 l 1
 622 175 l 1x78
 659 374 l 1
 620 374 l 1
 620 518 l 1
 845 518 l 1
 845 374 l 1
 804 374 l 1
 711 0 l 1
 515 0 l 1
 430 348 l 1
 340 0 l 1
 145 0 l 1
 51 374 l 1
 10 374 l 1xb8
EndSplineSet
EndChar

StartChar: x
Encoding: 120 120 89
Width: 583
Flags: MW
HStem: 0 134<208 252 208 252 300 326 208 568 208 300> 0 144<14 41 14 252 14 41 529 568> 374 143 383 135<249 276 249 249 26 320 320 364>
VStem: 14 238<0 134 0 144 0 144> 26 31<375 375 375 518> 300 268<0 134 134 134> 525 31<375 375>
LayerCount: 2
Fore
SplineSet
320 518 m 1x95
 556 518 l 1x95
 556 374 l 1
 525 375 l 1
 432 260 l 1
 529 144 l 1x65
 568 144 l 1x56
 568 0 l 1
 300 0 l 1
 300 134 l 1
 326 134 l 1
 265 208 l 1
 208 134 l 1
 252 134 l 1
 252 0 l 1
 14 0 l 1x9a
 14 144 l 1
 41 144 l 1x59
 148 266 l 1
 57 375 l 1
 26 374 l 1xa5
 26 518 l 1
 276 518 l 1
 276 383 l 1
 249 383 l 1
 309 310 l 1
 364 383 l 1
 320 383 l 1
 320 518 l 1x95
EndSplineSet
EndChar

StartChar: y
Encoding: 121 121 90
Width: 562
Flags: MW
HStem: -219 132<112 115.5 87.5 206.5> -205 21<23 23> 374 144<0 44 0 260 218 260 218 218 0 311 311 355 517 517 517 561>
VStem: 0 260<374 518 374 518> 311 250<374 518 374 518>
LayerCount: 2
Fore
SplineSet
0 518 m 1x78
 260 518 l 1
 260 374 l 1
 218 374 l 1
 289 150 l 1
 355 374 l 1
 311 374 l 1
 311 518 l 1
 561 518 l 1
 561 374 l 1
 517 374 l 1
 360 -53 l 1
 318 -150 276 -219 137 -219 c 0xb8
 87 -219 50 -211 23 -205 c 1x78
 23 -71 l 1
 42 -77 70 -87 105 -87 c 0
 126 -87 163 -84 182 -41 c 0
 186 -33 188 -24 191 -16 c 1xb8
 44 374 l 1
 0 374 l 1
 0 518 l 1x78
EndSplineSet
EndChar

StartChar: z
Encoding: 122 122 91
Width: 521
Flags: MW
HStem: 0 121<225 351 225 493> 397 121<174 291 174 174>
VStem: 32 142<332 397 332 518 332 518> 351 142<121 195 0 195>
LayerCount: 2
Fore
SplineSet
32 518 m 1
 492 518 l 1
 492 376 l 1
 225 121 l 1
 351 121 l 1
 351 195 l 1
 493 195 l 1
 493 0 l 1
 24 0 l 1
 24 139 l 1
 291 397 l 1
 174 397 l 1
 174 332 l 1
 32 332 l 1
 32 518 l 1
EndSplineSet
EndChar

StartChar: braceleft
Encoding: 123 123 92
Width: 354
Flags: MW
HStem: -187 112<309 354 309 354> 217 104<10 16 10 24.5> 612 113<309.5 354>
VStem: 10 124<266 272 266 321 266 321> 100 157<2 36 36 70 70 73 -7.5 89 477 507>
LayerCount: 2
Fore
SplineSet
354 725 m 1xe8
 354 612 l 1
 265 612 258 588 257 507 c 1
 257 473 l 1
 256 398 256 358 233 322 c 0xe8
 201 274 155 273 134 272 c 1
 134 266 l 1xf0
 153 265 201 264 233 216 c 0
 256 180 256 140 257 73 c 1
 257 36 l 2
 257 -51 264 -75 354 -75 c 1
 354 -187 l 1
 246 -187 196 -186 154 -156 c 0
 101 -118 101 -60 100 2 c 1
 100 70 l 2
 100 108 100 156 80 184 c 0xe8
 64 207 39 217 10 217 c 1
 10 321 l 1xf0
 22 321 34 321 52 330 c 0
 97 353 100 399 100 477 c 2
 100 543 l 1
 101 582 102 609 110 634 c 0
 130 692 179 710 202 716 c 0
 233 724 256 725 354 725 c 1xe8
EndSplineSet
EndChar

StartChar: bar
Encoding: 124 124 93
Width: 229
Flags: MW
HStem: -250 1000<51 178 51 178>
VStem: 51 127<-250 750 -250 750>
LayerCount: 2
Fore
SplineSet
178 750 m 1
 178 -250 l 1
 51 -250 l 1
 51 750 l 1
 178 750 l 1
EndSplineSet
EndChar

StartChar: braceright
Encoding: 125 125 94
Width: 354
Flags: MW
HStem: -187 112<11 55.5 11 70.5> 217 104<348 354> 613 112<11 55.5>
VStem: 108 157<31 61 -6 73 -6 73 461 468 468 508 508 508> 230 124<266 272 272 272>
LayerCount: 2
Fore
SplineSet
11 -187 m 1xf0
 11 -75 l 1
 100 -75 107 -51 108 31 c 1
 108 73 l 1
 109 138 109 179 132 216 c 0xf0
 163 264 210 265 230 266 c 1
 230 272 l 1xe8
 210 273 163 274 132 322 c 0
 109 358 109 398 108 461 c 1
 108 508 l 1
 107 589 100 613 11 613 c 1
 11 725 l 1
 119 725 169 724 211 694 c 0
 264 656 264 598 265 536 c 1
 265 468 l 2
 265 430 265 382 285 354 c 1xf0
 300 331 326 321 354 321 c 1
 354 217 l 1xe8
 342 217 330 217 313 208 c 0
 268 185 265 139 265 61 c 2
 265 -6 l 1
 263 -63 262 -110 223 -146 c 0
 179 -186 130 -187 11 -187 c 1xf0
EndSplineSet
EndChar

StartChar: asciitilde
Encoding: 126 126 95
Width: 729
Flags: MW
HStem: 199 127<461 486 461 501.5> 268 127<241 273.5>
VStem: 103 523<283 301>
LayerCount: 2
Fore
SplineSet
574 387 m 1xe0
 626 283 l 1
 593 245 533 199 470 199 c 0
 431 199 398 215 366 230 c 1xa0
 335 246 l 1
 303 261 285 268 262 268 c 0
 220 268 204 250 158 198 c 1
 103 301 l 1
 126 333 171 395 259 395 c 0
 296 395 326 382 362 365 c 2x60
 398 348 l 2
 425 336 449 326 473 326 c 0
 499 326 531 337 574 387 c 1xe0
EndSplineSet
EndChar

StartChar: exclamdown
Encoding: 161 161 96
Width: 354
Flags: MW
HStem: 0 21<48 258 48 48> 511 195<56 251 56 251>
VStem: 56 195<511 706 511 706>
LayerCount: 2
Fore
SplineSet
258 0 m 1
 48 0 l 1
 76 454 l 1
 232 454 l 1
 258 0 l 1
56 706 m 1
 251 706 l 1
 251 511 l 1
 56 511 l 1
 56 706 l 1
EndSplineSet
EndChar

StartChar: cent
Encoding: 162 162 97
Width: 542
Flags: MW
HStem: -110 239<258 309.5 258 335 208 309.5> -8 21<335 335> -5 21<208 208> 322 196<369 508 369 508 346 508> 395 123<260 508> 395 233<260 300.5> 509 20<208 208>
VStem: 32 188<227 285.5> 208 127<-110 -8 -110 -5 -110 -5 529 628> 345 172<196 196> 367 141
LayerCount: 2
Fore
SplineSet
345 196 m 1xb9e0
 517 196 l 1x90c0
 515 158 512 101 459 49 c 0x50c0
 412 2 361 -4 335 -8 c 1x50a0
 335 -110 l 1
 208 -110 l 1x90a0
 208 -5 l 1x30a0
 184 0 141 9 103 48 c 1
 46 104 32 187 32 267 c 0
 32 304 32 404 95 473 c 0x2320
 137 519 187 526 208 529 c 1x22a0
 208 628 l 1
 335 628 l 1x24a0
 335 503 l 1
 350 495 357 487 365 467 c 1
 369 518 l 1
 508 518 l 1
 508 322 l 1
 346 322 l 1x30a0
 344 338 343 355 332 371 c 0x28a0
 328 377 315 395 286 395 c 0
 234 395 220 340 220 259 c 0
 220 188 230 129 286 129 c 0
 333 129 340 169 345 196 c 1xb9e0
EndSplineSet
EndChar

StartChar: sterling
Encoding: 163 163 98
Width: 646
Flags: MW
HStem: 0 143<281 465 281 615> 304 145 569 137<451.5 494.5>
VStem: 51 70<305 305 305 450> 305 94<305 305> 465 150<143 286 0 286>
LayerCount: 2
Fore
SplineSet
410 706 m 2
 554 706 l 1
 554 568 l 1
 532 568 506 569 483 569 c 0
 420 569 383 563 358 537 c 0
 336 515 331 487 326 450 c 1
 399 450 l 1
 399 304 l 1
 305 305 l 1
 281 143 l 1
 465 143 l 1
 465 286 l 1
 615 286 l 1
 615 0 l 1
 28 0 l 1
 28 144 l 1
 96 144 l 1
 121 305 l 1
 51 304 l 1
 51 450 l 1
 143 450 l 1
 154 523 161 566 183 607 c 0
 238 705 340 706 410 706 c 2
EndSplineSet
EndChar

StartChar: fraction
Encoding: 8260 8260 99
Width: 125
Flags: MW
HStem: 0 21<-123 -123 -123 -25> 686 20<144 242 242 242>
VStem: -123 365
LayerCount: 2
Fore
SplineSet
-123 0 m 1
 144 706 l 1
 242 706 l 1
 -25 0 l 1
 -123 0 l 1
EndSplineSet
EndChar

StartChar: yen
Encoding: 165 165 100
Width: 625
Flags: MW
HStem: 0 143<221 221 155 221> 196 91<29 195 29 221 29 195 431 596> 352 91<29 113 29 161 29 113 511 596> 562 143
VStem: 0 50<563 563 563 706> 221 186<143 196 143 196> 241 53<563 563> 351 50<563 563 563 706> 572 48<563 563>
LayerCount: 2
Fore
SplineSet
241 563 m 1xfe80
 320 383 l 1
 401 563 l 1
 351 562 l 1
 351 706 l 1
 620 706 l 1
 620 562 l 1
 572 563 l 1
 511 443 l 1
 596 443 l 1
 596 352 l 1xfb80
 464 352 l 1
 431 287 l 1
 596 287 l 1
 596 196 l 1
 407 196 l 1
 407 143 l 1
 475 144 l 1
 475 0 l 1
 155 0 l 1
 155 144 l 1
 221 143 l 1
 221 196 l 1xfc80
 29 196 l 1
 29 287 l 1
 195 287 l 1
 161 352 l 1
 29 352 l 1
 29 443 l 1
 113 443 l 1
 50 563 l 1
 0 562 l 1
 0 706 l 1
 294 706 l 1
 294 562 l 1
 241 563 l 1xfe80
EndSplineSet
EndChar

StartChar: florin
Encoding: 402 402 101
Width: 396
Flags: MW
HStem: -200 133<12 16 -19 49.5> 345 144<50 86 32 102 275 342> 585 133<315 318.5 281 352> 687 20<404 404>
VStem: -73 477
LayerCount: 2
Fore
SplineSet
102 489 m 1xd8
 111 567 l 1
 117 606 124 648 166 682 c 0
 208 716 266 718 296 718 c 0xe8
 341 718 371 713 404 707 c 1xd8
 389 577 l 1
 375 581 361 585 343 585 c 0
 287 585 283 554 280 535 c 2xe8
 275 489 l 1
 358 489 l 1
 342 345 l 1
 272 345 l 1
 228 -41 l 1
 222 -75 216 -116 184 -149 c 0
 140 -196 68 -200 31 -200 c 0
 -7 -200 -37 -195 -73 -189 c 1
 -58 -59 l 1
 -40 -64 -30 -67 -8 -67 c 0
 40 -67 43 -36 47 -2 c 2
 86 345 l 1
 32 345 l 1
 50 489 l 1
 102 489 l 1xd8
EndSplineSet
EndChar

StartChar: section
Encoding: 167 167 102
Width: 542
Flags: MW
HStem: -221 128<262 270.5 262 303> -221 182<47 303> 532 185<250.5 491 250.5 330> 588 129<258 287 250.5 290>
VStem: 31 164<210.5 290.5> 48 177<531.5 558.5 531.5 563.5> 315 175<-56 -44.5> 340 168<201.5 223>
LayerCount: 2
Fore
SplineSet
47 -39 m 1xe5
 211 -39 l 1x69
 212 -47 213 -55 217 -65 c 0
 230 -93 258 -93 266 -93 c 0
 275 -93 282 -92 288 -90 c 0
 312 -82 315 -60 315 -52 c 0
 315 -37 307 -27 299 -19 c 0
 280 0 169 69 145 86 c 0
 105 113 31 165 31 256 c 0
 31 278 36 300 45 320 c 0xaa
 63 362 91 380 120 400 c 1
 96 420 48 459 48 538 c 0
 48 589 73 655 144 691 c 0
 188 714 233 717 268 717 c 0
 306 717 385 714 442 656 c 1
 487 612 490 562 491 532 c 1
 330 532 l 1xa5
 324 566 307 588 273 588 c 0
 243 588 225 570 225 547 c 0
 225 516 257 495 311 463 c 1
 427 390 508 340 508 240 c 0x95
 508 162 456 121 420 94 c 1
 451 65 490 28 490 -39 c 0
 490 -88 469 -132 440 -161 c 0
 403 -197 342 -221 264 -221 c 0
 202 -221 140 -204 97 -161 c 0xa6
 54 -118 49 -68 47 -39 c 1xe5
216 330 m 1
 206 316 195 301 195 280 c 0
 195 263 202 253 213 242 c 0
 228 228 260 202 316 165 c 1
 328 178 340 191 340 212 c 0
 340 234 325 250 317 258 c 0
 294 279 244 312 216 330 c 1
EndSplineSet
EndChar

StartChar: currency
Encoding: 164 164 103
Width: 667
Flags: MW
HStem: 50 124<295 372.5> 505 124<294 374 294 374.5>
VStem: 45 125<299 380.5> 497 125<299.5 379.5 299.5 392>
LayerCount: 2
Fore
SplineSet
661 571 m 1
 579 491 l 1
 594 465 622 419 622 340 c 0
 622 259 595 214 579 187 c 1
 660 105 l 1
 564 10 l 1
 484 92 l 1
 459 78 411 50 334 50 c 0
 254 50 206 79 182 93 c 1
 101 12 l 1
 6 107 l 1
 88 188 l 1
 72 214 45 258 45 340 c 0
 45 421 71 464 87 491 c 1
 8 571 l 1
 102 666 l 1
 182 586 l 1
 206 600 254 629 334 629 c 0
 414 629 459 601 485 586 c 1
 565 666 l 1
 661 571 l 1
335 174 m 0
 424 174 497 243 497 341 c 0
 497 443 415 505 334 505 c 0
 254 505 170 446 170 339 c 0
 170 234 255 174 335 174 c 0
EndSplineSet
EndChar

StartChar: quotesingle
Encoding: 39 39 104
Width: 208
Flags: MW
HStem: 408 341<90.5 121 90 126>
VStem: 33 143<683.5 704.5>
LayerCount: 2
Fore
SplineSet
121 408 m 1
 90 408 l 1
 38 644 l 2
 35 658 33 674 33 682 c 0
 33 727 73 749 108 749 c 0
 144 749 176 727 176 687 c 0
 176 680 174 663 170 644 c 2
 121 408 l 1
EndSplineSet
EndChar

StartChar: quotedblleft
Encoding: 8220 8220 105
Width: 542
Flags: MW
HStem: 436 271<114 159 251 305 114 114 397 442 397 397>
VStem: 32 492<436 707>
LayerCount: 2
Fore
SplineSet
159 707 m 1
 305 436 l 1
 114 436 l 1
 32 707 l 1
 159 707 l 1
397 436 m 1
 251 707 l 1
 442 707 l 1
 524 436 l 1
 397 436 l 1
EndSplineSet
EndChar

StartChar: guillemotleft
Encoding: 171 171 106
Width: 458
Flags: MW
HStem: 112 333<113 242 113 242 113 301 301 425>
VStem: 27 398<112 278>
LayerCount: 2
Fore
SplineSet
27 278 m 1
 113 445 l 1
 242 445 l 1
 177 278 l 1
 242 112 l 1
 113 112 l 1
 27 278 l 1
215 278 m 1
 301 445 l 1
 425 445 l 1
 360 278 l 1
 425 112 l 1
 301 112 l 1
 215 278 l 1
EndSplineSet
EndChar

StartChar: guilsinglleft
Encoding: 8249 8249 107
Width: 292
Flags: MW
HStem: 112 333<123 248 123 248>
VStem: 37 211<112 278>
LayerCount: 2
Fore
SplineSet
37 278 m 1
 123 445 l 1
 248 445 l 1
 182 278 l 1
 248 112 l 1
 123 112 l 1
 37 278 l 1
EndSplineSet
EndChar

StartChar: guilsinglright
Encoding: 8250 8250 108
Width: 292
Flags: MW
HStem: 112 333<41 165 41 165>
VStem: 41 210<112 278 278 445>
LayerCount: 2
Fore
SplineSet
41 445 m 1
 165 445 l 1
 251 278 l 1
 165 112 l 1
 41 112 l 1
 106 278 l 1
 41 445 l 1
EndSplineSet
EndChar

StartChar: fi
Encoding: 64257 64257 109
Width: 625
Flags: MW
HStem: 0 144<16 58 244 288 16 58 336 379 565 609> 383 135<244 379 244 244> 573 134<363 565 308 363> 586 121<250.5 308> 698 20<194 238>
VStem: 58 186<144 374 374 374 144 566 144 566> 379 186<144 383 383 383>
LayerCount: 2
Fore
SplineSet
58 518 m 1xe6
 58 566 l 1
 59 603 61 647 97 680 c 0
 122 703 168 718 220 718 c 0xce
 256 718 287 711 308 707 c 1xe6
 308 582 l 1
 300 584 290 586 279 586 c 0xd6
 222 586 221 536 221 518 c 1
 565 518 l 1
 565 144 l 1
 609 144 l 1
 609 0 l 1
 336 0 l 1
 336 144 l 1
 379 144 l 1
 379 383 l 1
 244 383 l 1
 244 144 l 1
 288 144 l 1
 288 0 l 1
 16 0 l 1
 16 144 l 1
 58 144 l 1
 58 374 l 1
 16 374 l 1
 16 518 l 1
 58 518 l 1xe6
565 573 m 1xe6
 363 573 l 1
 363 707 l 1
 565 707 l 1
 565 573 l 1xe6
EndSplineSet
EndChar

StartChar: fl
Encoding: 64258 64258 110
Width: 625
Flags: MW
HStem: 0 144<16 58 244 288 16 58 333 376 562 605> 374 144<16 58 16 58 244 314 244 244> 562 144<349 562 349 376> 584 122<279.5 562> 584 134<195.5 291> 690 20<316 316>
VStem: 58 186<144 374 144 374 144 567> 376 186<144 562 562 562>
LayerCount: 2
Fore
SplineSet
58 518 m 1xe3
 58 567 l 1
 59 602 61 647 97 680 c 0
 120 701 163 718 228 718 c 0xcb
 272 718 299 713 316 710 c 1xc7
 316 582 l 1
 312 582 293 584 289 584 c 0
 270 584 251 580 241 569 c 0xd3
 231 558 231 546 231 518 c 1
 314 518 l 1
 314 374 l 1
 244 374 l 1
 244 144 l 1
 288 144 l 1
 288 0 l 1
 16 0 l 1
 16 144 l 1
 58 144 l 1
 58 374 l 1
 16 374 l 1
 16 518 l 1
 58 518 l 1xe3
349 562 m 1xe3
 349 706 l 1
 562 706 l 1
 562 144 l 1
 605 144 l 1
 605 0 l 1
 333 0 l 1
 333 144 l 1
 376 144 l 1
 376 562 l 1
 349 562 l 1xe3
EndSplineSet
EndChar

StartChar: endash
Encoding: 8211 8211 111
Width: 625
Flags: MW
HStem: 196 162<21 605 21 605>
VStem: 21 584<196 358 196 358>
LayerCount: 2
Fore
SplineSet
605 196 m 1
 21 196 l 1
 21 358 l 1
 605 358 l 1
 605 196 l 1
EndSplineSet
EndChar

StartChar: dagger
Encoding: 8224 8224 112
Width: 521
Flags: MW
HStem: -203 21<168 354 168 168> 389 139<19 170 19 19> 686 20<168 354 354 354>
VStem: 169 184<527 527>
LayerCount: 2
Fore
SplineSet
169 527 m 1
 168 706 l 1
 354 706 l 1
 353 527 l 1
 503 528 l 1
 503 389 l 1
 352 389 l 1
 354 -203 l 1
 168 -203 l 1
 170 389 l 1
 19 389 l 1
 19 528 l 1
 169 527 l 1
EndSplineSet
EndChar

StartChar: daggerdbl
Encoding: 8225 8225 113
Width: 542
Flags: MW
HStem: -203 21<181 361 181 181> 84 138 389 139<29 184 29 29> 686 20<178 364 364 364>
VStem: 178 186<527 706 527 706> 181 180<-203 85 -203 85> 184 174<223 389 223 389>
LayerCount: 2
Fore
SplineSet
364 706 m 1xf8
 364 527 l 1xf8
 513 528 l 1
 513 389 l 1
 358 389 l 1
 358 223 l 1xf2
 513 223 l 1
 513 84 l 1
 361 85 l 1
 361 -203 l 1
 181 -203 l 1
 181 85 l 1xf4
 29 84 l 1
 29 223 l 1
 184 223 l 1
 184 389 l 1xf2
 29 389 l 1
 29 528 l 1
 178 527 l 1
 178 706 l 1
 364 706 l 1xf8
EndSplineSet
EndChar

StartChar: periodcentered
Encoding: 183 183 114
Width: 313
Flags: MW
HStem: 181 195<59 254 59 254>
VStem: 59 195<181 376>
LayerCount: 2
Fore
SplineSet
254 181 m 1
 59 181 l 1
 59 376 l 1
 254 376 l 1
 254 181 l 1
EndSplineSet
EndChar

StartChar: paragraph
Encoding: 182 182 115
Width: 667
Flags: MW
HStem: 628 78<320 438 320 320 522 558 522 522>
VStem: 236 84<-167 292 292 292> 438 84<-167 628 -167 628>
LayerCount: 2
Fore
SplineSet
308 706 m 1
 558 706 l 1
 558 628 l 1
 522 628 l 1
 522 -167 l 1
 438 -167 l 1
 438 628 l 1
 320 628 l 1
 320 -167 l 1
 236 -167 l 1
 236 292 l 1
 213 299 184 306 153 330 c 0
 105 368 82 429 82 491 c 0
 82 526 87 597 148 652 c 1
 204 704 267 705 308 706 c 1
EndSplineSet
EndChar

StartChar: bullet
Encoding: 8226 8226 116
Width: 333
Flags: MW
HStem: 197 311<124 208.5 124 215.5>
VStem: 12 310<352 393.5>
LayerCount: 2
Fore
SplineSet
169 508 m 0
 248 508 322 450 322 352 c 1
 321 266 261 197 170 197 c 0
 71 197 12 277 12 352 c 0
 12 435 79 508 169 508 c 0
EndSplineSet
EndChar

StartChar: quotesinglbase
Encoding: 8218 8218 117
Width: 313
Flags: MW
HStem: -122 271<94 139 12 285>
VStem: 12 273<-122 149>
LayerCount: 2
Fore
SplineSet
94 149 m 1
 285 149 l 1
 139 -122 l 1
 12 -122 l 1
 94 149 l 1
EndSplineSet
EndChar

StartChar: quotedblbase
Encoding: 8222 8222 118
Width: 542
Flags: MW
HStem: -122 271<94 139 12 285 231 231 231 285 377 422>
VStem: 12 492<-122 149>
LayerCount: 2
Fore
SplineSet
94 149 m 1
 285 149 l 1
 139 -122 l 1
 12 -122 l 1
 94 149 l 1
422 -122 m 1
 231 -122 l 1
 377 149 l 1
 504 149 l 1
 422 -122 l 1
EndSplineSet
EndChar

StartChar: quotedblright
Encoding: 8221 8221 119
Width: 542
Flags: MW
HStem: 436 271<97 142 15 288 234 234 234 288 380 425>
VStem: 15 491<436 707>
LayerCount: 2
Fore
SplineSet
97 707 m 1
 288 707 l 1
 142 436 l 1
 15 436 l 1
 97 707 l 1
425 436 m 1
 234 436 l 1
 380 707 l 1
 506 707 l 1
 425 436 l 1
EndSplineSet
EndChar

StartChar: guillemotright
Encoding: 187 187 120
Width: 458
Flags: MW
HStem: 112 333<30 155 30 155 213 342 30 213>
VStem: 30 399<112 278 278 445>
LayerCount: 2
Fore
SplineSet
213 445 m 1
 342 445 l 1
 429 278 l 1
 342 112 l 1
 213 112 l 1
 279 278 l 1
 213 445 l 1
30 445 m 1
 155 445 l 1
 240 278 l 1
 155 112 l 1
 30 112 l 1
 95 278 l 1
 30 445 l 1
EndSplineSet
EndChar

StartChar: ellipsis
Encoding: 8230 8230 121
Width: 1000
Flags: MW
HStem: 0 195<67 262 67 262 67 400 400 595 733 928>
VStem: 67 195<0 195> 400 195<0 195> 733 195<0 195>
LayerCount: 2
Fore
SplineSet
262 0 m 1
 67 0 l 1
 67 195 l 1
 262 195 l 1
 262 0 l 1
595 0 m 1
 400 0 l 1
 400 195 l 1
 595 195 l 1
 595 0 l 1
928 0 m 1
 733 0 l 1
 733 195 l 1
 928 195 l 1
 928 0 l 1
EndSplineSet
EndChar

StartChar: perthousand
Encoding: 8240 8240 122
Width: 1375
Flags: MW
HStem: -8 95<719 769.5 1135.5 1186.5> 0 21<294 294 294 392> 257 95<183 236 178.5 260> 355 94<718.5 783 1134.5 1199.5> 620 94<176.5 241.5> 686 20<561 659 659 659>
VStem: 26 117<452 504 451.5 560> 274 117<456 510.5> 568 117<191 240 191 295> 815 117<195 245.5> 984 117<191 240 191 295> 1232 117<195 245.5>
LayerCount: 2
Fore
SplineSet
26 484 m 0xbbf0
 26 636 109 714 208 714 c 0
 321 714 391 625 391 486 c 0
 391 344 314 257 206 257 c 0
 160 257 116 275 84 308 c 1
 41 355 26 420 26 484 c 0xbbf0
210 620 m 0x2b
 143 620 143 526 143 482 c 0
 143 421 149 352 208 352 c 0
 264 352 274 419 274 493 c 0
 274 528 273 620 210 620 c 0x2b
568 219 m 0x90c0
 568 371 651 449 750 449 c 0
 862 449 932 360 932 221 c 0
 932 169 921 92 868 40 c 0
 836 8 792 -8 747 -8 c 0
 654 -8 568 63 568 219 c 0x90c0
752 355 m 0x90c0
 685 355 685 261 685 219 c 0
 685 163 689 87 749 87 c 0
 805 87 815 154 815 228 c 0
 815 263 814 355 752 355 c 0x90c0
984 219 m 0x9030
 984 371 1067 449 1166 449 c 0
 1279 449 1349 360 1349 221 c 0
 1349 169 1338 92 1285 40 c 0
 1253 8 1209 -8 1164 -8 c 0
 1070 -8 984 63 984 219 c 0x9030
1168 355 m 0x9030
 1101 355 1101 261 1101 219 c 0
 1101 163 1105 87 1166 87 c 0
 1222 87 1232 154 1232 228 c 0
 1232 263 1231 355 1168 355 c 0x9030
294 0 m 1x45
 561 706 l 1
 659 706 l 1
 392 0 l 1
 294 0 l 1x45
EndSplineSet
EndChar

StartChar: questiondown
Encoding: 191 191 123
Width: 500
Flags: MW
HStem: -12 134<240 285 240 288.5> 511 195<175 370 175 370>
VStem: 20 173<163 201 163 217.5> 175 195<511 706 511 706> 183 168<456 456> 340 163<228 228>
LayerCount: 2
Fore
SplineSet
340 228 m 1xf4
 503 228 l 1
 502 214 502 201 500 188 c 0
 494 137 473 87 440 54 c 0
 392 5 323 -12 254 -12 c 0
 81 -12 20 100 20 184 c 0xe4
 20 251 52 298 121 352 c 0
 170 390 182 399 183 456 c 1xc8
 351 456 l 1xd0
 352 358 336 344 265 285 c 0
 212 240 193 220 193 182 c 0
 193 144 221 122 259 122 c 0
 311 122 343 160 340 228 c 1xf4
175 706 m 1xd0
 370 706 l 1
 370 511 l 1
 175 511 l 1
 175 706 l 1xd0
EndSplineSet
EndChar

StartChar: grave
Encoding: 96 96 124
Width: 292
Flags: MW
HStem: 591 135<108 108 108 225 26 265>
VStem: 26 239<591 726>
LayerCount: 2
Fore
SplineSet
108 591 m 1
 26 726 l 1
 225 726 l 1
 265 591 l 1
 108 591 l 1
EndSplineSet
EndChar

StartChar: acute
Encoding: 180 180 125
Width: 292
Flags: MW
HStem: 591 135<66 184 26 265>
VStem: 26 239<591 726>
LayerCount: 2
Fore
SplineSet
66 726 m 1
 265 726 l 1
 184 591 l 1
 26 591 l 1
 66 726 l 1
EndSplineSet
EndChar

StartChar: circumflex
Encoding: 710 710 126
Width: 292
Flags: MW
HStem: 591 135<-14 257 35 95 198 198 198 257 35 306> 680 46<146 146>
VStem: -14 320<591 591>
LayerCount: 2
Fore
SplineSet
-14 591 m 1xa0
 35 726 l 1
 257 726 l 1
 306 591 l 1
 198 591 l 1xa0
 146 680 l 1x60
 95 591 l 1
 -14 591 l 1xa0
EndSplineSet
EndChar

StartChar: tilde
Encoding: 732 732 127
Width: 292
Flags: MW
HStem: 572 105<182.5 268> 572 144<213 268> 580 145<51 79 -14 80.5>
VStem: -14 93<580 586 580 595> 213 93<716 716>
LayerCount: 2
Fore
SplineSet
213 716 m 1x58
 306 716 l 1
 307 690 310 572 226 572 c 0
 197 572 164 590 131 608 c 0
 122 612 113 617 104 617 c 0x58
 80 617 79 592 79 580 c 1
 -14 580 l 1
 -14 610 -15 647 -2 677 c 0
 10 706 35 725 67 725 c 0x38
 94 725 119 710 163 686 c 0
 171 682 178 677 187 677 c 0x98
 209 677 212 702 213 716 c 1x58
EndSplineSet
EndChar

StartChar: macron
Encoding: 175 175 128
Width: 292
Flags: MW
HStem: 592 92<-26 318 -26 318>
VStem: -26 344<592 684 592 684>
LayerCount: 2
Fore
SplineSet
318 592 m 1
 -26 592 l 1
 -26 684 l 1
 318 684 l 1
 318 592 l 1
EndSplineSet
EndChar

StartChar: breve
Encoding: 728 728 129
Width: 292
Flags: MW
HStem: 578 73<128 166 128 174.5> 578 129<8 174.5>
VStem: 8 78<707 707> 8 276<707 707>
LayerCount: 2
Fore
SplineSet
206 707 m 1x50
 284 707 l 1
 281 684 277 649 249 619 c 0
 236 606 205 578 144 578 c 0
 28 578 13 674 8 707 c 1
 86 707 l 1x60
 88 697 90 687 94 679 c 0
 96 676 110 651 146 651 c 0xa0
 186 651 203 681 206 707 c 1x50
EndSplineSet
EndChar

StartChar: dotaccent
Encoding: 729 729 130
Width: 292
Flags: MW
HStem: 592 134<71 221 71 221>
VStem: 71 150<592 726 592 726>
LayerCount: 2
Fore
SplineSet
221 592 m 1
 71 592 l 1
 71 726 l 1
 221 726 l 1
 221 592 l 1
EndSplineSet
EndChar

StartChar: dieresis
Encoding: 168 168 131
Width: 292
Flags: MW
HStem: 592 134<-26 124 -26 124 168 318 -26 168>
VStem: -26 150<592 726 592 726> 168 150<592 726 592 726>
LayerCount: 2
Fore
SplineSet
318 592 m 1
 168 592 l 1
 168 726 l 1
 318 726 l 1
 318 592 l 1
124 592 m 1
 -26 592 l 1
 -26 726 l 1
 124 726 l 1
 124 592 l 1
EndSplineSet
EndChar

StartChar: ring
Encoding: 730 730 132
Width: 292
Flags: MW
HStem: 569 64<137 154 137 175> 695 64<136.5 154.5>
VStem: 45 69<655 672.5 655 688> 177 69<655.5 672>
LayerCount: 2
Fore
SplineSet
114 664 m 0
 114 646 129 633 145 633 c 0
 163 633 177 647 177 664 c 0
 177 680 164 695 145 695 c 0
 128 695 114 681 114 664 c 0
146 569 m 0
 86 569 45 616 45 664 c 0
 45 712 86 759 146 759 c 0
 204 759 246 713 246 664 c 0
 246 615 204 569 146 569 c 0
EndSplineSet
EndChar

StartChar: cedilla
Encoding: 184 184 133
Width: 292
Flags: MW
HStem: -212 49<132.5 150 132.5 155> -212 79<57 155> -96 47<137.5 193.5>
VStem: 57 60<-133 -133> 171 63<-140 -119.5>
LayerCount: 2
Fore
SplineSet
67 -96 m 1xb8
 103 25 l 1
 156 25 l 1
 132 -54 l 1
 141 -51 147 -49 161 -49 c 0
 226 -49 234 -107 234 -127 c 0
 234 -153 225 -174 211 -187 c 1
 194 -205 168 -212 142 -212 c 0xb8
 99 -212 58 -193 57 -133 c 1
 117 -133 l 1x78
 118 -144 121 -163 144 -163 c 0
 156 -163 171 -155 171 -129 c 0
 171 -110 163 -96 144 -96 c 0
 131 -96 126 -102 122 -108 c 1
 67 -96 l 1xb8
EndSplineSet
EndChar

StartChar: hungarumlaut
Encoding: 733 733 134
Width: 292
Flags: MW
HStem: 591 135<-48 69 -88 151 141 141 141 151 182 299>
VStem: -88 468<591 726>
LayerCount: 2
Fore
SplineSet
-48 726 m 1
 151 726 l 1
 69 591 l 1
 -88 591 l 1
 -48 726 l 1
182 726 m 1
 380 726 l 1
 299 591 l 1
 141 591 l 1
 182 726 l 1
EndSplineSet
EndChar

StartChar: ogonek
Encoding: 731 731 135
Width: 292
Flags: MW
HStem: -157 157<129 177.5> 0 21<124 207 207 207>
VStem: 65 75<-103.5 -52> 65 162<-145 -70>
LayerCount: 2
Fore
SplineSet
124 0 m 1xf0
 207 0 l 1
 203 -2 199 -3 195 -5 c 0
 189 -8 182 -11 175 -15 c 0x60
 148 -31 140 -45 140 -59 c 0
 140 -71 147 -89 177 -89 c 0
 192 -89 203 -85 207 -83 c 1
 227 -145 l 1
 215 -150 195 -157 160 -157 c 0
 98 -157 65 -123 65 -84 c 0
 65 -56 75 -38 124 0 c 1xf0
EndSplineSet
EndChar

StartChar: caron
Encoding: 711 711 136
Width: 292
Flags: MW
HStem: 591 135<35 95 198 257 35 35>
VStem: -14 320<726 726>
LayerCount: 2
Fore
SplineSet
257 591 m 1
 35 591 l 1
 -14 726 l 1
 95 726 l 1
 146 637 l 1
 198 726 l 1
 306 726 l 1
 257 591 l 1
EndSplineSet
EndChar

StartChar: emdash
Encoding: 8212 8212 137
Width: 750
Flags: MW
HStem: 196 162<21 729 21 729>
VStem: 21 708<196 358 196 358>
LayerCount: 2
Fore
SplineSet
729 196 m 1
 21 196 l 1
 21 358 l 1
 729 358 l 1
 729 196 l 1
EndSplineSet
EndChar

StartChar: AE
Encoding: 198 198 138
Width: 875
Flags: MW
HStem: 0 143<63 63 15 63 598 691> 200 130<294 401 294 413 256 401> 299 143<575 672 575 575> 563 143<204 204 536 691 536 536> 577 129<366 366>
VStem: 152 52<563 563 563 706> 240 51<143 143> 691 151<143 267 0 267 455 563 563 563>
LayerCount: 2
Fore
SplineSet
152 562 m 1xb7
 152 706 l 1
 842 706 l 1
 842 455 l 1
 691 455 l 1
 691 563 l 1
 536 563 l 1
 555 442 l 1
 672 442 l 1
 672 299 l 1
 575 299 l 1xb7
 598 143 l 1
 691 143 l 1
 691 267 l 1
 842 267 l 1
 842 0 l 1
 365 0 l 1
 365 144 l 1
 421 143 l 1
 413 200 l 1
 256 200 l 1xd7
 240 143 l 1
 291 144 l 1
 291 0 l 1
 15 0 l 1
 15 144 l 1
 63 143 l 1
 204 563 l 1
 152 562 l 1xb7
401 330 m 1xcf
 366 577 l 1
 294 330 l 1
 401 330 l 1xcf
EndSplineSet
EndChar

StartChar: ordfeminine
Encoding: 170 170 139
Width: 354
Flags: MW
HStem: 378 76<83.5 175.5> 386 90<312 339 312 339> 529 57<198 198> 605 113<29 186.5 29 186.5> 645 73<154 173>
VStem: 18 117<477.5 510 477.5 533.5> 29 109<605 611> 198 114<498 529 529 529 586 599.5>
LayerCount: 2
Fore
SplineSet
312 601 m 1x55
 312 476 l 1
 339 476 l 1
 339 386 l 1
 204 386 l 1x75
 201 422 l 1
 192 410 169 378 112 378 c 0
 55 378 18 412 18 475 c 0xb5
 18 592 150 587 198 586 c 1
 198 613 198 615 197 621 c 0
 192 642 177 645 169 645 c 0x6b
 139 645 138 617 138 605 c 1
 29 605 l 1
 30 623 31 640 40 658 c 0x53
 61 700 114 718 167 718 c 0
 206 718 257 707 285 678 c 0
 310 653 311 625 312 601 c 1x55
198 498 m 1
 198 529 l 1
 182 530 135 533 135 487 c 0
 135 468 145 454 163 454 c 0
 188 454 197 475 198 498 c 1
EndSplineSet
EndChar

StartChar: Lslash
Encoding: 321 321 140
Width: 542
Flags: MW
HStem: 0 143<84 84 270 377 16 84> 505 20<386 386> 562 143
VStem: 84 186<143 242 242 242 461 563> 377 151<143 268 0 268>
LayerCount: 2
Fore
SplineSet
270 563 m 1
 270 461 l 1
 386 525 l 1
 386 403 l 1
 270 343 l 1
 270 143 l 1
 377 143 l 1
 377 268 l 1
 528 268 l 1
 528 0 l 1
 16 0 l 1
 16 144 l 1
 84 143 l 1
 84 242 l 1
 16 203 l 1
 16 325 l 1
 84 358 l 1
 84 563 l 1
 19 562 l 1
 19 706 l 1
 336 706 l 1
 336 562 l 1
 270 563 l 1
EndSplineSet
EndChar

StartChar: Oslash
Encoding: 216 216 141
Width: 708
Flags: MW
HStem: -12 137<347.5 370> 0 21<252 252> 582 136<331.5 358.5> 688 20<450 450>
VStem: 31 185<339 391 339 400.5> 492 183<290.5 361>
LayerCount: 2
Fore
SplineSet
450 708 m 1x9c
 500 809 l 1
 656 809 l 1
 571 644 l 1
 595 621 630 587 655 504 c 0
 667 465 675 416 675 356 c 0
 675 214 627 122 577 72 c 0
 497 -9 392 -12 348 -12 c 0xac
 310 -12 290 -8 252 0 c 1
 200 -107 l 1
 45 -107 l 1
 131 65 l 1
 115 82 101 96 84 125 c 0
 43 194 31 273 31 347 c 0
 31 454 56 562 131 637 c 0
 197 702 278 718 362 718 c 0x6c
 394 718 409 716 450 708 c 1x9c
224 248 m 1
 387 578 l 1
 375 581 365 582 352 582 c 0
 311 582 283 565 266 548 c 0
 223 504 216 424 216 358 c 0
 216 320 219 267 224 248 c 1
477 461 m 1
 314 129 l 1
 327 126 340 125 355 125 c 0
 463 125 492 246 492 335 c 0
 492 387 485 423 477 461 c 1
EndSplineSet
EndChar

StartChar: OE
Encoding: 338 338 142
Width: 958
Flags: MW
HStem: 0 137<443 449 384 465 384 923> 0 143<635 772 635 923> 299 143<635 752 635 752> 563 143<635 772 635 635> 568 138<345.5 923>
VStem: 28 191<332.5 369> 449 186<143 299 442 563> 772 151<143 268 0 268 455 563 563 563>
LayerCount: 2
Fore
SplineSet
434 706 m 1x77
 923 706 l 1
 923 455 l 1
 772 455 l 1
 772 563 l 1
 635 563 l 1
 635 442 l 1
 752 442 l 1
 752 299 l 1
 635 299 l 1
 635 143 l 1
 772 143 l 1
 772 268 l 1
 923 268 l 1
 923 0 l 1
 465 0 l 2
 421 0 351 -2 307 -2 c 0
 281 -2 217 -2 161 29 c 0
 93 66 28 158 28 341 c 0
 28 397 36 485 68 558 c 0
 127 690 222 707 346 707 c 0
 374 707 386 707 434 706 c 1x77
384 137 m 1xaf
 449 137 l 1
 449 566 l 1
 417 566 402 568 375 568 c 0
 316 568 219 565 219 349 c 0
 219 316 221 256 244 207 c 0
 276 141 330 138 384 137 c 1xaf
EndSplineSet
EndChar

StartChar: ordmasculine
Encoding: 186 186 143
Width: 375
Flags: MW
HStem: 378 90<175.5 202.5> 631 87<177 208.5>
VStem: 21 118<540 560 540 564> 232 119<539 560.5>
LayerCount: 2
Fore
SplineSet
21 551 m 0
 21 577 22 632 64 674 c 0
 108 718 168 718 186 718 c 0
 293 718 351 655 351 548 c 0
 351 482 329 440 307 419 c 0
 272 384 219 378 186 378 c 0
 84 378 21 431 21 551 c 0
232 550 m 0
 232 571 232 631 185 631 c 0
 139 631 139 571 139 549 c 0
 139 531 139 510 148 493 c 0
 155 480 165 468 186 468 c 0
 232 468 232 528 232 550 c 0
EndSplineSet
EndChar

StartChar: ae
Encoding: 230 230 144
Width: 854
Flags: MW
HStem: -12 127<541.5 593> -12 190<495 820> 229 93<511 637 511 825 508 637> 233 85<320 320> 349 182<47 319.5> 414 117<249 295>
VStem: 25 192<147 154> 47 176<349 349> 320 188 637 188<229 330.5>
LayerCount: 2
Fore
SplineSet
223 349 m 1xafc0
 47 349 l 1xa9c0
 50 393 57 421 76 449 c 0
 116 511 194 531 269 531 c 0
 370 531 409 493 436 466 c 1
 450 480 459 489 479 501 c 0
 510 518 555 531 600 531 c 0
 655 531 710 514 749 475 c 0
 822 402 824 292 825 229 c 1
 508 229 l 1
 508 181 508 115 575 115 c 0xa5c0
 630 115 633 163 634 178 c 1
 820 178 l 1x66c0
 812 140 802 95 757 52 c 0
 695 -7 615 -12 571 -12 c 0
 419 -12 378 57 364 81 c 1
 356 67 350 56 335 41 c 0
 297 4 244 -12 191 -12 c 0
 80 -12 25 52 25 143 c 0
 25 165 28 191 43 220 c 0
 59 250 79 267 105 281 c 0x96c0
 169 316 238 317 320 318 c 1
 319 370 318 414 272 414 c 0x95c0
 226 414 224 374 223 349 c 1xafc0
511 322 m 1xa6c0
 637 322 l 1
 637 339 637 369 616 389 c 0
 608 398 593 405 574 405 c 0
 558 405 541 399 530 387 c 0
 511 367 511 339 511 322 c 1xa6c0
320 233 m 1x96c0
 288 233 275 233 263 229 c 0
 232 220 217 194 217 163 c 0
 217 131 235 112 260 112 c 0
 284 112 306 126 315 159 c 0
 318 170 318 170 320 233 c 1x96c0
EndSplineSet
EndChar

StartChar: dotlessi
Encoding: 305 305 145
Width: 313
Flags: MW
HStem: 0 144<24 67 253 297 24 67> 374 144<24 67 24 253>
VStem: 67 186<144 374 374 374>
LayerCount: 2
Fore
SplineSet
24 518 m 1
 253 518 l 1
 253 144 l 1
 297 144 l 1
 297 0 l 1
 24 0 l 1
 24 144 l 1
 67 144 l 1
 67 374 l 1
 24 374 l 1
 24 518 l 1
EndSplineSet
EndChar

StartChar: lslash
Encoding: 322 322 146
Width: 313
Flags: MW
HStem: 0 144<21 63 249 292 21 63> 513 20<300 300> 562 144<21 63 21 249>
VStem: 63 186<144 287 287 287 144 505 505 562 562 562>
LayerCount: 2
Fore
SplineSet
300 416 m 1
 249 388 l 1
 249 144 l 1
 292 144 l 1
 292 0 l 1
 21 0 l 1
 21 144 l 1
 63 144 l 1
 63 287 l 1
 11 258 l 1
 11 374 l 1
 63 402 l 1
 63 562 l 1
 21 562 l 1
 21 706 l 1
 249 706 l 1
 249 505 l 1
 300 533 l 1
 300 416 l 1
EndSplineSet
EndChar

StartChar: oslash
Encoding: 248 248 147
Width: 583
Flags: MW
HStem: -13 144<282 299 282 303> -9 21<228 228> 391 139<277 299.5 264.5 302> 506 20<348 348> 510 20<264.5 299.5>
VStem: 26 188<250.5 274 250.5 282.5> 364 190<224 272>
LayerCount: 2
Fore
SplineSet
348 526 m 1x5e
 396 625 l 1
 544 625 l 1
 468 476 l 1
 488 459 512 437 533 384 c 0
 548 344 554 301 554 258 c 0
 554 143 512 81 484 53 c 0
 418 -13 317 -13 289 -13 c 0x96
 263 -13 252 -12 228 -9 c 1
 180 -111 l 1
 34 -111 l 1
 110 41 l 1
 93 57 65 82 45 137 c 0
 32 173 26 214 26 263 c 0
 26 302 26 438 151 500 c 0
 189 519 240 530 289 530 c 0x4e
 310 530 327 528 348 526 c 1x5e
289 391 m 0xa6
 265 391 252 381 245 374 c 0
 214 344 214 286 214 262 c 0
 214 239 214 179 245 149 c 0
 258 137 274 131 290 131 c 0
 308 131 323 137 335 149 c 0
 351 165 364 189 364 259 c 0
 364 285 362 325 351 349 c 0
 339 378 315 391 289 391 c 0xa6
EndSplineSet
EndChar

StartChar: oe
Encoding: 339 339 148
Width: 917
Flags: MW
HStem: -14 149<273.5 303> -13 128<601.5 656 601.5 668.5> 222 100<572 699 572 886 568 699> 383 147<250.5 307> 400 130<630 664>
VStem: 24 190<241.5 272 241.5 314> 355 213<203 307.5> 699 187<222 322>
LayerCount: 2
Fore
SplineSet
697 178 m 1x77
 880 178 l 1
 877 158 874 134 863 107 c 0
 818 1 693 -13 644 -13 c 0
 530 -13 478 39 455 72 c 1x6f
 449 65 444 59 438 53 c 0
 401 14 341 -14 265 -14 c 0xb7
 98 -14 24 111 24 263 c 0
 24 365 60 431 96 466 c 0
 135 505 196 530 267 530 c 0
 388 530 437 461 455 436 c 1
 473 458 489 476 517 494 c 0
 562 522 612 530 648 530 c 0
 756 530 840 469 872 361 c 0
 888 308 887 258 886 222 c 1
 568 222 l 1
 568 184 567 115 636 115 c 0
 676 115 696 139 697 178 c 1x77
572 322 m 1
 699 322 l 1
 697 346 693 400 635 400 c 0
 578 400 574 349 572 322 c 1
287 383 m 0xb7
 214 383 214 290 214 254 c 0
 214 229 214 179 240 153 c 0
 247 146 262 135 285 135 c 0
 354 135 355 228 355 259 c 0
 355 356 327 383 287 383 c 0xb7
EndSplineSet
EndChar

StartChar: germandbls
Encoding: 223 223 149
Width: 604
Flags: MW
HStem: -7 21<351 393.5> 0 120<20 282 282 282> 0 144<20 62 20 245 20 62> 320 134<294 301.5 294 307> 580 138<275 323.5>
VStem: 62 183<144 482 482 482> 358 180<522.5 530.5> 383 189<192 226>
LayerCount: 2
Fore
SplineSet
62 144 m 1x3e
 62 482 l 1
 64 536 66 599 119 651 c 0
 154 686 216 718 313 718 c 0
 386 718 452 700 494 657 c 0
 532 618 538 574 538 539 c 0
 538 506 533 439 455 402 c 1x3e
 447 397 437 394 428 390 c 1
 437 389 446 388 455 385 c 0
 555 359 572 261 572 195 c 0
 572 170 571 96 520 45 c 0
 480 5 422 -7 365 -7 c 0x9d
 337 -7 316 -4 282 0 c 1x3e
 282 120 l 1
 304 119 339 117 362 141 c 0
 372 150 383 167 383 217 c 0
 383 235 381 257 374 276 c 0x5d
 357 321 320 320 294 320 c 1
 294 454 l 1
 309 454 326 454 341 469 c 0
 352 480 358 497 358 517 c 0
 358 544 345 580 302 580 c 0
 248 580 246 527 245 503 c 1
 245 0 l 1
 20 0 l 1
 20 144 l 1
 62 144 l 1x3e
EndSplineSet
EndChar

StartChar: brokenbar
Encoding: 166 166 150
Width: 229
Flags: MW
HStem: -175 850<51 178 51 178>
VStem: 51 127<-175 175 -175 175 325 675>
LayerCount: 2
Fore
SplineSet
51 -175 m 1
 51 175 l 1
 178 175 l 1
 178 -175 l 1
 51 -175 l 1
178 325 m 1
 51 325 l 1
 51 675 l 1
 178 675 l 1
 178 325 l 1
EndSplineSet
EndChar

StartChar: Ograve
Encoding: 210 210 151
Width: 708
Flags: MW
HStem: -12 142<313 357.5 313 469.5> 575 143 776 135<275 275 275 392 193 432>
VStem: 32 191<327.5 378.5 327.5 401> 486 191<324 370>
LayerCount: 2
Fore
SplineSet
32 348 m 0
 32 454 57 562 133 636 c 0
 251 753 431 716 482 698 c 0
 630 644 677 496 677 357 c 0
 677 163 587 -12 352 -12 c 0
 268 -12 184 13 125 73 c 0
 55 144 32 248 32 348 c 0
486 354 m 0
 486 386 483 418 477 451 c 1
 468 491 446 575 353 575 c 0
 325 575 299 567 277 544 c 1
 230 498 223 404 223 353 c 0
 223 302 230 267 234 248 c 0
 246 196 273 130 353 130 c 0
 362 130 379 130 396 137 c 0
 476 168 486 294 486 354 c 0
275 776 m 1
 193 911 l 1
 392 911 l 1
 432 776 l 1
 275 776 l 1
EndSplineSet
EndChar

StartChar: Ccedilla
Encoding: 199 199 152
Width: 625
Flags: MW
HStem: -212 49<331.5 349 331.5 354> -212 79<256 354> -96 47<336.5 396> -11 21<344 344> -11 149<344 344> -10 21<291 291> 455 252<454 585 454 585 433 585> 572 147<302.5 310 239.5 379>
VStem: 35 189<338.5 369 338.5 369> 256 60<-133 -133> 370 63<-141 -124 -141 -119.5> 451 133
LayerCount: 2
Fore
SplineSet
433 268 m 1xa5d0
 596 268 l 1
 590 186 583 103 507 43 c 0
 446 -5 377 -9 344 -11 c 1
 331 -54 l 1
 340 -51 346 -49 359 -49 c 0
 433 -49 433 -121 433 -127 c 0
 433 -155 423 -175 410 -187 c 1
 393 -205 367 -212 341 -212 c 0xb1f0
 296 -212 257 -192 256 -133 c 1
 316 -133 l 1x65d0
 317 -144 320 -163 343 -163 c 0
 355 -163 370 -155 370 -129 c 0
 370 -110 362 -96 343 -96 c 0
 330 -96 325 -102 321 -108 c 1xa5f0
 266 -96 l 1
 291 -10 l 1
 240 -5 134 8 75 137 c 0
 44 204 35 277 35 351 c 0
 35 387 37 423 43 458 c 1
 48 495 57 530 71 564 c 0
 110 658 184 719 295 719 c 0
 325 719 354 715 388 700 c 0
 418 686 427 675 449 650 c 1xa5d0
 454 707 l 1
 585 707 l 1
 585 455 l 1
 433 455 l 1xa6d0
 430 484 422 572 336 572 c 0
 269 572 248 511 241 490 c 0
 228 449 224 388 224 350 c 0
 224 327 226 260 240 216 c 0
 257 165 290 138 333 138 c 0
 359 138 381 148 396 163 c 0xa9d0
 428 196 431 244 433 268 c 1xa5d0
EndSplineSet
EndChar

StartChar: multiply
Encoding: 215 215 153
Width: 667
Flags: MW
HStem: 19 543<151 151 151 516>
VStem: 61 544<110 110 110 474>
LayerCount: 2
Fore
SplineSet
605 110 m 1
 516 19 l 1
 333 201 l 1
 151 19 l 1
 61 110 l 1
 243 291 l 1
 61 474 l 1
 151 562 l 1
 333 382 l 1
 516 562 l 1
 605 474 l 1
 424 291 l 1
 605 110 l 1
EndSplineSet
EndChar

StartChar: Ntilde
Encoding: 209 209 154
Width: 708
Flags: MW
HStem: 0 143<84 84 20 84> 562 143 757 144<421 476> 766 145<259 287 194 288.5>
VStem: 84 141 194 93<766 772 766 781> 421 93<901 901> 498 141
LayerCount: 2
Fore
SplineSet
20 562 m 1xe9
 20 706 l 1
 339 706 l 1
 499 143 l 1
 497 563 l 1
 451 562 l 1
 451 706 l 1
 703 706 l 1
 703 562 l 1
 639 563 l 1
 639 0 l 1
 380 0 l 1
 223 559 l 1
 227 143 l 1
 275 144 l 1
 275 0 l 1
 20 0 l 1
 20 144 l 1
 84 143 l 1
 84 563 l 1
 20 562 l 1xe9
421 901 m 1xea
 514 901 l 1
 515 875 518 757 434 757 c 0xea
 405 757 372 775 339 794 c 1
 330 798 321 803 312 803 c 0
 288 803 287 778 287 766 c 1
 194 766 l 1
 194 796 193 833 206 863 c 0
 218 892 243 911 275 911 c 0xd5
 302 911 327 896 371 871 c 0
 379 867 386 862 395 862 c 0
 417 862 420 887 421 901 c 1xea
EndSplineSet
EndChar

StartChar: Otilde
Encoding: 213 213 155
Width: 708
Flags: MW
HStem: -12 142<313 357.5 313 469.5> 575 143 757 144<421 476> 766 145<259 287 194 288.5>
VStem: 32 191<327.5 378.5 327.5 401> 194 93<766 772 766 781> 421 93<901 901> 486 191<324 370>
LayerCount: 2
Fore
SplineSet
32 348 m 0xe9
 32 454 57 562 133 636 c 0
 251 753 431 716 482 698 c 0
 630 644 677 496 677 357 c 0
 677 163 587 -12 352 -12 c 0
 268 -12 184 13 125 73 c 0
 55 144 32 248 32 348 c 0xe9
486 354 m 0
 486 386 483 418 477 451 c 1
 468 491 446 575 353 575 c 0
 325 575 299 567 277 544 c 1
 230 498 223 404 223 353 c 0
 223 302 230 267 234 248 c 0
 246 196 273 130 353 130 c 0
 362 130 379 130 396 137 c 0
 476 168 486 294 486 354 c 0
421 901 m 1xea
 514 901 l 1
 515 875 518 757 434 757 c 0xea
 405 757 372 775 339 794 c 1
 330 798 321 803 312 803 c 0
 288 803 287 778 287 766 c 1
 194 766 l 1
 194 796 193 833 206 863 c 0
 218 892 243 911 275 911 c 0xd5
 302 911 327 896 371 871 c 0
 379 867 386 862 395 862 c 0
 417 862 420 887 421 901 c 1xea
EndSplineSet
EndChar

StartChar: mu
Encoding: 181 181 156
Width: 583
Flags: MW
HStem: -205 21<53 232 53 53> -5 21<269.5 304.5> 0 143<523 523 523 566> 0 146<280.5 566 280.5 354> 374 143
VStem: 53 186<215.5 226 226 375 375 375> 337 186<225 375 375 375> 354 212<0 57 57 57>
LayerCount: 2
Fore
SplineSet
11 518 m 1xae
 239 518 l 1
 239 226 l 2
 239 205 239 186 247 171 c 0
 256 153 273 146 288 146 c 0
 335 146 336 196 337 225 c 1x9e
 337 375 l 1
 299 374 l 1
 299 518 l 1
 523 518 l 1
 523 143 l 1xae
 566 144 l 1
 566 0 l 1
 354 0 l 1xad
 354 57 l 1
 339 27 323 -5 286 -5 c 0
 253 -5 240 19 232 34 c 1xcd
 232 -205 l 1
 53 -205 l 1
 53 375 l 1
 11 374 l 1
 11 518 l 1xae
EndSplineSet
EndChar

StartChar: Oacute
Encoding: 211 211 157
Width: 708
Flags: MW
HStem: -12 142<313 357.5 313 469.5> 575 143 776 135<312 430 272 511>
VStem: 32 191<327.5 378.5 327.5 401> 486 191<324 370>
LayerCount: 2
Fore
SplineSet
32 348 m 0
 32 454 57 562 133 636 c 0
 251 753 431 716 482 698 c 0
 630 644 677 496 677 357 c 0
 677 163 587 -12 352 -12 c 0
 268 -12 184 13 125 73 c 0
 55 144 32 248 32 348 c 0
486 354 m 0
 486 386 483 418 477 451 c 1
 468 491 446 575 353 575 c 0
 325 575 299 567 277 544 c 1
 230 498 223 404 223 353 c 0
 223 302 230 267 234 248 c 0
 246 196 273 130 353 130 c 0
 362 130 379 130 396 137 c 0
 476 168 486 294 486 354 c 0
312 911 m 1
 511 911 l 1
 430 776 l 1
 272 776 l 1
 312 911 l 1
EndSplineSet
EndChar

StartChar: thorn
Encoding: 254 254 158
Width: 604
Flags: MW
HStem: -205 143<18 59 246 292 18 59> -13 141<299 477> 389 141<309 388.5> 562 144<18 59 18 238>
VStem: 59 186<245.5 259 259 271 245.5 562> 385 192<235 265>
LayerCount: 2
Fore
SplineSet
238 706 m 1
 237 461 l 1
 258 489 289 530 376 530 c 0
 401 530 457 529 508 476 c 0
 576 405 577 296 577 258 c 0
 577 212 577 -13 377 -13 c 0
 360 -13 300 -13 261 40 c 0
 255 47 251 55 246 62 c 1
 246 -62 l 1
 292 -62 l 1
 292 -205 l 1
 18 -205 l 1
 18 -62 l 1
 59 -62 l 1
 59 562 l 1
 18 562 l 1
 18 706 l 1
 238 706 l 1
314 389 m 0
 304 389 271 387 254 339 c 0
 246 316 245 291 245 271 c 2
 245 259 l 2
 245 232 247 206 254 181 c 0
 263 151 284 128 314 128 c 0
 320 128 344 128 363 156 c 0
 377 178 385 212 385 258 c 0
 385 272 384 309 375 338 c 0
 360 382 332 389 314 389 c 0
EndSplineSet
EndChar

StartChar: eth
Encoding: 240 240 159
Width: 583
Flags: MW
HStem: -13 144<275 328.5 275 376> 391 136<260 266.5 211.5 327> 497 20 702 20<462 462>
VStem: 27 188<250.5 285.5> 365 191<239 272>
LayerCount: 2
Fore
SplineSet
493 651 m 1xbc
 432 631 l 1
 470 579 556 462 556 281 c 0
 556 88 463 -13 289 -13 c 0
 157 -13 106 40 81 73 c 0
 34 135 27 210 27 266 c 0
 27 305 30 376 69 434 c 0
 107 491 174 527 249 527 c 0xdc
 284 527 300 521 311 517 c 1
 300 539 296 546 273 580 c 1
 152 540 l 1
 124 609 l 1
 221 641 l 1
 190 672 188 674 175 684 c 1
 337 743 l 1
 349 731 354 727 382 695 c 1
 462 722 l 1
 493 651 l 1xbc
289 391 m 0
 231 391 215 334 215 273 c 0
 215 228 218 200 229 175 c 0
 239 153 258 131 292 131 c 0
 365 131 365 224 365 254 c 0
 365 290 365 391 289 391 c 0
EndSplineSet
EndChar

StartChar: Igrave
Encoding: 204 204 160
Width: 354
Flags: MW
HStem: 0 143<83 83 18 83> 562 143 776 135<98 98 98 215 16 255>
VStem: 83 187<143 563 143 563>
LayerCount: 2
Fore
SplineSet
18 562 m 1
 18 706 l 1
 334 706 l 1
 334 562 l 1
 270 563 l 1
 270 143 l 1
 334 144 l 1
 334 0 l 1
 18 0 l 1
 18 144 l 1
 83 143 l 1
 83 563 l 1
 18 562 l 1
98 776 m 1
 16 911 l 1
 215 911 l 1
 255 776 l 1
 98 776 l 1
EndSplineSet
EndChar

StartChar: Ocircumflex
Encoding: 212 212 161
Width: 708
Flags: MW
HStem: -12 142<313 357.5 313 469.5> 575 143 776 135<194 465 243 303 406 406 406 465 243 514>
VStem: 32 191<327.5 378.5 327.5 401> 486 191<324 370>
LayerCount: 2
Fore
SplineSet
32 348 m 0
 32 454 57 562 133 636 c 0
 251 753 431 716 482 698 c 0
 630 644 677 496 677 357 c 0
 677 163 587 -12 352 -12 c 0
 268 -12 184 13 125 73 c 0
 55 144 32 248 32 348 c 0
486 354 m 0
 486 386 483 418 477 451 c 1
 468 491 446 575 353 575 c 0
 325 575 299 567 277 544 c 1
 230 498 223 404 223 353 c 0
 223 302 230 267 234 248 c 0
 246 196 273 130 353 130 c 0
 362 130 379 130 396 137 c 0
 476 168 486 294 486 354 c 0
194 776 m 1
 243 911 l 1
 465 911 l 1
 514 776 l 1
 406 776 l 1
 354 865 l 1
 303 776 l 1
 194 776 l 1
EndSplineSet
EndChar

StartChar: Eacute
Encoding: 201 201 162
Width: 604
Flags: MW
HStem: 0 143<84 84 270 420 20 84> 299 143<270 396 270 396> 563 143<84 84 270 420 270 270> 776 135<260 378 220 459>
VStem: 84 186<143 299 442 563> 420 151<143 268 0 268 455 563 563 563>
LayerCount: 2
Fore
SplineSet
20 562 m 1
 20 706 l 1
 571 706 l 1
 571 455 l 1
 420 455 l 1
 420 563 l 1
 270 563 l 1
 270 442 l 1
 396 442 l 1
 396 299 l 1
 270 299 l 1
 270 143 l 1
 420 143 l 1
 420 268 l 1
 571 268 l 1
 571 0 l 1
 20 0 l 1
 20 144 l 1
 84 143 l 1
 84 563 l 1
 20 562 l 1
260 911 m 1
 459 911 l 1
 378 776 l 1
 220 776 l 1
 260 911 l 1
EndSplineSet
EndChar

StartChar: Edieresis
Encoding: 203 203 163
Width: 604
Flags: MW
HStem: 0 143<84 84 270 420 20 84> 299 143<270 396 270 396> 563 143<84 84 270 420 270 270> 777 134<130 280 130 280 324 474 130 324>
VStem: 84 186<143 299 442 563> 130 150<777 911 777 911> 324 150<777 911 777 911> 420 151<143 268 0 268 455 563 563 563>
LayerCount: 2
Fore
SplineSet
20 562 m 1xf9
 20 706 l 1
 571 706 l 1
 571 455 l 1
 420 455 l 1
 420 563 l 1
 270 563 l 1
 270 442 l 1
 396 442 l 1
 396 299 l 1
 270 299 l 1
 270 143 l 1
 420 143 l 1
 420 268 l 1
 571 268 l 1
 571 0 l 1
 20 0 l 1
 20 144 l 1
 84 143 l 1
 84 563 l 1
 20 562 l 1xf9
474 777 m 1xf6
 324 777 l 1
 324 911 l 1
 474 911 l 1
 474 777 l 1xf6
280 777 m 1
 130 777 l 1
 130 911 l 1
 280 911 l 1
 280 777 l 1
EndSplineSet
EndChar

StartChar: Aacute
Encoding: 193 193 164
Width: 688
Flags: MW
HStem: 0 143<50 50 3 50> 224 140<275 389 275 422 241 389> 562 143 580 126<333 333> 776 135<302 420 262 501>
VStem: 3 285<0 144 0 144> 131 52<563 563 563 706> 380 64<143 143 143 144 143 144> 508 52<563 563> 632 51<143 143>
LayerCount: 2
Fore
SplineSet
131 562 m 1xebc0
 131 706 l 1xebc0
 560 706 l 1
 560 562 l 1
 508 563 l 1
 632 143 l 1
 683 144 l 1
 683 0 l 1
 380 0 l 1
 380 144 l 1
 444 143 l 1
 422 224 l 1
 241 224 l 1
 219 143 l 1
 288 144 l 1
 288 0 l 1
 3 0 l 1
 3 144 l 1
 50 143 l 1xedc0
 183 563 l 1
 131 562 l 1xebc0
389 364 m 1
 333 580 l 1xdbc0
 275 364 l 1
 389 364 l 1
302 911 m 1
 501 911 l 1
 420 776 l 1
 262 776 l 1
 302 911 l 1
EndSplineSet
EndChar

StartChar: Zcaron
Encoding: 381 381 165
Width: 604
Flags: MW
HStem: 0 143<259 410 259 560> 563 143<199 343 199 199> 776 135<191 251 354 413 191 191>
VStem: 49 150<474 563 474 706 474 706> 410 150<143 245 0 245>
LayerCount: 2
Fore
SplineSet
49 474 m 1
 49 706 l 1
 560 706 l 1
 560 566 l 1
 259 143 l 1
 410 143 l 1
 410 245 l 1
 560 245 l 1
 560 0 l 1
 41 0 l 1
 41 132 l 1
 343 563 l 1
 199 563 l 1
 199 474 l 1
 49 474 l 1
413 776 m 1
 191 776 l 1
 142 911 l 1
 251 911 l 1
 302 822 l 1
 354 911 l 1
 462 911 l 1
 413 776 l 1
EndSplineSet
EndChar

StartChar: ccedilla
Encoding: 231 231 166
Width: 521
Flags: MW
HStem: -212 49<279.5 297 279.5 302> -212 79<204 302> -96 47<284.5 344> -11 21<292 292> -11 140<292 292> -11 207<292 511> -10 21<239 239> 322 196<363 502 363 502 340 502> 395 123<254 502> 395 136<254 271 202 285>
VStem: 26 188<222.5 285> 204 60<-133 -133> 318 63<-141 -124 -141 -119.5> 361 141
LayerCount: 2
Fore
SplineSet
340 196 m 1xa724
 511 196 l 1xa524
 509 160 506 100 453 49 c 0
 397 -5 323 -9 292 -11 c 1
 279 -54 l 1
 288 -51 294 -49 307 -49 c 0
 381 -49 381 -121 381 -127 c 0
 381 -155 371 -175 358 -187 c 1
 341 -205 315 -212 289 -212 c 0xb118
 244 -212 205 -192 204 -133 c 1
 264 -133 l 1x6314
 265 -144 268 -163 291 -163 c 0
 303 -163 318 -155 318 -129 c 0
 318 -110 310 -96 291 -96 c 0
 278 -96 273 -102 269 -108 c 1xa328
 214 -96 l 1
 239 -10 l 1
 218 -8 180 -4 145 13 c 0
 55 57 26 158 26 265 c 0
 26 305 26 405 89 473 c 0
 125 512 176 531 228 531 c 0
 314 531 344 489 359 467 c 1xa264
 363 518 l 1
 502 518 l 1
 502 322 l 1
 340 322 l 1xa324
 338 339 336 362 318 380 c 0
 305 393 290 395 280 395 c 0
 228 395 214 340 214 259 c 0
 214 186 225 129 281 129 c 0xa8a4
 328 129 335 170 340 196 c 1xa724
EndSplineSet
EndChar

StartChar: logicalnot
Encoding: 172 172 167
Width: 667
Flags: MW
HStem: 0 21<539 539 539 666> 227 127<0 539 0 666>
VStem: 539 127<0 227 227 227>
LayerCount: 2
Fore
SplineSet
539 0 m 1
 539 227 l 1
 0 227 l 1
 0 354 l 1
 666 354 l 1
 666 0 l 1
 539 0 l 1
EndSplineSet
EndChar

StartChar: Atilde
Encoding: 195 195 168
Width: 688
Flags: MW
HStem: 0 143<50 50 3 50> 224 140<275 389 275 422 241 389> 562 143 580 126<333 333> 757 144<411 466> 766 145<249 277 184 278.5>
VStem: 3 285<0 144 0 144> 131 52<563 563 563 706> 184 93<766 772 766 781> 380 64<143 143 143 144 143 144> 411 93<901 901> 508 52<563 563> 632 51<143 143>
LayerCount: 2
Fore
SplineSet
131 562 m 1xe9d8
 131 706 l 1xe958
 560 706 l 1
 560 562 l 1
 508 563 l 1
 632 143 l 1
 683 144 l 1
 683 0 l 1
 380 0 l 1
 380 144 l 1
 444 143 l 1
 422 224 l 1
 241 224 l 1
 219 143 l 1
 288 144 l 1
 288 0 l 1
 3 0 l 1
 3 144 l 1
 50 143 l 1xea58
 183 563 l 1
 131 562 l 1xe9d8
389 364 m 1
 333 580 l 1xd8a8
 275 364 l 1
 389 364 l 1
411 901 m 1
 504 901 l 1
 505 875 508 757 424 757 c 0xe8a8
 395 757 362 775 329 794 c 1
 320 798 311 803 302 803 c 0
 278 803 277 778 277 766 c 1
 184 766 l 1
 184 796 183 833 196 863 c 0
 208 892 233 911 265 911 c 0xe4d8
 292 911 317 896 361 871 c 0
 369 867 376 862 385 862 c 0
 407 862 410 887 411 901 c 1
EndSplineSet
EndChar

StartChar: Thorn
Encoding: 222 222 169
Width: 604
Flags: MW
HStem: 0 143<84 84 20 84> 196 140<270 303.5 264 361 270 270> 515 145<264 294 264 322> 562 143
VStem: 84 186<143 196 143 563> 393 187<381.5 432.5>
LayerCount: 2
Fore
SplineSet
20 562 m 1xdc
 20 706 l 1
 264 706 l 1xdc
 264 660 l 1
 380 660 426 660 470 640 c 0xec
 540 609 580 531 580 427 c 0
 580 314 543 274 527 257 c 0
 474 199 406 196 361 196 c 2
 270 196 l 1
 270 143 l 1
 336 144 l 1
 336 0 l 1
 20 0 l 1
 20 144 l 1
 84 143 l 1
 84 563 l 1
 20 562 l 1xdc
294 515 m 2xec
 264 515 l 1
 264 336 l 1
 343 336 393 337 393 426 c 0
 393 439 393 470 369 493 c 0
 347 515 319 515 294 515 c 2xec
EndSplineSet
EndChar

StartChar: onequarter
Encoding: 188 188 170
Width: 958
Flags: MW
HStem: 0 90<702 744 857 900 702 744> 134 79<676 744> 265 90<122 163 279 320 122 163> 364 77<753 753> 687 20<185 279 279 279 561 658 658 658>
VStem: 163 116<355 613 613 613> 753 104<215 364 364 364>
LayerCount: 2
Fore
SplineSet
569 215 m 1
 693 441 l 1
 857 441 l 1
 857 215 l 1
 929 215 l 1
 929 134 l 1
 857 134 l 1
 857 90 l 1
 900 90 l 1
 900 0 l 1
 702 0 l 1
 702 90 l 1
 744 90 l 1
 744 134 l 1
 569 134 l 1
 569 215 l 1
293 0 m 1
 561 707 l 1
 658 707 l 1
 391 0 l 1
 293 0 l 1
753 213 m 1
 753 364 l 1
 676 213 l 1
 753 213 l 1
185 707 m 1
 279 707 l 1
 279 355 l 1
 320 355 l 1
 320 265 l 1
 122 265 l 1
 122 355 l 1
 163 355 l 1
 163 613 l 1
 102 589 l 1
 102 678 l 1
 185 707 l 1
EndSplineSet
EndChar

StartChar: Acircumflex
Encoding: 194 194 171
Width: 688
Flags: MW
HStem: 0 143<50 50 3 50> 224 140<275 389 275 422 241 389> 562 143 580 126<333 333> 776 135<184 455 233 293 396 396 396 455 233 504>
VStem: 3 285<0 144 0 144> 131 52<563 563 563 706> 380 64<143 143 143 144 143 144> 508 52<563 563> 632 51<143 143>
LayerCount: 2
Fore
SplineSet
131 562 m 1xebc0
 131 706 l 1xebc0
 560 706 l 1
 560 562 l 1
 508 563 l 1
 632 143 l 1
 683 144 l 1
 683 0 l 1
 380 0 l 1
 380 144 l 1
 444 143 l 1
 422 224 l 1
 241 224 l 1
 219 143 l 1
 288 144 l 1
 288 0 l 1
 3 0 l 1
 3 144 l 1
 50 143 l 1xedc0
 183 563 l 1
 131 562 l 1xebc0
389 364 m 1
 333 580 l 1xdbc0
 275 364 l 1
 389 364 l 1
184 776 m 1
 233 911 l 1
 455 911 l 1
 504 776 l 1
 396 776 l 1
 344 865 l 1
 293 776 l 1
 184 776 l 1
EndSplineSet
EndChar

StartChar: Odieresis
Encoding: 214 214 172
Width: 708
Flags: MW
HStem: -12 142<313 357.5 313 469.5> 575 143 777 134<180 330 180 330 374 524 180 374>
VStem: 32 191<327.5 378.5 327.5 401> 180 150<777 911 777 911> 374 150<777 911 777 911> 486 191<324 370>
LayerCount: 2
Fore
SplineSet
32 348 m 0xfe
 32 454 57 562 133 636 c 0
 251 753 431 716 482 698 c 0
 630 644 677 496 677 357 c 0
 677 163 587 -12 352 -12 c 0
 268 -12 184 13 125 73 c 0
 55 144 32 248 32 348 c 0xfe
486 354 m 0
 486 386 483 418 477 451 c 1
 468 491 446 575 353 575 c 0
 325 575 299 567 277 544 c 1
 230 498 223 404 223 353 c 0
 223 302 230 267 234 248 c 0
 246 196 273 130 353 130 c 0
 362 130 379 130 396 137 c 0
 476 168 486 294 486 354 c 0
524 777 m 1xec
 374 777 l 1
 374 911 l 1
 524 911 l 1
 524 777 l 1xec
330 777 m 1
 180 777 l 1
 180 911 l 1
 330 911 l 1
 330 777 l 1
EndSplineSet
EndChar

StartChar: threequarters
Encoding: 190 190 173
Width: 958
Flags: MW
HStem: 0 90<702 744 857 900 702 744> 134 79<676 744> 258 87<180 224.5 177.5 245.5> 364 77<753 753> 454 42 454 76<153 170.5> 496 34 583 132<41 238.5> 628 87<189 205.5> 686 20<569 667 667 667>
VStem: 239 115<568.5 598.5> 254 116<393 405 340.5 430.5> 753 104<215 364 364 364>
LayerCount: 2
Fore
SplineSet
569 215 m 1xe448
 693 441 l 1
 857 441 l 1xf448
 857 215 l 1
 929 215 l 1
 929 134 l 1
 857 134 l 1
 857 90 l 1
 900 90 l 1
 900 0 l 1
 702 0 l 1
 702 90 l 1
 744 90 l 1
 744 134 l 1
 569 134 l 1
 569 215 l 1xe448
302 0 m 1
 569 706 l 1
 667 706 l 1
 400 0 l 1
 302 0 l 1
753 213 m 1
 753 364 l 1
 676 213 l 1
 753 213 l 1
150 583 m 1xe528
 41 583 l 1
 43 600 48 643 79 674 c 0
 104 698 147 715 202 715 c 0
 275 715 354 683 354 592 c 0
 354 545 328 508 273 498 c 0xe328
 268 497 263 496 259 496 c 1
 266 495 273 494 281 493 c 0xe868
 291 491 301 488 310 484 c 0xe858
 355 464 370 424 370 386 c 0
 370 295 287 258 204 258 c 0
 156 258 107 270 73 303 c 1
 35 342 32 381 31 400 c 1
 145 400 l 1
 147 386 151 345 204 345 c 0
 245 345 254 383 254 403 c 0xe458
 254 458 195 456 153 454 c 1
 153 530 l 1
 188 530 239 530 239 583 c 0
 239 614 216 628 195 628 c 0
 183 628 169 623 161 615 c 0xe4a8
 151 605 150 592 150 583 c 1xe528
EndSplineSet
EndChar

StartChar: Ucircumflex
Encoding: 219 219 174
Width: 688
Flags: MW
HStem: -11 143<323.5 380 300.5 408.5> 562 143 776 135<184 455 233 293 396 396 396 455 233 504>
VStem: 75 185<264 563> 423 185<237.5 257 257 563>
LayerCount: 2
Fore
SplineSet
14 562 m 1
 14 706 l 1
 310 706 l 1
 310 562 l 1
 260 563 l 1
 260 238 l 2
 260 193 261 132 340 132 c 0
 420 132 422 184 423 215 c 1
 423 563 l 1
 373 562 l 1
 373 706 l 1
 673 706 l 1
 673 562 l 1
 608 563 l 1
 608 257 l 2
 608 218 607 179 594 140 c 0
 564 44 477 -11 340 -11 c 0
 307 -11 207 -10 139 59 c 0
 79 119 77 191 75 264 c 1
 75 563 l 1
 14 562 l 1
184 776 m 1
 233 911 l 1
 455 911 l 1
 504 776 l 1
 396 776 l 1
 344 865 l 1
 293 776 l 1
 184 776 l 1
EndSplineSet
EndChar

StartChar: Ugrave
Encoding: 217 217 175
Width: 688
Flags: MW
HStem: -11 143<323.5 380 300.5 408.5> 562 143 776 135<265 265 265 382 183 422>
VStem: 75 185<264 563> 423 185<237.5 257 257 563>
LayerCount: 2
Fore
SplineSet
14 562 m 1
 14 706 l 1
 310 706 l 1
 310 562 l 1
 260 563 l 1
 260 238 l 2
 260 193 261 132 340 132 c 0
 420 132 422 184 423 215 c 1
 423 563 l 1
 373 562 l 1
 373 706 l 1
 673 706 l 1
 673 562 l 1
 608 563 l 1
 608 257 l 2
 608 218 607 179 594 140 c 0
 564 44 477 -11 340 -11 c 0
 307 -11 207 -10 139 59 c 0
 79 119 77 191 75 264 c 1
 75 563 l 1
 14 562 l 1
265 776 m 1
 183 911 l 1
 382 911 l 1
 422 776 l 1
 265 776 l 1
EndSplineSet
EndChar

StartChar: Udieresis
Encoding: 220 220 176
Width: 688
Flags: MW
HStem: -11 143<323.5 380 300.5 408.5> 562 143 777 134<169 319 169 319 363 513 169 363>
VStem: 75 185<264 563> 169 150<777 911 777 911> 363 150<777 911 777 911> 423 185<237.5 257 257 563>
LayerCount: 2
Fore
SplineSet
14 562 m 1xf2
 14 706 l 1xf4
 310 706 l 1
 310 562 l 1xea
 260 563 l 1
 260 238 l 2
 260 193 261 132 340 132 c 0
 420 132 422 184 423 215 c 1
 423 563 l 1xf2
 373 562 l 1
 373 706 l 1xf4
 673 706 l 1
 673 562 l 1
 608 563 l 1
 608 257 l 2
 608 218 607 179 594 140 c 0
 564 44 477 -11 340 -11 c 0
 307 -11 207 -10 139 59 c 0
 79 119 77 191 75 264 c 1
 75 563 l 1
 14 562 l 1xf2
513 777 m 1
 363 777 l 1
 363 911 l 1
 513 911 l 1
 513 777 l 1
319 777 m 1xea
 169 777 l 1
 169 911 l 1
 319 911 l 1
 319 777 l 1xea
EndSplineSet
EndChar

StartChar: Iacute
Encoding: 205 205 177
Width: 354
Flags: MW
HStem: 0 143<83 83 18 83> 562 143 776 135<135 253 95 334>
VStem: 83 187<143 563 143 563>
LayerCount: 2
Fore
SplineSet
18 562 m 1
 18 706 l 1
 334 706 l 1
 334 562 l 1
 270 563 l 1
 270 143 l 1
 334 144 l 1
 334 0 l 1
 18 0 l 1
 18 144 l 1
 83 143 l 1
 83 563 l 1
 18 562 l 1
135 911 m 1
 334 911 l 1
 253 776 l 1
 95 776 l 1
 135 911 l 1
EndSplineSet
EndChar

StartChar: Agrave
Encoding: 192 192 178
Width: 688
Flags: MW
HStem: 0 143<50 50 3 50> 224 140<275 389 275 422 241 389> 562 143 580 126<333 333> 776 135<265 265 265 382 183 422>
VStem: 3 285<0 144 0 144> 131 52<563 563 563 706> 380 64<143 143 143 144 143 144> 508 52<563 563> 632 51<143 143>
LayerCount: 2
Fore
SplineSet
131 562 m 1xebc0
 131 706 l 1xebc0
 560 706 l 1
 560 562 l 1
 508 563 l 1
 632 143 l 1
 683 144 l 1
 683 0 l 1
 380 0 l 1
 380 144 l 1
 444 143 l 1
 422 224 l 1
 241 224 l 1
 219 143 l 1
 288 144 l 1
 288 0 l 1
 3 0 l 1
 3 144 l 1
 50 143 l 1xedc0
 183 563 l 1
 131 562 l 1xebc0
389 364 m 1
 333 580 l 1xdbc0
 275 364 l 1
 389 364 l 1
265 776 m 1
 183 911 l 1
 382 911 l 1
 422 776 l 1
 265 776 l 1
EndSplineSet
EndChar

StartChar: degree
Encoding: 176 176 179
Width: 354
Flags: MW
HStem: 400 119<162.5 193 162.5 225> 630 115<162.5 193>
VStem: 5 117<559 590 559 618.5> 233 116<559 590>
LayerCount: 2
Fore
SplineSet
177 745 m 0
 276 745 349 665 349 572 c 0
 349 478 273 400 177 400 c 0
 82 400 5 477 5 572 c 0
 5 665 78 745 177 745 c 0
178 630 m 0
 147 630 122 606 122 574 c 0
 122 544 147 519 178 519 c 0
 208 519 233 544 233 574 c 0
 233 606 208 630 178 630 c 0
EndSplineSet
EndChar

StartChar: onehalf
Encoding: 189 189 180
Width: 958
Flags: MW
HStem: 0 87<721 811 721 903> 265 90<122 163 279 320 122 163> 362 87<724.5 758> 687 20<185 279 279 279 561 658 658 658>
VStem: 163 116<355 613 613 613> 779 117<293 330.5> 811 92<87 132 0 132>
LayerCount: 2
Fore
SplineSet
185 707 m 1xda
 279 707 l 1
 279 355 l 1
 320 355 l 1
 320 265 l 1
 122 265 l 1
 122 355 l 1
 163 355 l 1
 163 613 l 1
 102 589 l 1
 102 678 l 1
 185 707 l 1xda
293 0 m 1
 561 707 l 1
 658 707 l 1
 391 0 l 1
 293 0 l 1
702 315 m 1xbc
 590 315 l 1
 593 352 602 449 746 449 c 0
 855 449 896 385 896 331 c 0xbc
 896 254 822 184 721 87 c 1
 811 87 l 1
 811 132 l 1
 903 132 l 1
 903 0 l 1xda
 584 0 l 1
 584 90 l 1
 674 168 779 262 779 324 c 0
 779 337 773 362 743 362 c 0
 706 362 703 328 702 315 c 1xbc
EndSplineSet
EndChar

StartChar: minus
Encoding: 8722 8722 181
Width: 667
Flags: MW
HStem: 227 127<0 667 0 667>
VStem: 0 667<227 354 227 354>
LayerCount: 2
Fore
SplineSet
667 354 m 1
 667 227 l 1
 0 227 l 1
 0 354 l 1
 667 354 l 1
EndSplineSet
EndChar

StartChar: Yacute
Encoding: 221 221 182
Width: 625
Flags: MW
HStem: 0 143<221 221 155 221> 562 143 776 135<270 388 230 469>
VStem: 0 50<563 563 563 706> 221 186<143 239 239 239> 241 53<563 563> 351 50<563 563 563 706> 572 48<563 563>
LayerCount: 2
Fore
SplineSet
0 562 m 1xf9
 0 706 l 1
 294 706 l 1
 294 562 l 1
 241 563 l 1
 319 379 l 1
 401 563 l 1xf7
 351 562 l 1
 351 706 l 1
 620 706 l 1
 620 562 l 1
 572 563 l 1
 407 240 l 1
 407 143 l 1
 475 144 l 1
 475 0 l 1
 155 0 l 1
 155 144 l 1
 221 143 l 1
 221 239 l 1
 50 563 l 1
 0 562 l 1xf9
270 911 m 1
 469 911 l 1
 388 776 l 1
 230 776 l 1
 270 911 l 1
EndSplineSet
EndChar

StartChar: twosuperior
Encoding: 178 178 183
Width: 417
Flags: MW
HStem: 265 87<179 270 179 362> 580 134<48 258 48 258> 627 87<182.5 216>
VStem: 48 112<580 580> 237 117<558 595.5> 270 92<352 397 265 397>
LayerCount: 2
Fore
SplineSet
160 580 m 1xf4
 48 580 l 1xd4
 50 599 53 632 73 661 c 0
 94 690 132 714 203 714 c 0
 313 714 354 650 354 596 c 0xb8
 354 519 280 449 179 352 c 1
 270 352 l 1
 270 397 l 1
 362 397 l 1
 362 265 l 1xa4
 42 265 l 1
 42 355 l 1
 132 433 237 527 237 589 c 0
 237 602 231 627 201 627 c 0xb8
 164 627 161 593 160 580 c 1xf4
EndSplineSet
EndChar

StartChar: Uacute
Encoding: 218 218 184
Width: 688
Flags: MW
HStem: -11 143<323.5 380 300.5 408.5> 562 143 776 135<302 420 262 501>
VStem: 75 185<264 563> 423 185<237.5 257 257 563>
LayerCount: 2
Fore
SplineSet
14 562 m 1
 14 706 l 1
 310 706 l 1
 310 562 l 1
 260 563 l 1
 260 238 l 2
 260 193 261 132 340 132 c 0
 420 132 422 184 423 215 c 1
 423 563 l 1
 373 562 l 1
 373 706 l 1
 673 706 l 1
 673 562 l 1
 608 563 l 1
 608 257 l 2
 608 218 607 179 594 140 c 0
 564 44 477 -11 340 -11 c 0
 307 -11 207 -10 139 59 c 0
 79 119 77 191 75 264 c 1
 75 563 l 1
 14 562 l 1
302 911 m 1
 501 911 l 1
 420 776 l 1
 262 776 l 1
 302 911 l 1
EndSplineSet
EndChar

StartChar: registered
Encoding: 174 174 185
Width: 833
Flags: MW
HStem: -3 32<327.5 508 327.5 517> 122 93<583.5 590 583.5 592> 128 56 337 73<382 405.5 382 406> 523 63<407 470> 677 32<326.5 510.5>
VStem: 61 32<262.5 442 262.5 455.5> 273 109<213 218 218 337 410 476> 505 113<466 490 440 496> 741 32<264 442>
LayerCount: 2
Fore
SplineSet
773 354 m 0xbf40
 773 156 618 -3 416 -3 c 0
 231 -3 61 143 61 353 c 0
 61 558 224 709 416 709 c 0
 622 709 773 547 773 354 c 0xbf40
416 29 m 0
 600 29 741 174 741 354 c 0
 741 530 603 677 418 677 c 0
 235 677 93 531 93 353 c 0
 93 172 239 29 416 29 c 0
609 268 m 1xdfc0
 659 260 l 1
 648 206 630 122 554 122 c 0xdfc0
 489 122 474 178 454 249 c 1
 436 319 430 337 382 337 c 1
 382 218 l 2
 382 191 383 191 433 184 c 1
 433 126 l 1
 398 127 369 128 333 128 c 0
 299 128 263 127 228 126 c 1
 228 184 l 1
 265 189 273 190 273 213 c 2xbf40
 273 490 l 1
 274 521 274 525 228 526 c 1
 228 587 l 1
 292 584 308 584 332 584 c 0
 348 584 432 586 451 586 c 0
 489 586 526 583 557 568 c 1
 595 548 618 511 618 469 c 0
 618 411 575 379 541 368 c 0
 537 367 519 362 514 361 c 1
 538 345 549 330 560 290 c 1
 569 253 l 2
 572 239 573 235 576 228 c 0
 577 224 580 215 587 215 c 0
 593 215 600 215 609 268 c 1xdfc0
382 476 m 2
 382 410 l 1
 429 410 437 410 451 412 c 0
 505 422 505 463 505 469 c 0
 505 523 451 523 432 523 c 0
 382 523 382 521 382 476 c 2
EndSplineSet
EndChar

StartChar: copyright
Encoding: 169 169 186
Width: 833
Flags: MW
HStem: -3 32<327 508 327 516> 124 24<397 502> 561 17 677 32<326.5 510>
VStem: 61 32<262 442 262 455.5> 178 165<367 413 367 434> 567 42<138 284> 741 32<264 442.5>
LayerCount: 2
Fore
SplineSet
773 354 m 0
 773 156 617 -3 415 -3 c 0
 230 -3 61 142 61 353 c 0
 61 558 224 709 416 709 c 0
 621 709 773 548 773 354 c 0
416 29 m 0
 600 29 741 174 741 354 c 0
 741 531 602 677 418 677 c 0
 235 677 93 531 93 353 c 0
 93 171 238 29 416 29 c 0
567 284 m 1
 609 284 l 1
 609 138 l 1
 603 137 551 132 540 131 c 0
 447 125 440 124 410 124 c 0
 384 124 292 124 237 179 c 0
 201 215 178 282 178 368 c 0
 178 500 238 584 416 584 c 0
 436 584 532 578 553 578 c 0
 572 578 590 578 608 579 c 1
 608 501 609 477 610 411 c 1
 568 411 l 1
 557 475 542 561 450 561 c 0
 344 561 343 445 343 381 c 0
 343 353 344 325 347 297 c 0
 362 169 412 148 462 148 c 0
 542 148 560 208 567 284 c 1
EndSplineSet
EndChar

StartChar: Ecircumflex
Encoding: 202 202 187
Width: 604
Flags: MW
HStem: 0 143<84 84 270 420 20 84> 299 143<270 396 270 396> 563 143<84 84 270 420 270 270> 776 135<142 413 191 251 354 354 354 413 191 462>
VStem: 84 186<143 299 442 563> 420 151<143 268 0 268 455 563 563 563>
LayerCount: 2
Fore
SplineSet
20 562 m 1
 20 706 l 1
 571 706 l 1
 571 455 l 1
 420 455 l 1
 420 563 l 1
 270 563 l 1
 270 442 l 1
 396 442 l 1
 396 299 l 1
 270 299 l 1
 270 143 l 1
 420 143 l 1
 420 268 l 1
 571 268 l 1
 571 0 l 1
 20 0 l 1
 20 144 l 1
 84 143 l 1
 84 563 l 1
 20 562 l 1
142 776 m 1
 191 911 l 1
 413 911 l 1
 462 776 l 1
 354 776 l 1
 302 865 l 1
 251 776 l 1
 142 776 l 1
EndSplineSet
EndChar

StartChar: trademark
Encoding: 8482 8482 188
Width: 771
Flags: MW
HStem: 376 42 661 44<114.5 199.5 152.5 238> 663 44<338 343>
VStem: 137 78<460 661> 369 57<459 571> 618 76<459 569 569 569>
LayerCount: 2
Fore
SplineSet
505 375 m 1xdc
 426 571 l 1
 426 459 l 2
 426 432 426 429 430 425 c 0
 435 419 446 418 464 417 c 1
 464 374 l 1
 443 375 422 375 400 375 c 0
 378 375 356 375 334 374 c 1
 334 416 l 1
 359 421 360 421 364 426 c 0
 368 432 368 434 369 459 c 1
 369 657 l 1
 361 664 348 663 338 663 c 1xbc
 338 707 l 1
 357 706 375 705 393 705 c 0
 410 705 427 706 444 707 c 1xdc
 533 485 l 1
 625 706 l 1
 673 705 688 705 731 707 c 1
 731 663 l 1
 705 662 702 662 698 656 c 0
 694 651 694 647 694 617 c 2xbc
 694 440 l 2
 694 421 697 420 725 417 c 1
 725 374 l 1
 702 375 679 376 655 376 c 0
 632 376 610 375 587 374 c 1
 587 417 l 1
 589 417 603 418 606 419 c 0
 618 423 618 426 618 459 c 2
 618 569 l 1
 539 375 l 1
 505 375 l 1xdc
73 610 m 1xdc
 28 610 l 1
 32 652 32 667 33 706 c 1
 81 706 129 705 176 705 c 0
 223 705 271 706 319 706 c 1
 320 664 321 655 324 610 c 1
 279 610 l 1
 263 661 261 661 215 661 c 1
 215 439 l 2
 215 421 221 420 259 418 c 1
 259 374 l 1
 231 375 206 376 176 376 c 0
 151 376 125 376 93 374 c 1
 93 418 l 1
 118 420 125 420 130 423 c 0
 138 429 138 442 137 460 c 1
 137 661 l 1
 92 661 89 661 73 610 c 1xdc
EndSplineSet
EndChar

StartChar: plusminus
Encoding: 177 177 189
Width: 667
Flags: MW
HStem: 0 127<42 625 42 625> 371 127<42 271 42 271 398 625> 686 20<271 398 398 398>
VStem: 271 127<162 371 162 371 498 706>
LayerCount: 2
Fore
SplineSet
398 371 m 1
 398 162 l 1
 271 162 l 1
 271 371 l 1
 42 371 l 1
 42 498 l 1
 271 498 l 1
 271 706 l 1
 398 706 l 1
 398 498 l 1
 625 498 l 1
 625 371 l 1
 398 371 l 1
625 127 m 1
 625 0 l 1
 42 0 l 1
 42 127 l 1
 625 127 l 1
EndSplineSet
EndChar

StartChar: Eth
Encoding: 208 208 190
Width: 688
Flags: MW
HStem: 0 144<271 300 21 21> 312 116<21 85 21 85 271 368> 562 144<21 329 271 271>
VStem: 85 186<144 312 144 312 144 312 428 562> 462 190<342.5 407.5>
LayerCount: 2
Fore
SplineSet
85 143 m 1
 85 312 l 1
 21 312 l 1
 21 428 l 1
 85 428 l 1
 85 563 l 1
 21 562 l 1
 21 706 l 1
 329 706 l 1
 398 703 430 700 460 693 c 0
 586 662 652 535 652 360 c 0
 652 325 649 290 644 255 c 0
 637 210 622 132 565 76 c 0
 492 4 396 2 328 0 c 1
 21 0 l 1
 21 144 l 1
 85 143 l 1
271 562 m 1
 271 428 l 1
 368 428 l 1
 368 312 l 1
 271 312 l 1
 271 144 l 1
 329 144 361 144 389 158 c 0
 460 195 462 309 462 356 c 0
 462 459 440 504 423 524 c 0
 392 561 349 564 271 562 c 1
EndSplineSet
EndChar

StartChar: Adieresis
Encoding: 196 196 191
Width: 688
Flags: MW
HStem: 0 143<50 50 3 50> 224 140<275 389 275 422 241 389> 562 143 580 126<333 333> 777 134<169 319 169 319 363 513 169 363>
VStem: 3 285<0 144 0 144> 131 52<563 563 563 706> 169 150<777 911 777 911> 363 150<777 911 777 911> 380 64<143 143 143 144 143 144> 508 52<563 563> 632 51<143 143>
LayerCount: 2
Fore
SplineSet
131 562 m 1xe990
 131 706 l 1
 560 706 l 1
 560 562 l 1xe990
 508 563 l 1
 632 143 l 1
 683 144 l 1
 683 0 l 1
 380 0 l 1
 380 144 l 1
 444 143 l 1
 422 224 l 1
 241 224 l 1
 219 143 l 1
 288 144 l 1
 288 0 l 1
 3 0 l 1
 3 144 l 1
 50 143 l 1xec70
 183 563 l 1xea90
 131 562 l 1xe990
389 364 m 1
 333 580 l 1xd990
 275 364 l 1
 389 364 l 1
513 777 m 1
 363 777 l 1
 363 911 l 1
 513 911 l 1
 513 777 l 1
319 777 m 1
 169 777 l 1
 169 911 l 1
 319 911 l 1
 319 777 l 1
EndSplineSet
EndChar

StartChar: Aring
Encoding: 197 197 192
Width: 688
Flags: MW
HStem: 0 143<50 50 3 50> 224 140<275 389 275 422 241 389> 562 143 580 126<333 333> 751 64<333.5 350.5 333.5 371> 877 64<333.5 351>
VStem: 3 285<0 144 0 144> 131 52<563 563 563 706> 242 69<837 854.5 837 870> 373 69<837.5 854> 380 64<143 143 143 144 143 144> 508 52<563 563> 632 51<143 143>
LayerCount: 2
Fore
SplineSet
131 562 m 1xedd8
 131 706 l 1xedd8
 560 706 l 1
 560 562 l 1
 508 563 l 1
 632 143 l 1
 683 144 l 1
 683 0 l 1
 380 0 l 1
 380 144 l 1
 444 143 l 1
 422 224 l 1
 241 224 l 1
 219 143 l 1
 288 144 l 1
 288 0 l 1
 3 0 l 1
 3 144 l 1
 50 143 l 1xee38
 183 563 l 1
 131 562 l 1xedd8
389 364 m 1
 333 580 l 1xddd8
 275 364 l 1
 389 364 l 1
311 846 m 0
 311 828 325 815 342 815 c 0
 359 815 373 829 373 846 c 0
 373 862 360 877 342 877 c 0
 325 877 311 863 311 846 c 0
342 751 m 0
 283 751 242 798 242 846 c 0
 242 894 283 941 342 941 c 0
 400 941 442 895 442 846 c 0
 442 797 400 751 342 751 c 0
EndSplineSet
EndChar

StartChar: Ydieresis
Encoding: 376 376 193
Width: 625
Flags: MW
HStem: 0 143<221 221 155 221> 562 143 777 134<140 290 140 290 334 484 140 334>
VStem: 0 50<563 563 563 706> 140 150<777 911 777 911> 221 186<143 239 239 239> 241 53<563 563> 334 150<777 911 777 911> 572 48<563 563>
LayerCount: 2
Fore
SplineSet
0 562 m 1xf480
 0 706 l 1
 294 706 l 1
 294 562 l 1xf980
 241 563 l 1
 319 379 l 1
 401 563 l 1
 351 562 l 1
 351 706 l 1xf380
 620 706 l 1
 620 562 l 1
 572 563 l 1
 407 240 l 1
 407 143 l 1
 475 144 l 1
 475 0 l 1
 155 0 l 1
 155 144 l 1
 221 143 l 1
 221 239 l 1
 50 563 l 1
 0 562 l 1xf480
484 777 m 1
 334 777 l 1
 334 911 l 1
 484 911 l 1
 484 777 l 1
290 777 m 1
 140 777 l 1
 140 911 l 1
 290 911 l 1
 290 777 l 1
EndSplineSet
EndChar

StartChar: divide
Encoding: 247 247 194
Width: 667
Flags: MW
HStem: 31 161 227 127<0 667 0 667> 389 161
VStem: 252 161
LayerCount: 2
Fore
SplineSet
252 111 m 0
 252 174 320 211 373 181 c 0
 442 142 419 31 333 31 c 0
 288 31 252 64 252 111 c 0
252 469 m 0
 252 533 320 569 373 539 c 0
 442 501 419 389 333 389 c 0
 289 389 252 421 252 469 c 0
667 354 m 1
 667 227 l 1
 0 227 l 1
 0 354 l 1
 667 354 l 1
EndSplineSet
EndChar

StartChar: onesuperior
Encoding: 185 185 195
Width: 417
Flags: MW
HStem: 265 90<122 163 279 320 122 163> 687 20<185 279 279 279>
VStem: 163 116<355 613 613 613>
LayerCount: 2
Fore
SplineSet
185 707 m 1
 279 707 l 1
 279 355 l 1
 320 355 l 1
 320 265 l 1
 122 265 l 1
 122 355 l 1
 163 355 l 1
 163 613 l 1
 102 589 l 1
 102 678 l 1
 185 707 l 1
EndSplineSet
EndChar

StartChar: threesuperior
Encoding: 179 179 196
Width: 417
Flags: MW
HStem: 258 87<180 224.5 177.5 245.5> 454 42 454 76<153 170.5> 496 34 583 132<41 238.5> 628 87<189 205.5>
VStem: 41 109<583 587.5> 239 115<568.5 598.5> 254 116<393 405 340.5 430.5>
LayerCount: 2
Fore
SplineSet
150 583 m 1xab
 41 583 l 1
 43 600 48 643 79 674 c 0
 104 698 147 715 202 715 c 0
 275 715 354 683 354 592 c 0
 354 545 328 508 273 498 c 0x9b
 268 497 263 496 259 496 c 1
 266 495 273 494 281 493 c 0xcb
 291 491 301 488 310 484 c 0xca80
 355 464 370 424 370 386 c 0
 370 295 287 258 204 258 c 0
 156 258 107 270 73 303 c 1
 35 342 32 381 31 400 c 1
 145 400 l 1
 147 386 151 345 204 345 c 0
 245 345 254 383 254 403 c 0xaa80
 254 458 195 456 153 454 c 1
 153 530 l 1
 188 530 239 530 239 583 c 0
 239 614 216 628 195 628 c 0
 183 628 169 623 161 615 c 0xa7
 151 605 150 592 150 583 c 1xab
EndSplineSet
EndChar

StartChar: Egrave
Encoding: 200 200 197
Width: 604
Flags: MW
HStem: 0 143<84 84 270 420 20 84> 299 143<270 396 270 396> 563 143<84 84 270 420 270 270> 776 135<223 223 223 340 141 380>
VStem: 84 186<143 299 442 563> 420 151<143 268 0 268 455 563 563 563>
LayerCount: 2
Fore
SplineSet
20 562 m 1
 20 706 l 1
 571 706 l 1
 571 455 l 1
 420 455 l 1
 420 563 l 1
 270 563 l 1
 270 442 l 1
 396 442 l 1
 396 299 l 1
 270 299 l 1
 270 143 l 1
 420 143 l 1
 420 268 l 1
 571 268 l 1
 571 0 l 1
 20 0 l 1
 20 144 l 1
 84 143 l 1
 84 563 l 1
 20 562 l 1
223 776 m 1
 141 911 l 1
 340 911 l 1
 380 776 l 1
 223 776 l 1
EndSplineSet
EndChar

StartChar: Idieresis
Encoding: 207 207 198
Width: 354
Flags: MW
HStem: 0 143<83 83 18 83> 562 143 777 134<5 155 5 155 199 349 5 199>
VStem: 5 150<777 911 777 911> 83 187<143 563 143 563> 199 150<777 911 777 911>
LayerCount: 2
Fore
SplineSet
18 562 m 1xf8
 18 706 l 1
 334 706 l 1
 334 562 l 1xf4
 270 563 l 1
 270 143 l 1
 334 144 l 1
 334 0 l 1
 18 0 l 1
 18 144 l 1
 83 143 l 1
 83 563 l 1xe8
 18 562 l 1xf8
349 777 m 1
 199 777 l 1
 199 911 l 1
 349 911 l 1
 349 777 l 1
155 777 m 1
 5 777 l 1
 5 911 l 1
 155 911 l 1
 155 777 l 1
EndSplineSet
EndChar

StartChar: Scaron
Encoding: 352 352 199
Width: 583
Flags: MW
HStem: -9 136<289 311 289 406.5> 0 247<39 176 39 183> 468 238<406 543 406 543 396 543> 585 131<272 278.5 237.5 302.5> 776 135<191 251 354 413 191 191>
VStem: 36 185<510.5 537.5 510.5 542> 39 139 367 189<174 221> 404 139
LayerCount: 2
Fore
SplineSet
39 247 m 1xea80
 183 247 l 1x6a80
 188 217 203 128 289 127 c 0
 333 127 367 155 367 193 c 0xab
 367 249 296 273 255 287 c 0
 225 297 195 307 166 320 c 0
 132 335 36 381 36 507 c 0
 36 577 66 626 95 655 c 0
 156 716 225 716 250 716 c 0
 307 716 356 702 402 651 c 1x9c80
 406 706 l 1
 543 706 l 1
 543 468 l 1
 396 468 l 1xaa80
 392 497 387 531 360 558 c 0
 336 583 310 585 295 585 c 0
 249 585 221 554 221 521 c 0
 221 500 230 484 239 475 c 0x9c80
 255 458 278 450 350 423 c 0
 446 387 556 346 556 199 c 0
 556 89 484 -9 329 -9 c 0
 230 -9 196 38 180 59 c 1xab
 176 0 l 1
 39 0 l 1
 39 247 l 1xea80
413 776 m 1
 191 776 l 1
 142 911 l 1
 251 911 l 1
 302 822 l 1
 354 911 l 1
 462 911 l 1
 413 776 l 1
EndSplineSet
EndChar

StartChar: Icircumflex
Encoding: 206 206 200
Width: 354
Flags: MW
HStem: 0 143<83 83 18 83> 562 143 776 135<17 288 66 126 229 229 229 288 66 337>
VStem: 83 187<143 563 143 563>
LayerCount: 2
Fore
SplineSet
18 562 m 1
 18 706 l 1
 334 706 l 1
 334 562 l 1
 270 563 l 1
 270 143 l 1
 334 144 l 1
 334 0 l 1
 18 0 l 1
 18 144 l 1
 83 143 l 1
 83 563 l 1
 18 562 l 1
17 776 m 1
 66 911 l 1
 288 911 l 1
 337 776 l 1
 229 776 l 1
 177 865 l 1
 126 776 l 1
 17 776 l 1
EndSplineSet
EndChar

StartChar: aacute
Encoding: 225 225 201
Width: 562
Flags: MW
HStem: -12 21<131.5 223> 0 108<245.5 541 245.5 325> 0 144<498 541 498 541> 230 91<316 316> 350 181<45 300> 414 117<262 271.5> 591 135<239 357 199 438>
VStem: 27 187<144.5 156> 45 175<350 358> 199 239<591 726> 316 182<180 230 230 230 321 342>
LayerCount: 2
Fore
SplineSet
498 144 m 1x28a0
 541 144 l 1
 541 0 l 1
 325 0 l 1x28a0
 321 60 l 1
 306 39 268 -12 178 -12 c 0
 85 -12 27 43 27 143 c 0
 27 169 30 236 97 281 c 0x9920
 163 326 266 322 316 321 c 1
 316 363 316 367 314 376 c 0
 306 414 274 414 269 414 c 0
 255 414 242 408 235 400 c 0x34a0
 221 386 220 366 220 350 c 1
 45 350 l 1
 47 376 48 405 63 434 c 0
 100 509 194 531 266 531 c 0
 334 531 412 511 455 467 c 0
 494 428 498 382 498 345 c 2
 498 144 l 1x28a0
316 180 m 1x5920
 316 230 l 1
 297 231 278 232 260 226 c 0
 223 215 214 185 214 162 c 0
 214 127 232 108 259 108 c 0
 271 108 291 112 304 133 c 0
 314 148 315 166 316 180 c 1x5920
239 726 m 1x0240
 438 726 l 1
 357 591 l 1
 199 591 l 1
 239 726 l 1x0240
EndSplineSet
EndChar

StartChar: acircumflex
Encoding: 226 226 202
Width: 562
Flags: MW
HStem: -12 21<131.5 223> 0 108<245.5 541 245.5 325> 0 144<498 541 498 541> 230 91<316 316> 350 181<45 300> 414 117<262 271.5> 591 135<121 392 170 230 333 333 333 392 170 441> 680 46<281 281>
VStem: 27 187<144.5 156> 45 175<350 358> 121 320<591 591> 316 182<180 230 230 230 321 342>
LayerCount: 2
Fore
SplineSet
498 144 m 1x2850
 541 144 l 1
 541 0 l 1
 325 0 l 1x2850
 321 60 l 1
 306 39 268 -12 178 -12 c 0
 85 -12 27 43 27 143 c 0
 27 169 30 236 97 281 c 0x9890
 163 326 266 322 316 321 c 1
 316 363 316 367 314 376 c 0
 306 414 274 414 269 414 c 0
 255 414 242 408 235 400 c 0x3450
 221 386 220 366 220 350 c 1
 45 350 l 1
 47 376 48 405 63 434 c 0
 100 509 194 531 266 531 c 0
 334 531 412 511 455 467 c 0
 494 428 498 382 498 345 c 2
 498 144 l 1x2850
316 180 m 1x5890
 316 230 l 1
 297 231 278 232 260 226 c 0
 223 215 214 185 214 162 c 0
 214 127 232 108 259 108 c 0
 271 108 291 112 304 133 c 0
 314 148 315 166 316 180 c 1x5890
121 591 m 1x0220
 170 726 l 1
 392 726 l 1
 441 591 l 1
 333 591 l 1x0220
 281 680 l 1x0120
 230 591 l 1
 121 591 l 1x0220
EndSplineSet
EndChar

StartChar: adieresis
Encoding: 228 228 203
Width: 562
Flags: MW
HStem: -12 21<131.5 223> 0 108<245.5 541 245.5 325> 0 144<498 541 498 541> 230 91<316 316> 350 181<45 300> 414 117<262 271.5> 592 134<101 251 101 251 295 445 101 295>
VStem: 27 187<144.5 156> 45 175<350 358> 101 150<592 726 592 726> 295 150<592 726 592 726> 316 182<180 230 230 230 321 342>
LayerCount: 2
Fore
SplineSet
498 144 m 1x2890
 541 144 l 1
 541 0 l 1
 325 0 l 1x2890
 321 60 l 1
 306 39 268 -12 178 -12 c 0
 85 -12 27 43 27 143 c 0
 27 169 30 236 97 281 c 0x9910
 163 326 266 322 316 321 c 1
 316 363 316 367 314 376 c 0
 306 414 274 414 269 414 c 0
 255 414 242 408 235 400 c 0x3490
 221 386 220 366 220 350 c 1
 45 350 l 1
 47 376 48 405 63 434 c 0
 100 509 194 531 266 531 c 0
 334 531 412 511 455 467 c 0
 494 428 498 382 498 345 c 2
 498 144 l 1x2890
316 180 m 1x5910
 316 230 l 1
 297 231 278 232 260 226 c 0
 223 215 214 185 214 162 c 0
 214 127 232 108 259 108 c 0
 271 108 291 112 304 133 c 0
 314 148 315 166 316 180 c 1x5910
445 592 m 1x0260
 295 592 l 1
 295 726 l 1
 445 726 l 1
 445 592 l 1x0260
251 592 m 1
 101 592 l 1
 101 726 l 1
 251 726 l 1
 251 592 l 1
EndSplineSet
EndChar

StartChar: agrave
Encoding: 224 224 204
Width: 562
Flags: MW
HStem: -12 21<131.5 223> 0 108<245.5 541 245.5 325> 0 144<498 541 498 541> 230 91<316 316> 350 181<45 300> 414 117<262 271.5> 591 135<202 202 202 319 120 359>
VStem: 27 187<144.5 156> 45 175<350 358> 120 239<591 726> 316 182<180 230 230 230 321 342>
LayerCount: 2
Fore
SplineSet
498 144 m 1x28a0
 541 144 l 1
 541 0 l 1
 325 0 l 1x28a0
 321 60 l 1
 306 39 268 -12 178 -12 c 0
 85 -12 27 43 27 143 c 0
 27 169 30 236 97 281 c 0x9920
 163 326 266 322 316 321 c 1
 316 363 316 367 314 376 c 0
 306 414 274 414 269 414 c 0
 255 414 242 408 235 400 c 0x34a0
 221 386 220 366 220 350 c 1
 45 350 l 1
 47 376 48 405 63 434 c 0
 100 509 194 531 266 531 c 0
 334 531 412 511 455 467 c 0
 494 428 498 382 498 345 c 2
 498 144 l 1x28a0
316 180 m 1x5920
 316 230 l 1
 297 231 278 232 260 226 c 0
 223 215 214 185 214 162 c 0
 214 127 232 108 259 108 c 0
 271 108 291 112 304 133 c 0
 314 148 315 166 316 180 c 1x5920
202 591 m 1x0240
 120 726 l 1
 319 726 l 1
 359 591 l 1
 202 591 l 1x0240
EndSplineSet
EndChar

StartChar: aring
Encoding: 229 229 205
Width: 562
Flags: MW
HStem: -12 21<131.5 223> 0 108<245.5 541 245.5 325> 0 144<498 541 498 541> 230 91<316 316> 350 181<45 300> 414 117<262 271.5> 569 64<264 281 264 302> 695 64<263.5 281.5>
VStem: 27 187<144.5 156> 45 175<350 358> 172 69<655 672.5 655 688> 304 69<655.5 672> 316 182<180 230 230 230 321 342>
LayerCount: 2
Fore
SplineSet
498 144 m 1x2848
 541 144 l 1
 541 0 l 1
 325 0 l 1x2848
 321 60 l 1
 306 39 268 -12 178 -12 c 0
 85 -12 27 43 27 143 c 0
 27 169 30 236 97 281 c 0x9888
 163 326 266 322 316 321 c 1
 316 363 316 367 314 376 c 0
 306 414 274 414 269 414 c 0
 255 414 242 408 235 400 c 0x3448
 221 386 220 366 220 350 c 1
 45 350 l 1
 47 376 48 405 63 434 c 0
 100 509 194 531 266 531 c 0
 334 531 412 511 455 467 c 0
 494 428 498 382 498 345 c 2
 498 144 l 1x2848
316 180 m 1x5888
 316 230 l 1
 297 231 278 232 260 226 c 0
 223 215 214 185 214 162 c 0
 214 127 232 108 259 108 c 0
 271 108 291 112 304 133 c 0
 314 148 315 166 316 180 c 1x5888
241 664 m 0x0330
 241 646 256 633 272 633 c 0
 290 633 304 647 304 664 c 0
 304 680 291 695 272 695 c 0
 255 695 241 681 241 664 c 0x0330
273 569 m 0
 213 569 172 616 172 664 c 0
 172 712 213 759 273 759 c 0
 331 759 373 713 373 664 c 0
 373 615 331 569 273 569 c 0
EndSplineSet
EndChar

StartChar: atilde
Encoding: 227 227 206
Width: 562
Flags: MW
HStem: -12 21<131.5 223> 0 108<245.5 541 245.5 325> 0 144<498 541 498 541> 230 91<316 316> 350 181<45 300> 414 117<262 271.5> 572 105<317.5 403> 572 144<348 403> 580 145<186 214 121 215.5>
VStem: 27 187<144.5 156> 45 175<350 358> 121 93<580 586> 316 182<180 230 230 230 321 342> 348 93<716 716>
LayerCount: 2
Fore
SplineSet
498 144 m 1x2828
 541 144 l 1
 541 0 l 1
 325 0 l 1x2828
 321 60 l 1
 306 39 268 -12 178 -12 c 0
 85 -12 27 43 27 143 c 0
 27 169 30 236 97 281 c 0x9848
 163 326 266 322 316 321 c 1
 316 363 316 367 314 376 c 0
 306 414 274 414 269 414 c 0
 255 414 242 408 235 400 c 0x3428
 221 386 220 366 220 350 c 1
 45 350 l 1
 47 376 48 405 63 434 c 0
 100 509 194 531 266 531 c 0
 334 531 412 511 455 467 c 0
 494 428 498 382 498 345 c 2
 498 144 l 1x2828
316 180 m 1x5848
 316 230 l 1
 297 231 278 232 260 226 c 0
 223 215 214 185 214 162 c 0
 214 127 232 108 259 108 c 0
 271 108 291 112 304 133 c 0
 314 148 315 166 316 180 c 1x5848
348 716 m 1x0114
 441 716 l 1
 442 690 445 572 361 572 c 0
 332 572 299 590 266 608 c 0
 257 612 248 617 239 617 c 0x0114
 215 617 214 592 214 580 c 1
 121 580 l 1
 121 610 120 647 133 677 c 0
 145 706 170 725 202 725 c 0x0094
 229 725 254 710 298 686 c 0
 306 682 313 677 322 677 c 0x0214
 344 677 347 702 348 716 c 1x0114
EndSplineSet
EndChar

StartChar: eacute
Encoding: 233 233 207
Width: 562
Flags: MW
HStem: -12 125<251.5 311 251.5 319.5> 224 98<223 348 223 533 218 348> 401 129<255 296.5> 591 135<250 368 210 449>
VStem: 28 190<204 224 204 271.5> 210 239<591 726> 348 185<178 224 224 328.5>
LayerCount: 2
Fore
SplineSet
348 178 m 1xea
 526 178 l 1
 519 141 510 92 464 48 c 0
 417 4 352 -12 287 -12 c 0
 149 -12 28 55 28 257 c 0
 28 286 30 323 42 361 c 0
 77 480 174 530 280 530 c 0
 360 530 425 502 462 464 c 1
 538 390 534 270 533 224 c 1
 218 224 l 1
 218 184 219 113 284 113 c 0
 338 113 345 159 348 178 c 1xea
223 322 m 1
 348 322 l 1
 348 335 348 349 343 363 c 0
 333 391 308 401 285 401 c 0
 225 401 223 343 223 322 c 1
250 726 m 1x14
 449 726 l 1
 368 591 l 1
 210 591 l 1
 250 726 l 1x14
EndSplineSet
EndChar

StartChar: ecircumflex
Encoding: 234 234 208
Width: 562
Flags: MW
HStem: -12 125<251.5 311 251.5 319.5> 224 98<223 348 223 533 218 348> 401 129<255 296.5> 591 135<132 403 181 241 344 344 344 403 181 452> 680 46<292 292>
VStem: 28 190<204 224 204 271.5> 132 320<591 591> 348 185<178 224 224 328.5>
LayerCount: 2
Fore
SplineSet
348 178 m 1xe5
 526 178 l 1
 519 141 510 92 464 48 c 0
 417 4 352 -12 287 -12 c 0
 149 -12 28 55 28 257 c 0
 28 286 30 323 42 361 c 0
 77 480 174 530 280 530 c 0
 360 530 425 502 462 464 c 1
 538 390 534 270 533 224 c 1
 218 224 l 1
 218 184 219 113 284 113 c 0
 338 113 345 159 348 178 c 1xe5
223 322 m 1
 348 322 l 1
 348 335 348 349 343 363 c 0
 333 391 308 401 285 401 c 0
 225 401 223 343 223 322 c 1
132 591 m 1x12
 181 726 l 1
 403 726 l 1
 452 591 l 1
 344 591 l 1x12
 292 680 l 1x0a
 241 591 l 1
 132 591 l 1x12
EndSplineSet
EndChar

StartChar: edieresis
Encoding: 235 235 209
Width: 562
Flags: MW
HStem: -12 125<251.5 311 251.5 319.5> 224 98<223 348 223 533 218 348> 401 129<255 296.5> 592 134<120 270 120 270 314 464 120 314>
VStem: 28 190<204 224 204 271.5> 120 150<592 726 592 726> 314 150<592 726 592 726> 348 185<178 224 224 328.5>
LayerCount: 2
Fore
SplineSet
348 178 m 1xe9
 526 178 l 1
 519 141 510 92 464 48 c 0
 417 4 352 -12 287 -12 c 0
 149 -12 28 55 28 257 c 0
 28 286 30 323 42 361 c 0
 77 480 174 530 280 530 c 0
 360 530 425 502 462 464 c 1
 538 390 534 270 533 224 c 1
 218 224 l 1
 218 184 219 113 284 113 c 0
 338 113 345 159 348 178 c 1xe9
223 322 m 1
 348 322 l 1
 348 335 348 349 343 363 c 0
 333 391 308 401 285 401 c 0
 225 401 223 343 223 322 c 1
464 592 m 1x16
 314 592 l 1
 314 726 l 1
 464 726 l 1
 464 592 l 1x16
270 592 m 1
 120 592 l 1
 120 726 l 1
 270 726 l 1
 270 592 l 1
EndSplineSet
EndChar

StartChar: egrave
Encoding: 232 232 210
Width: 562
Flags: MW
HStem: -12 125<251.5 311 251.5 319.5> 224 98<223 348 223 533 218 348> 401 129<255 296.5> 591 135<213 213 213 330 131 370>
VStem: 28 190<204 224 204 271.5> 131 239<591 726> 348 185<178 224 224 328.5>
LayerCount: 2
Fore
SplineSet
348 178 m 1xea
 526 178 l 1
 519 141 510 92 464 48 c 0
 417 4 352 -12 287 -12 c 0
 149 -12 28 55 28 257 c 0
 28 286 30 323 42 361 c 0
 77 480 174 530 280 530 c 0
 360 530 425 502 462 464 c 1
 538 390 534 270 533 224 c 1
 218 224 l 1
 218 184 219 113 284 113 c 0
 338 113 345 159 348 178 c 1xea
223 322 m 1
 348 322 l 1
 348 335 348 349 343 363 c 0
 333 391 308 401 285 401 c 0
 225 401 223 343 223 322 c 1
213 591 m 1x14
 131 726 l 1
 330 726 l 1
 370 591 l 1
 213 591 l 1x14
EndSplineSet
EndChar

StartChar: iacute
Encoding: 237 237 211
Width: 313
Flags: MW
HStem: 0 144<24 67 253 297 24 67> 374 144<24 67 24 253> 591 135<115 233 75 314>
VStem: 67 186<144 374 374 374> 75 239<591 726>
LayerCount: 2
Fore
SplineSet
24 518 m 1xd0
 253 518 l 1
 253 144 l 1
 297 144 l 1
 297 0 l 1
 24 0 l 1
 24 144 l 1
 67 144 l 1
 67 374 l 1
 24 374 l 1
 24 518 l 1xd0
115 726 m 1x28
 314 726 l 1
 233 591 l 1
 75 591 l 1
 115 726 l 1x28
EndSplineSet
EndChar

StartChar: icircumflex
Encoding: 238 238 212
Width: 313
Flags: MW
HStem: 0 144<24 67 253 297 24 67> 374 144<24 67 24 253> 591 135<-3 268 46 106 209 209 209 268 46 317> 680 46<157 157>
VStem: -3 320<591 591> 67 186<144 374 374 374>
LayerCount: 2
Fore
SplineSet
24 518 m 1xc4
 253 518 l 1
 253 144 l 1
 297 144 l 1
 297 0 l 1
 24 0 l 1
 24 144 l 1
 67 144 l 1
 67 374 l 1
 24 374 l 1
 24 518 l 1xc4
-3 591 m 1x28
 46 726 l 1
 268 726 l 1
 317 591 l 1
 209 591 l 1x28
 157 680 l 1x18
 106 591 l 1
 -3 591 l 1x28
EndSplineSet
EndChar

StartChar: idieresis
Encoding: 239 239 213
Width: 313
Flags: MW
HStem: 0 144<24 67 253 297 24 67> 374 144<24 67 24 253> 592 134<-15 135 -15 135 179 329 -15 179>
VStem: -15 150<592 726 592 726> 67 186<144 374 374 374> 179 150<592 726 592 726>
LayerCount: 2
Fore
SplineSet
24 518 m 1xc8
 253 518 l 1
 253 144 l 1
 297 144 l 1
 297 0 l 1
 24 0 l 1
 24 144 l 1
 67 144 l 1
 67 374 l 1
 24 374 l 1
 24 518 l 1xc8
329 592 m 1x34
 179 592 l 1
 179 726 l 1
 329 726 l 1
 329 592 l 1x34
135 592 m 1
 -15 592 l 1
 -15 726 l 1
 135 726 l 1
 135 592 l 1
EndSplineSet
EndChar

StartChar: igrave
Encoding: 236 236 214
Width: 313
Flags: MW
HStem: 0 144<24 67 253 297 24 67> 374 144<24 67 24 253> 591 135<78 78 78 195 -4 235>
VStem: -4 239<591 726> 67 186<144 374 374 374>
LayerCount: 2
Fore
SplineSet
24 518 m 1xc8
 253 518 l 1
 253 144 l 1
 297 144 l 1
 297 0 l 1
 24 0 l 1
 24 144 l 1
 67 144 l 1
 67 374 l 1
 24 374 l 1
 24 518 l 1xc8
78 591 m 1x30
 -4 726 l 1
 195 726 l 1
 235 591 l 1
 78 591 l 1x30
EndSplineSet
EndChar

StartChar: ntilde
Encoding: 241 241 215
Width: 604
Flags: MW
HStem: 0 144<26 68 253 288 26 68 544 587> 374 144<26 68 26 231> 512 20<370 426> 572 105<338.5 424> 572 144<369 424> 580 145<207 235 142 236.5>
VStem: 26 208 68 185<144 284 144 374 144 374> 142 93<580 586 580 595> 358 186<144 305 305 313.5> 369 93<716 716>
LayerCount: 2
Fore
SplineSet
544 380 m 1xc140
 544 144 l 1
 587 144 l 1
 587 0 l 1
 358 0 l 1
 358 305 l 2
 358 322 357 334 354 343 c 0
 346 364 326 370 311 370 c 0
 296 370 283 364 273 354 c 0
 255 336 254 313 253 284 c 1
 253 144 l 1
 288 144 l 1
 288 0 l 1
 26 0 l 1
 26 144 l 1
 68 144 l 1
 68 374 l 1xc140
 26 374 l 1
 26 518 l 1
 231 518 l 1
 237 439 l 1xc240
 245 453 252 466 268 481 c 0
 297 510 341 532 399 532 c 0
 453 532 489 512 508 492 c 0xa240
 542 458 543 416 544 380 c 1xc140
369 716 m 1x08a0
 462 716 l 1
 463 690 466 572 382 572 c 0
 353 572 320 590 287 608 c 0
 278 612 269 617 260 617 c 0x08a0
 236 617 235 592 235 580 c 1
 142 580 l 1
 142 610 141 647 154 677 c 0
 166 706 191 725 223 725 c 0x04a0
 250 725 275 710 319 686 c 0
 327 682 334 677 343 677 c 0x10a0
 365 677 368 702 369 716 c 1x08a0
EndSplineSet
EndChar

StartChar: oacute
Encoding: 243 243 216
Width: 583
Flags: MW
HStem: -13 144<278 311.5> 390 139<279.5 326> 591 135<251 369 211 450>
VStem: 26 188<246 275 246 285> 211 239<591 726> 363 190<244.5 278>
LayerCount: 2
Fore
SplineSet
26 264 m 0xd4
 26 306 26 434 146 497 c 0
 194 523 244 529 289 529 c 0
 467 529 553 421 553 257 c 0
 553 218 548 179 536 142 c 0
 510 66 467 32 425 13 c 0
 383 -6 333 -13 290 -13 c 0
 266 -13 242 -11 219 -7 c 0
 177 1 136 14 99 51 c 0
 28 121 26 218 26 264 c 0xd4
363 262 m 0
 363 294 363 390 289 390 c 0
 270 390 256 384 244 373 c 0
 214 342 214 290 214 260 c 0
 214 232 215 199 229 171 c 0
 238 153 255 131 289 131 c 0
 363 131 363 227 363 262 c 0
251 726 m 1x28
 450 726 l 1
 369 591 l 1
 211 591 l 1
 251 726 l 1x28
EndSplineSet
EndChar

StartChar: ocircumflex
Encoding: 244 244 217
Width: 583
Flags: MW
HStem: -13 144<278 311.5> 390 139<279.5 326> 591 135<133 404 182 242 345 345 345 404 182 453> 680 46<293 293>
VStem: 26 188<246 275 246 285> 133 320<591 591> 363 190<244.5 278>
LayerCount: 2
Fore
SplineSet
26 264 m 0xca
 26 306 26 434 146 497 c 0
 194 523 244 529 289 529 c 0
 467 529 553 421 553 257 c 0
 553 218 548 179 536 142 c 0
 510 66 467 32 425 13 c 0
 383 -6 333 -13 290 -13 c 0
 266 -13 242 -11 219 -7 c 0
 177 1 136 14 99 51 c 0
 28 121 26 218 26 264 c 0xca
363 262 m 0
 363 294 363 390 289 390 c 0
 270 390 256 384 244 373 c 0
 214 342 214 290 214 260 c 0
 214 232 215 199 229 171 c 0
 238 153 255 131 289 131 c 0
 363 131 363 227 363 262 c 0
133 591 m 1x24
 182 726 l 1
 404 726 l 1
 453 591 l 1
 345 591 l 1x24
 293 680 l 1x14
 242 591 l 1
 133 591 l 1x24
EndSplineSet
EndChar

StartChar: odieresis
Encoding: 246 246 218
Width: 583
Flags: MW
HStem: -13 144<278 311.5> 390 139<279.5 326> 592 134<116 266 116 266 310 460 116 310>
VStem: 26 188<246 275 246 285> 116 150<592 726 592 726> 310 150<592 726 592 726> 363 190<244.5 278>
LayerCount: 2
Fore
SplineSet
26 264 m 0xd2
 26 306 26 434 146 497 c 0
 194 523 244 529 289 529 c 0
 467 529 553 421 553 257 c 0
 553 218 548 179 536 142 c 0
 510 66 467 32 425 13 c 0
 383 -6 333 -13 290 -13 c 0
 266 -13 242 -11 219 -7 c 0
 177 1 136 14 99 51 c 0
 28 121 26 218 26 264 c 0xd2
363 262 m 0
 363 294 363 390 289 390 c 0
 270 390 256 384 244 373 c 0
 214 342 214 290 214 260 c 0
 214 232 215 199 229 171 c 0
 238 153 255 131 289 131 c 0
 363 131 363 227 363 262 c 0
460 592 m 1x2c
 310 592 l 1
 310 726 l 1
 460 726 l 1
 460 592 l 1x2c
266 592 m 1
 116 592 l 1
 116 726 l 1
 266 726 l 1
 266 592 l 1
EndSplineSet
EndChar

StartChar: ograve
Encoding: 242 242 219
Width: 583
Flags: MW
HStem: -13 144<278 311.5> 390 139<279.5 326> 591 135<214 214 214 331 132 371>
VStem: 26 188<246 275 246 285> 132 239<591 726> 363 190<244.5 278>
LayerCount: 2
Fore
SplineSet
26 264 m 0xd4
 26 306 26 434 146 497 c 0
 194 523 244 529 289 529 c 0
 467 529 553 421 553 257 c 0
 553 218 548 179 536 142 c 0
 510 66 467 32 425 13 c 0
 383 -6 333 -13 290 -13 c 0
 266 -13 242 -11 219 -7 c 0
 177 1 136 14 99 51 c 0
 28 121 26 218 26 264 c 0xd4
363 262 m 0
 363 294 363 390 289 390 c 0
 270 390 256 384 244 373 c 0
 214 342 214 290 214 260 c 0
 214 232 215 199 229 171 c 0
 238 153 255 131 289 131 c 0
 363 131 363 227 363 262 c 0
214 591 m 1x28
 132 726 l 1
 331 726 l 1
 371 591 l 1
 214 591 l 1x28
EndSplineSet
EndChar

StartChar: otilde
Encoding: 245 245 220
Width: 583
Flags: MW
HStem: -13 144<278 311.5> 390 139<279.5 326> 572 105<329.5 415> 572 144<360 415> 580 145<198 226 133 227.5>
VStem: 26 188<246 275 246 285> 133 93<580 586 580 595> 360 93<716 716> 363 190<244.5 278>
LayerCount: 2
Fore
SplineSet
26 264 m 0xc480
 26 306 26 434 146 497 c 0
 194 523 244 529 289 529 c 0
 467 529 553 421 553 257 c 0
 553 218 548 179 536 142 c 0
 510 66 467 32 425 13 c 0
 383 -6 333 -13 290 -13 c 0
 266 -13 242 -11 219 -7 c 0
 177 1 136 14 99 51 c 0
 28 121 26 218 26 264 c 0xc480
363 262 m 0
 363 294 363 390 289 390 c 0
 270 390 256 384 244 373 c 0
 214 342 214 290 214 260 c 0
 214 232 215 199 229 171 c 0
 238 153 255 131 289 131 c 0
 363 131 363 227 363 262 c 0
360 716 m 1x13
 453 716 l 1
 454 690 457 572 373 572 c 0
 344 572 311 590 278 608 c 0
 269 612 260 617 251 617 c 0x13
 227 617 226 592 226 580 c 1
 133 580 l 1
 133 610 132 647 145 677 c 0
 157 706 182 725 214 725 c 0x0b
 241 725 266 710 310 686 c 0
 318 682 325 677 334 677 c 0x23
 356 677 359 702 360 716 c 1x13
EndSplineSet
EndChar

StartChar: scaron
Encoding: 353 353 221
Width: 500
Flags: MW
HStem: -13 121<258 259.5 242 345.5> 0 190<22 158 22 163 22 158> 332 183<327 465 327 465 324 465> 409 122<132.5 282.5> 591 135<149 209 312 371 149 149>
VStem: 17 184<366 382 366 410.5> 22 142 100 320<726 726> 293 184<137.5 158.5> 325 139
LayerCount: 2
Fore
SplineSet
22 190 m 1x5240
 158 190 l 1x5440
 161 130 206 107 242 108 c 0
 277 108 293 128 293 147 c 0
 293 170 273 177 261 181 c 0x9480
 236 189 213 196 188 203 c 0
 127 220 17 250 17 373 c 0
 17 448 69 531 196 531 c 0
 279 531 307 495 324 475 c 1x9440
 327 515 l 1
 465 515 l 1
 465 332 l 1
 324 332 l 1x6240
 320 357 312 409 253 409 c 0
 225 409 201 393 201 371 c 0
 201 361 205 354 210 349 c 0x5440
 218 341 227 337 283 322 c 0
 406 287 477 264 477 146 c 0
 477 120 474 72 438 35 c 0
 429 27 391 -13 300 -13 c 0
 216 -13 181 23 166 39 c 1x9280
 163 0 l 1
 22 0 l 1
 22 190 l 1x5240
371 591 m 1x09
 149 591 l 1
 100 726 l 1
 209 726 l 1
 260 637 l 1
 312 726 l 1
 420 726 l 1
 371 591 l 1x09
EndSplineSet
EndChar

StartChar: uacute
Encoding: 250 250 222
Width: 583
Flags: MW
HStem: -13 21<173.5 218.5> 0 143<523 523 523 566> 0 146<264.5 566 264.5 354> 374 143 591 135<251 369 211 450>
VStem: 53 186<204.5 215 215 375 375 375> 211 239<591 726> 337 186<225 375 375 375> 354 212<0 58 58 58>
LayerCount: 2
Fore
SplineSet
11 518 m 1x55
 239 518 l 1
 239 215 l 2
 239 194 241 146 288 146 c 0
 336 146 337 198 337 225 c 2x35
 337 375 l 1
 299 374 l 1
 299 518 l 1
 523 518 l 1
 523 143 l 1x55
 566 144 l 1
 566 0 l 1
 354 0 l 1
 354 58 l 1x5480
 338 37 322 18 284 2 c 0
 259 -8 232 -13 205 -13 c 0
 142 -13 108 14 95 27 c 0x9480
 56 65 54 115 53 163 c 1
 53 375 l 1
 11 374 l 1
 11 518 l 1x55
251 726 m 1x0a
 450 726 l 1
 369 591 l 1
 211 591 l 1
 251 726 l 1x0a
EndSplineSet
EndChar

StartChar: ucircumflex
Encoding: 251 251 223
Width: 583
Flags: MW
HStem: -13 21<173.5 218.5> 0 143<523 523 523 566> 0 146<264.5 566 264.5 354> 374 143 591 135<133 404 182 242 345 345 345 404 182 453> 680 46<293 293>
VStem: 53 186<204.5 215 215 375 375 375> 133 320<591 591> 337 186<225 375 375 375> 354 212<0 58 58 58>
LayerCount: 2
Fore
SplineSet
11 518 m 1x5280
 239 518 l 1
 239 215 l 2
 239 194 241 146 288 146 c 0
 336 146 337 198 337 225 c 2x3280
 337 375 l 1
 299 374 l 1
 299 518 l 1
 523 518 l 1
 523 143 l 1x5280
 566 144 l 1
 566 0 l 1
 354 0 l 1
 354 58 l 1x5240
 338 37 322 18 284 2 c 0
 259 -8 232 -13 205 -13 c 0
 142 -13 108 14 95 27 c 0x9240
 56 65 54 115 53 163 c 1
 53 375 l 1
 11 374 l 1
 11 518 l 1x5280
133 591 m 1x09
 182 726 l 1
 404 726 l 1
 453 591 l 1
 345 591 l 1x09
 293 680 l 1x05
 242 591 l 1
 133 591 l 1x09
EndSplineSet
EndChar

StartChar: udieresis
Encoding: 252 252 224
Width: 583
Flags: MW
HStem: -13 21<173.5 218.5> 0 143<523 523 523 566> 0 146<264.5 566 264.5 354> 374 143 592 134<115 265 115 265 309 459 115 309>
VStem: 53 186<204.5 215 215 375 375 375> 115 150<592 726 592 726> 309 150<592 726 592 726> 337 186<225 375 375 375> 354 212<0 58 58 58>
LayerCount: 2
Fore
SplineSet
11 518 m 1x5480
 239 518 l 1
 239 215 l 2
 239 194 241 146 288 146 c 0
 336 146 337 198 337 225 c 2x3480
 337 375 l 1
 299 374 l 1
 299 518 l 1
 523 518 l 1
 523 143 l 1x5480
 566 144 l 1
 566 0 l 1
 354 0 l 1
 354 58 l 1x5440
 338 37 322 18 284 2 c 0
 259 -8 232 -13 205 -13 c 0
 142 -13 108 14 95 27 c 0x9440
 56 65 54 115 53 163 c 1
 53 375 l 1
 11 374 l 1
 11 518 l 1x5480
459 592 m 1x0b
 309 592 l 1
 309 726 l 1
 459 726 l 1
 459 592 l 1x0b
265 592 m 1
 115 592 l 1
 115 726 l 1
 265 726 l 1
 265 592 l 1
EndSplineSet
EndChar

StartChar: ugrave
Encoding: 249 249 225
Width: 583
Flags: MW
HStem: -13 21<173.5 218.5> 0 143<523 523 523 566> 0 146<264.5 566 264.5 354> 374 143 591 135<214 214 214 331 132 371>
VStem: 53 186<204.5 215 215 375 375 375> 132 239<591 726> 337 186<225 375 375 375> 354 212<0 58 58 58>
LayerCount: 2
Fore
SplineSet
11 518 m 1x55
 239 518 l 1
 239 215 l 2
 239 194 241 146 288 146 c 0
 336 146 337 198 337 225 c 2x35
 337 375 l 1
 299 374 l 1
 299 518 l 1
 523 518 l 1
 523 143 l 1x55
 566 144 l 1
 566 0 l 1
 354 0 l 1
 354 58 l 1x5480
 338 37 322 18 284 2 c 0
 259 -8 232 -13 205 -13 c 0
 142 -13 108 14 95 27 c 0x9480
 56 65 54 115 53 163 c 1
 53 375 l 1
 11 374 l 1
 11 518 l 1x55
214 591 m 1x0a
 132 726 l 1
 331 726 l 1
 371 591 l 1
 214 591 l 1x0a
EndSplineSet
EndChar

StartChar: yacute
Encoding: 253 253 226
Width: 562
Flags: MW
HStem: -219 132<112 115.5 87.5 206.5> -205 21<23 23> 374 144<0 44 0 260 218 260 218 218 0 311 311 355 517 517 517 561> 591 135<239 357 199 438>
VStem: 0 260<374 518 374 518> 199 239<591 726> 311 250<374 518 374 518>
LayerCount: 2
Fore
SplineSet
0 518 m 1x6a
 260 518 l 1
 260 374 l 1
 218 374 l 1
 289 150 l 1
 355 374 l 1
 311 374 l 1
 311 518 l 1
 561 518 l 1
 561 374 l 1
 517 374 l 1
 360 -53 l 1
 318 -150 276 -219 137 -219 c 0xaa
 87 -219 50 -211 23 -205 c 1x6a
 23 -71 l 1
 42 -77 70 -87 105 -87 c 0
 126 -87 163 -84 182 -41 c 0
 186 -33 188 -24 191 -16 c 1xaa
 44 374 l 1
 0 374 l 1
 0 518 l 1x6a
239 726 m 1x14
 438 726 l 1
 357 591 l 1
 199 591 l 1
 239 726 l 1x14
EndSplineSet
EndChar

StartChar: ydieresis
Encoding: 255 255 227
Width: 562
Flags: MW
HStem: -219 132<112 115.5 87.5 206.5> -205 21<23 23> 374 144<0 44 0 260 218 260 218 218 0 311 311 355 517 517 517 561> 592 134<109 259 109 259 303 453 109 303>
VStem: 0 260<374 518 374 518> 109 150<592 726 592 726> 303 150<592 726 592 726> 311 250<374 518 374 518>
LayerCount: 2
Fore
SplineSet
0 518 m 1x69
 260 518 l 1
 260 374 l 1
 218 374 l 1
 289 150 l 1
 355 374 l 1
 311 374 l 1
 311 518 l 1
 561 518 l 1
 561 374 l 1
 517 374 l 1
 360 -53 l 1
 318 -150 276 -219 137 -219 c 0xa9
 87 -219 50 -211 23 -205 c 1x69
 23 -71 l 1
 42 -77 70 -87 105 -87 c 0
 126 -87 163 -84 182 -41 c 0
 186 -33 188 -24 191 -16 c 1xa9
 44 374 l 1
 0 374 l 1
 0 518 l 1x69
453 592 m 1x16
 303 592 l 1
 303 726 l 1
 453 726 l 1
 453 592 l 1x16
259 592 m 1
 109 592 l 1
 109 726 l 1
 259 726 l 1
 259 592 l 1
EndSplineSet
EndChar

StartChar: zcaron
Encoding: 382 382 228
Width: 521
Flags: MW
HStem: 0 121<225 351 225 493> 397 121<174 291 174 174> 591 135<150 210 313 372 150 150>
VStem: 32 142<332 397 332 518 332 518> 101 320<726 726> 351 142<121 195 0 195>
LayerCount: 2
Fore
SplineSet
32 518 m 1xd4
 492 518 l 1
 492 376 l 1
 225 121 l 1
 351 121 l 1
 351 195 l 1
 493 195 l 1
 493 0 l 1
 24 0 l 1
 24 139 l 1
 291 397 l 1
 174 397 l 1
 174 332 l 1
 32 332 l 1
 32 518 l 1xd4
372 591 m 1x28
 150 591 l 1
 101 726 l 1
 210 726 l 1
 261 637 l 1
 313 726 l 1
 421 726 l 1
 372 591 l 1x28
EndSplineSet
EndChar
